<svg id="Layer_1" data-name="Layer 1" xmlns="http://www.w3.org/2000/svg" viewBox="0 0 2480 1848"><defs><style>.cls-1{fill:#939393;stroke:red;stroke-miterlimit:10;stroke-width:5px;}</style></defs><path class="cls-1" d="M2480.42,256.13c-4.6,5.28-11.39,2.15-17.58,4.34.92,1.91,1.5,4.75,2.48,4.89,9.58,1.42,7.55,10.07,12.16,16.46-9.21-.37-16.48-1.07-23.52,2-13.82,6-27.47,12.17-38.85,22.61-5-4.84-10.67-6.12-17.7-4.6-3.48.76-7.35,5-11.35.69a1.92,1.92,0,0,0-1.86.14c-4.21,6.33-12.25,2.21-17.89,7.05-.92,3.37-.24,8.16-5.52,10.86-4.15,2.11-4.35,8.09-.93,11.81,3.8,4.14,3.73,8.45.7,12.18-4.33,5.34-5.29,11.22-4.53,17.55-12.24,2.31-13.8,4-13.36,14.37a49.57,49.57,0,0,0-5.33,1.61,38.65,38.65,0,0,0-4.62,2.75c.38,7.5-3.24,12.74-10.6,16.88-2.47-13.57-5-26.08-6.95-38.68-1-6.73,1.18-12.36,5.54-18.23a50.62,50.62,0,0,1,14.56-13.58c5.81-3.59,11.54-8,15.79-13.25,4.49-5.56,9.13-9.95,16-12.17,1.62-.52,3.23-2.55,3.92-4.26,2.18-5.4,3.93-11,5.86-16.56-4.42-2.64-8.62-2.11-10.51,2-3.9,8.47-12.35,11.05-18.55,16.33-5.66-3.71,1.19-7.11,0-10.56-8.85-1.79-19.15-2-24.78,3.45-6.94,6.76-19.27,9.48-19.57,21.94l-9.49,3.42c-5.82-2.53-10.89-5.25-16.28-6.89-3.21-1-7.06-1.82-10.12,1.77-.95,1.1-3.57,1-5.43,1.05-8.63.08-17.32.65-25.87-.17-11.76-1.13-19.88,5.74-26.51,12.94-10.41,11.32-21.09,22-33.85,30.61-1.27.85-1.93,2.6-3.22,4.44,2.62,1.71,5,3.29,7.37,4.8,1.07.67,2.68.89,3.25,1.81,1.34,2.13,2.13,4.59,3.29,6.85a2.21,2.21,0,0,0,1.68.92c2.94.1,5.89.05,9.14.05.46-2.07.86-3.91,1.36-6.2,3.32-1.25,6.09-.87,8.58,2.21,1.75,2.16,4,3.94,6.86,6.75a30.23,30.23,0,0,1-3.11,18.81c-2.2,4.09-2.27,9.54-2.5,14.42-.36,8.06-.38,15.9-8.08,21.26-2,1.37-3.16,4.22-4.12,6.62-4.33,10.85-12.37,19.15-18.86,28.54-4.8,6.94-10.6,12.24-17.49,17.39-1.05-.72-2.16-1.36-3.13-2.16-6.56-5.42-6.71-5.55-12,1.28-2.84,3.64-5,7.81-8.58,10.71-.62,6.41-3.81,11.39-10.59,15.7-7.73,4.92-7.19,8.73-2.37,16.63,4.64,7.61,10.1,14.83,9.63,24.9-.38,8.07-2.31,12.66-10.48,14.84-3.63,1-7.37,5.8-11.86,0,8.16-6.89,3.24-16.84,5.46-25.4.38-1.46-1.93-4.11-3.6-5.49-2.2-1.82-5-2.93-8-4.58.33-2.47.53-5.1,1.06-7.67,1.49-7.1-2.37-11.41-9.56-9.8-4.91,1.09-9.58,3.26-15.86,5.48a68.06,68.06,0,0,1,3.33-7.07c1.81-2.85,2.58-5.71-.33-8a6.54,6.54,0,0,0-9.07.48c-3.59,3.35-7.14,6.77-10.46,10.39-2.63,2.86-4.33,5.9-9.26,6.45s-5.58,8.7-.32,10.63c6.11,2.24,5.86,7.11,8.29,10.89a39.19,39.19,0,0,1,1.83,4c5.47-9.47,11.9-11,20.38-6.12-9.07,6.85-19.78,12.33-22.26,25.36,6.73,5.45,11.07,12.15,10.66,21.22-.06,1.25,1.19,2.76,2.19,3.83,5.87,6.33,5.7,11.33-.41,17.34-1.43,1.4-2.16,3.52-3.79,6.3l9,.75c4.24,12.26-6.28,19-9.71,28.26-1,2.75-3.5,5.16-3.89,7.93-1.62,11.65-9.86,18.94-16.59,27.45-5,6.37-12.53,8-18.74,12-1.11.72-3.87-1.09-6.6-2-3.82,11.23-16.8,10.41-22.37,16.28l-7.49-7.76c-13.9,7.12-23,14.88-25.13,28.44-.37,2.36-.52,5.35.59,7.26,5.11,8.82,9.2,18.19,16.51,25.82,6.18,6.45,5.8,15.89,7.2,24.28.64,3.9.23,8,.28,12,.08,6.83-2.67,12.46-8.44,15.92-5.2,3.11-9.45,6.3-11.71,12.44-1.17,3.21-5.27,5.34-8,7.86.21-4.49.41-8.69.59-12.51-6.52-5-12.1-9.51-14.5-17.28-1-3.32-4.36-6.77-7.54-8.36-3.5-1.76-6.17-2.88-6.77-7.27-.12-.9-4.28-1.25-5.91-1.67-2.51,10.76-5.27,20.26-6.78,30-.91,5.84-1.92,11.78,3.48,17.47,3.45,3.64,4.08,10.3,5.12,15.77.7,3.72,2.48,5.45,5.5,7.46,8.68,5.77,14.84,14.73,14.49,24.56-.23,6.6,1.28,12.12,2.55,18.07a55.27,55.27,0,0,1,1.63,11.62c-7.13-8-15.93-14.54-19-25.25-1.51-5.3-3.84-10.73-3.73-16.06.23-11.94-6.33-20.52-13-28.92-2.15-2.72-2.85-4.7-2.55-7.78,1.28-13.41,3-26.83,3.35-40.27.14-5.7-2.79-11.47-4.33-17.21-2.5-9.4-2-19.64-7.87-28.26l-12.36,14.94c-6-1.17-6.11-5-5-8.58,3.44-11.74-2.92-21.6-5.9-32.07-.45-1.58-3.25-2.39-4-4-2.51-5.3-4.67-10.78-6.77-16.27a74.8,74.8,0,0,1-2-7.77c-5.26,2.2-9.51,3.76-13.56,5.73s-7.79,3-12.62,1.7-8.74,2.66-9.42,9c-.59,5.38-1.39,9.84-8,10.44-1,.09-2,1.88-2.86,3-6.11,8.11-9.49,18.38-18.9,23.9-1.24,7.49-9,9-12.78,14.07a19.48,19.48,0,0,0-3.59,9.8c-.33,4.83,1,9.75.94,14.63a102.38,102.38,0,0,1-1.46,13.81c-.27,1.92-1.66,3.8-1.58,5.65.49,10.48-3.24,19.23-9.9,27.11-1.78,2.1-2.55,5-4.2,8.46-4.64-5-7.49-9.59-7.86-15.32-.59-9.41-4-17.92-7.2-26.64-3.65-9.84-5.79-20.24-8.92-30.29-5.54-17.83-8.87-35.87-7.53-54.69.41-5.77.08-11.85-4.65-18.12-2.52,6.25-2.5,13.66-11.79,14.44l-8.43-12.45,8.14-6.82c-.78-1.21-1-2.12-1.44-2.17-11-1.45-15.58-5.27-20.69-16.86-1.31-3-3.37-5.6-5.56-9.15-20.59,1.52-41.76,3.73-62.34-4-.91-3.37-1.54-7-2.84-10.26-1.74-4.4-4.83-5-8.39-2.13-6.36,5.16-11.83,5.07-17.59-.15-3.67-3.33-8-6.06-11-9.87-2.71-3.43-4.05-7.94-5.94-12-1.41-3-2.73-6-4.31-9.58-7.7-1.52-13.71,1-17.7,7.94,2.07,5.85,3.91,11.45,6.07,16.93.66,1.68,2.33,2.94,3.34,4.52,3.22,5,8.75,8.92,6.94,16.46-.54,2.26,1.89,5.24,3.61,9.49,1.48-3.7,2.36-5.88,3.58-8.9,3.54,5.08.89,9.93,1,14.55,5.64,6.83,12.25,2.37,18.42,1.34,7.41-1.25,8.19-10,14.11-13.4a79.41,79.41,0,0,1,2.91,8.41c1.28,5.59,4,9.33,10,10.78s8.75,6.86,11.13,12c.65,1.41,0,3.84-.83,5.46-2.14,4.4-3.71,9.85-7.26,12.61-5.22,4-4.84,9-5.25,14.44-4.37,2.46-6.57,6.32-8.9,10.86-1.77,3.41-9.09,3.7-7.89,10.36-5.17,1.53-9.87,2.83-14.49,4.33-3.56,1.16-6.74,2.62-6.58,7.42.16,4.54-4.16,5.57-7,7.49-5.65,3.79-12.56,5.36-17.1,11.32-1.83,2.4-6.85,2.07-9.81,3.94-5.24,3.33-12.49,3.33-15.94,9.9-.6,1.14-4.23.7-7.64,1.14-1.75-9.8-4.92-19.17-4.68-28.45a46.7,46.7,0,0,0-7.91-27.67c-1.39-2.16-2-4.8-3.14-7.13-2.3-4.66-4.17-9.66-7.23-13.79-4.82-6.52-8-12.84-7.41-21.56.35-5.43-1.6-13.12-5.42-16.19-5.66-4.56-6.5-10.31-8.91-15.91-3.62-8.41-7.09-17-11.58-24.9-2.22-3.94-4.27-7.08-2.27-11.61.44-1-.31-2.49-.65-4.58-5.42,3.44-4.87,8.61-5.58,13.7-4.32-.84-5.43-3.68-5.51-7.05-.12-4.92-3.24-7.47-7.47-10.77-1,6.4,1.46,10.92,3.15,15.58q3.84,10.63,7.77,21.25c2.29,6.21,4.74,12.36,6.86,18.62,1.25,3.7,1.91,7.6,3,11.36.63,2.18,1,5,2.5,6.28,9,7.62,8.47,18.41,9.18,28.37a34.45,34.45,0,0,0,7.49,19.61c3.91,5.19,5.35,12.66,6.51,19.36.93,5.34,3.3,8.54,7.17,12.13,5.41,5,9.57,11.42,14,17.42,3.6,4.88,8.67,9.61,4,16.57,2.43,3.71,4.65,7.56,7.32,11.08,3.39,4.46,6.78,2.4,11.24.67,7.53-2.94,15.88-3.69,23.71-6,4.49-1.3,8.62-3.81,13.09-5.86,3,12.26-2.07,23.76-5.7,35.38-2.32,7.44-5.37,14.67-8.42,21.85-2.69,6.35-5.79,12.53-8.78,18.74-1.56,3.26-2.92,6.69-5,9.6-3.42,4.79-6.68,10.08-11.2,13.64-10,7.87-15,19.19-21.86,29.17-3.92,5.67-7.69,11.47-11.21,17.39a47.15,47.15,0,0,0-4.4,9.9c-2.46,7.87-4.75,15.81-6.73,23.82-.59,2.37-.94,6.12.38,7.4,3.49,3.35,2.62,7.09,2.91,11,.55,7.53,1.62,15,2.58,22.52.16,1.26.52,3,1.41,3.59,5.55,3.61,4.28,9.14,4.46,14.33.35,10.61,1.13,21.22,1.12,31.84a26.26,26.26,0,0,1-12.23,22.55c-7,4.59-13.09,9.49-17,17.07a30.71,30.71,0,0,1-7.19,9.41c-5.18,4.32-5.39,9.21-3.85,15.08,2.35,8.93,5.32,17.72,4.58,27.27-.5,6.48-2.08,11.33-9,13.61-3.27,1.07-7,3.34-8.58,6.15-1.47,2.65.38,6.94-.53,10.13-2.52,8.87-.92,19.11-8.65,26.35a15,15,0,0,0-4.3,6.58c-3.77,14.33-13.51,24.92-22.94,35.32-6.16,6.79-15.33,9.62-24.86,9.57s-19,.86-28.3,6.54c-4-5.12-8.16-10.33-12.63-16,4.78-5.41,4.14-10.57,1.48-16.58-3.18-7.19-4.83-15-7.18-22.6a9.35,9.35,0,0,0-1.52-3.57c-9.77-10.36-10.7-23.5-12.75-36.68-1.56-10.12-4.19-20-3.87-30.38a5.17,5.17,0,0,0-.48-1.93c-4.94-12.59-9.59-25.29-15-37.69-2.72-6.29-4.21-12.22-3-19.17,2.58-15.44,5.86-30.51,12.19-45,2.46-5.66,5.22-12.71.24-19.81-2.19-3.11-1.41-8.34-1.88-12.62-.61-5.51-.59-11.14-1.75-16.52-3.89-18.12-8.94-35.58-20.87-50.73-5.14-6.53-7.63-14.71-4.08-24.83s2.55-21.92,3.52-33c.63-7.29-5.18-10.94-9.14-15.53-.75-.88-3-.74-4.47-.66a45.18,45.18,0,0,0-8.86,1c-5.14,1.3-7.11-.86-8.22-5.67-2.93-12.65-9-16.81-21.37-14.08-4.45,1-9.2,1.44-13.07,5.52-3.17,3.34-8.55,4.57-12.9,6.82-3.66,1.88-7,2.15-11.3,1-9-2.35-18.17-2-26.5,3.72-5.51,3.78-8,3.45-13-1.62-5.27-5.37-9.91-11.34-15-16.94-2.18-2.43-4.36-5.13-7.11-6.74-6.45-3.77-6.54-10.71-9-16.45-1.77-4.17-2.31-9-4.76-12.7-5.21-7.74-11.44-14.78-16.94-22.34a13.71,13.71,0,0,1-2.19-7c-.12-2.2,2.1-5.1,1.28-6.6-7-12.83,2.23-24.09,2.92-36.1.41-7.14-.47-14.35-.73-21.54-.07-1.86.27-3.77,0-5.59-.56-3.47-.35-7.93-2.42-10.14-4.6-4.89-2.39-9.08-.45-13.61,4.4-10.26,10.31-20.13,12.9-30.81,2.29-9.47,9.82-16,11.43-25.48.2-1.17,2.21-2.46,3.63-2.94,10.09-3.43,16.16-10.64,19.63-20.36.65-1.82,1.66-3.93,1.28-5.63-3.07-13.65,2.29-23.29,13.28-31.07,4.47-3.16,8.61-7.24,9.09-13.66.21-2.85,1.78-5.6,3.18-9.74,5.76,10.45,16,4.75,23.82,7.83,2,.79,5.78-2.24,8.46-3.94,4.9-3.1,9.2-8.11,14.47-9.44,8.76-2.22,17.53-4.63,27.09-4.27s19.77,1.4,28.75-4.1c3.82-2.34,6.36-.8,7.52,3.16a113,113,0,0,1,3.75,14.94c.29,1.94-1.33,4.28-2.39,6.28-1.35,2.53-3,4.9-4.54,7.33,3,2.78,5.17,5.1,7.64,7,4.48,3.49,9.22,6.27,15.31,6.2,7.06-.09,12.71,2.1,14.87,10,.6,2.21,3.28,5.41,5.09,5.47,7.69.26,12.52,5.57,18.43,9a33.88,33.88,0,0,0,3.3,1.5c9.41-5.84,9.41-5.84,6.75-19,2.15-1.76,4.31-3.76,6.69-5.43,5.37-3.79,7.57-3.47,12.61,1.43.9.87,1.81,2.15,2.89,2.37,7.51,1.58,12.8,7.89,21.18,8.47,6.48.45,12.7,4.72,19.53,7.49,2.4-1.67,5.11-3.47,7.7-5.42,3.86-2.9,7.27-3.1,11.82-.53,3.69,2.07,8.58,2,13.17,3C1488.75,587.6,1490,566.31,1492,544c-6.12,3.46-13.39.1-18.14,6.74-.85,1.18-6.62-.59-9.79-1.82s-6-3.51-9.76-5.77c-1.21,2.51-1.61,4.59-2.87,5.61-1.52,1.24-4.35,2.74-5.61,2.11-8.84-4.44-17-9.75-17.38-21.2-.15-4.65.22-9.2-4.18-12.68-.93-.73,0-4.17.46-6.26.88-3.73-.85-6.14-4.07-6.77-5.25-1-11.64-2-14.91,2.72-2.72,3.89-5.51,1.74-9.78,2.18,1.22,3.37,2.36,5.87,3,8.48.72,2.82,1,5.75,1.61,9.48l6.27,3-10.27,15.64c-2.16.17-4.22-1.92-4.67-5.65-.37-3.13-.42-6.29-.66-10.2-8.7-1.3-7-11.22-11.62-16.59-5.53-6.37-.58-14.29-3.2-21-7.81-5.5-15.93-10.69-23.34-16.73-2.44-2-6.75-2.49-7-7.57-.12-3.21-2.92-6.32-4.57-9.56l-4.07,3.24c-.64-2.54-1.15-4.59-2-8-3.3,1.52-8,2.28-8.47,4.15-1.29,4.85-3,10.86,1.14,15A51,51,0,0,1,1339,488.81c2.16,5,6.85,5.91,12.14,5.23.31,9.06,7.76,10.64,13.67,14.15-10.85-.41-12.7,3.9-8.46,15.19-2.94-4.34-6.5-8.38-8.66-13.07-2.45-5.33-7.14-7.67-11.56-10-9.73-5.05-15.83-13.22-21.51-22.05a47.76,47.76,0,0,0-7.17-9c-2.72-2.56-5.81-2.35-8.86.46-2.85,2.64-6.49,4.43-9.33,7.08s-5.44,2.66-9,1.67c-8.06-2.23-11-1.55-18.07,2.51-.07,1.5-.2,3.14-.22,4.78,0,2.51.91,5.55-.19,7.4a16.51,16.51,0,0,1-7.13,6.58c-10.87,4.64-15.35,12.29-14.52,24.16.38,5.54-3.83,10.54-7,14.88-1.33,1.8-5,2.3-5.82,5.69-.18.74-2.3,1.57-3.4,1.42-7.84-1.07-14.53,2.53-22,5.75-3.15-8.71-9.44-11.74-18-10.2-2.82-5.08.6-11.47-4.68-15.27-.8-.57-.19-3.87.5-5.62,4.9-12.44,4.26-25,.65-37.5l8.21-5.94c4.62.58,8.78,1.25,13,1.59,7.57.62,15.2.62,22.7,1.66,5,.7,8.42-1.38,9.28-5.4,1.4-6.64,2.76-13.78,1.71-20.32C1233.53,444,1227,436,1216.41,432c-1.47-.56-3-1.08-4.6-1.68,1.59-6.36,5.52-6.26,10-4.79,2.93,1,5.83,2,9.45,3.25.78-3.31,1.28-5.48,1.83-7.81a8.53,8.53,0,0,1,2.73-.74c8.79.49,13.06-6.13,17.36-11.82,2.37-3.12,4-6.46,7.93-8,6.54-2.48,10.36-7.46,12.86-13.9s6.73-7.64,14.65-9.12c3.95-.74,7.78-2.38,12.07-2.57,1.27-.05,3.57-3.41,3.41-5a118.77,118.77,0,0,0-3.25-17.22c-2.07-8.07-1.49-9.46,6.55-13.11a24.23,24.23,0,0,0,4-2.87c.53,5.24,1.74,9.63-1.46,14.51-3.52,5.35-.82,12.15,4.06,16.76,3.17,3,6.12,3.45,9.89,1.66,2.65-1.26,5.47-2.16,8.18-3.21,7.43,7,14.37,7.15,25.55-.15,5-3.26,9.17-5.51,13.16,1a3.52,3.52,0,0,0,2.56,1.3c6.16.19,7.51-8.92,14.37-7.53.32-2.86,1.73-6.18.74-8.47-2.39-5.5-.39-9.58,2.4-13.9,3.1-4.78,4.86-5.49,9.1-1.58,3.18,2.92,6,3.66,10.3,1.94.21-6,4.82-13-4.74-16.6-.13-.05.62-4.87,1.68-5.21,4-1.29,8.4-2.49,12.53-2.2,10.56.75,19.85-2.13,28.61-7.77-9.29-7.29-18.79-7-29-2.2-4,1.9-8.84,2-13.26,3.12-5.91,1.46-10.25-1.37-14.13-5.15-1-.94-1.87-3.16-1.42-4.15,3.31-7.14-3.68-15.06,1.71-21.8,1.78-2.22,4.11-4.87,6.63-5.47,7.73-1.82,11.27-8.69,16.91-13,1.4-1.07,2.59-4.38,1.94-5.74-1-2-3.52-4.19-5.62-4.44-5.24-.63-10.6-.21-17.72-.21-1.93,4-4.07,9.32-6.92,14.18-1.59,2.71-4.16,4.95-6.64,7-2,1.64-4.65,2.47-6.83,3.92-12.78,8.49-14.94,13.18-13.58,29a10,10,0,0,0,1.31,1.37c3,2.14,7.8,3.67,8.74,6.49,1.65,5-3.64,7.55-7.28,9.19-4.64,2.09-6.46,5-6.78,9.81a41.7,41.7,0,0,1-2.27,10.61c-1,3-2.23,6-6.49,6.59-2.57.38-4.84,2.78-7.23,4.28-1.76,1.11-4.3,3.57-5.11,3.09-2-1.17-4.82-4.39-4.34-5.56,2.59-6.31-2.57-9.64-4.56-14.12-1.85-4.19-3.92-8.28-5.92-12.41-1.25-2.6-2.54-5.2-4.06-8.29-6.41,4.31-12.05,8.18-17.76,11.95-5.5,3.63-13,2.23-15.74-3.64-4-8.63-7.37-17.53-5.83-27.52.6-3.9,1.65-6.43,5.58-8.44,6.56-3.34,12.1-10,18.84-11.33,10.82-2.09,13.89-12.55,22.28-16.76,1.69-.84,2.72-3.52,3.48-5.57,2.34-6.27,5.93-11.21,12.11-14.35,2.14-1.09,3.83-3.55,5.09-5.75,1.55-2.71,2.82-5.21,6.51-5.19,2.64,0,3.34-1.58,2.66-4-.15-.52.21-1.7.42-1.72,9.48-.86,11-12.08,21.59-14l7.24,4.5c7.5-10.33,21.24-5.81,30.3-13.06,1,1.89,1.73,3.33,2.86,5.53,4.65-4.6,13.08,1.47,17.2-9.42l4.38,5.91,13-1.71-3.77,10.13c3.8,0,7.09.2,10.34-.05,4.42-.34,8.35.12,12,3.16,1.9,1.57,4.89,2.93,7.2,2.68,9.42-1,17.42,2.72,25.49,6.51,6.2,2.92,12.51,5.63,18.54,8.87,2,1.1,3.39,3.51,5,5.3-4.13,7.29-10.84,8.62-17.26,8.63-8.1,0-16.32-.37-24-4.05-3.28-1.56-7.44-1.25-11.65-1.85-.31,6.5,4.53,8,7.15,11-1,9.57,2,14.54,10.62,17.83,1.85.71,3.61,1.67,5.44,2.43,6.08,2.53,6.59,2.18,8.63-6.36l-8-3.41c8.15-1.55,15.82,6.66,24.24-.57-.82-2.35-1.62-4.62-2.48-7.09,4.52-2.52,8.8-6.2,13.65-7.24,4.25-.91,9.13,1.13,14.55,2,1.93-3.23,4.13-7,.71-12.48-1.54-2.49,0-6.92.24-10.82,4.68-1.3,8.9-2.49,13.91,2.06l-8.79,4.43c2.29,10.23,12,14.77,17.41,7.47,4.44-6,10.53-7.68,16.24-10,5-2,9.83-7.7,16.37-3.39.22.15,1.47-1,2-1.66,2.78-3.49,5.71-2.88,8.32-.06s5.26,3.08,8.8,1.24c2.19-1.14,5.13-.79,7.72-1.24,5.69-1,11.36-2,17.71-3.17.77,1,2.1,4.58,4.35,5.3,1.72.56,4.54-2.5,7-3.77a46,46,0,0,1,5.45-1.9c-1.6-3.08-2.85-5.5-4.24-8.16.7-.46,1.43-1.34,2.23-1.41,7.25-.61,14.16-.13,21.11,3,10.1,4.57,20.7,8,32.19,12.38l4-6.25-2.6,1.15c-2.5-3.5-5.63-6.72-7.31-10.57-1.89-4.32-2.61-9.19-3.46-13.88-.15-.88,1.29-2.73,2.31-3,6.93-1.93,9.06-8.06,11.47-12.71h23.19l-7,12.84c4.83,2.52,6.5,5.64,5.42,11.67-1,5.32-4,12.47,3,17.34.86.6,0,4.88-1.12,6.83-1.77,3-4.58,5.42-6.73,8.25a32.37,32.37,0,0,0-2.51,4.88c12.39,3.79,24.31-5.38,23.6-19.69l10.34-4.18,8.19,7.5c4.61-5.78,3.34-8.16-2.7-10-3.1-.95-6.52-.89-9.81-1.07-3-.16-6,0-8.62,0-6.54-5.53-2.35-9.44,1.79-12.7l-8-11L1759,185.3l1.68,7.64c3.06,2.3,12.75,1.33,15.71-1.48,4.14-3.92,7.89-8.75,14.63-7.17a31.77,31.77,0,0,1,8.41,2.92c4.45,2.5,8.57,1.74,13.29.5-2.45-8.13-15-5.88-14.53-16.75l41.62-4.47c.28-4.67.48-7.93.62-10.13,5.2-1.91,9.68-3.76,14.3-5.16a27.47,27.47,0,0,1,7.78-1,65.86,65.86,0,0,0,24.92-4.73,31,31,0,0,1,19.37-1.64c6,1.45,13-.51,19.49-1.47a35.94,35.94,0,0,0,11.53-4c3.4-2.58,6.51-5.77,10.28-7.57s8-2.08,13.14-3.29c3.9,5,12.17,5.59,17,11.78,1,1.24,5,.5,7.56,0,9.23-1.85,18.42-2.22,27.39.9,3.74,1.31,7.13,3.6,11.82,6-2.34,2.69-3.93,6.08-6.52,7.21-10.45,4.56-21,9.07-31.94,12.22-4.42,1.28-7.88,2.84-10.77,6.09-.56.63-.56,1.75-.84,2.69,5.33.6,23.76-2.88,26.94-5.19.94-.68,1.44-2,2.21-3.09,8.06,1.59,15.74,3.12,23.44,4.58a4.79,4.79,0,0,0,3,0c7-4.23,13.93-.54,20.87.15a15.78,15.78,0,0,1,3.88.75c13.3,5,19.68,5.66,36.77,3.77l2.12-6.25c1-.32,2-1,2.82-.86,9.34,1.39,18.77,2.44,28,4.52,7.75,1.76,8.37,4.15,4.56,10.95-.47.84-.89,1.71-1.3,2.5,11.27,15.6,19.79,16.77,26.71,3.2,2,.53,4.67.48,6.13,1.79,3.88,3.47,7,3.38,11.46.66,2.77-1.68,7.27-.18,10.65-1.23,4-1.25,6.64,5.84,11.52.85,2-2.09,7.46-.9,11.74-1.24l-1.78-8.82c6.33-.91,12.35-2.06,18.43-2.56s12.2-.81,15.62,6.13c5.07-3.17,9.1-6.2,14-1.47,1.46,1.39,5.13.45,7.78.6,4.06.23,8.53-1.31,10.54,4.74.54,1.65,5.48,1.45,7.88,3,9,5.59,17.73,7.55,28.8,5.56,10.71-1.94,22.51-2.54,33.68,2.81l1,6.7c7.8,7,15.75,5.48,24,2.66,1.78-.61,4.23.37,6.28.95,8.69,2.48,17.25,3.05,25.88-.95,5.42,5,10.06,12.3,20.59,9.86.43-3.8.86-7.59,1.42-12.51,20,1.62,40.48,1.73,60,9.22ZM1456.83,443.67c-3.91,4.47-8.34,7.63-10,11.88-3.33,8.32-8.75,15.39-12.4,23.44-3.51,7.75-2.64,17.42,3.12,20.79,4.54,2.66,10.26,3.31,15.48,4.77,4.44,1.24,6.17-2.63,9.09-4.6,9.22-6.21,16.39-8.81,24.28-2,9.32,8.06,20.74,7.48,31.92,6.71s15.59-9.41,9.76-18.88c-4.68-7.6-13-11.53-19.35-17.52-2.47-2.33-5.67-3.9-7.88-5.38,2.22-5.05,4.91-8.81,5.35-12.81.53-4.78,8.91-4.9,5.65-11.37-5.18-1-10.21-1.34-14.65,2.9-1.33,1.27-3.4,1.9-5.25,2.45-12.65,3.82-13.14,4.79-7.94,16.26.2.44-.3,1.2-.65,2.43l-7,2.41-4.69-7.54c1.13-1.7,2.71-3.14,2.89-4.73.1-.88-2.46-3.11-3.3-2.87C1465,451.76,1461.38,447.62,1456.83,443.67Zm122.27,94.05c3.51,2.6,6.28,4.25,8.56,6.4,6.68,6.32,16.73,7.85,24.21,3.26a4.73,4.73,0,0,0,2.21-3.1c.34-10.68,2-21.62-5.55-30.95-2.29-2.84-1.1-5,2.53-5.59,3.2-.51,6.35-1.29,11.24-2.31-4.36-6.07-6.68-12.31-11.09-14.7-5.41-2.93-8.88-7.37-13-11.2-5.23-4.82-2.74-11.36-1.84-17.34,12.23-3.88,14.3-7.57,11.37-19.67l-14.2-3.73c-7.4,5.56-15.62,11.47-23.55,17.75-5.9,4.68-6.55,9.54-3.29,16.31a13.61,13.61,0,0,1,1.68,6.54c-.39,5.1,1.77,9,4.65,12.76,2,2.64,3.61,5.57,5.59,8.22,4.9,6.58,5.63,14.42,1.3,20.42C1575,527.62,1577.53,533,1579.1,537.72ZM1468.59,304.45c-.52-2-.41-5.51-2.09-7.22a28.68,28.68,0,0,0-10.5-6.69c-1.84-.66-5.28,1-6.88,2.71-1,1.06-.41,4.26.29,6.19,1.5,4.11,3.53,8,5.44,12.21Zm-22.14,199.69c-6.67,0-10.89-.58-14.87.17-3.59.68-4.71,5.58-1.91,6.52a20,20,0,0,0,10.44.68C1442.09,511.05,1443.42,507.83,1446.45,504.14Zm-50.89,25.2c0,5.25,0,5.25,5.11,3.26Z"/><path class="cls-1" d="M.62,1730c3,.22,6,.63,8.92.64q81.5,0,163,0c3.25,0,6.5-.28,11.9-.52-2.15-2.94-3.17-5.64-4.32-5.69a73.32,73.32,0,0,0-14.73.71c-4.65.74-6.48-.06-8.47-6.52,13.71.7,27,1.15,40.22,2.17,5.08.39,10,2.26,15.12,3.11,1.87.32,4.92.37,5.71-.72,5.26-7.22,11.77-4,19-2.18l6.94-12.67c8-6.27,18.18-7.83,28.7-7.64,3.8.07,7-.54,10-3.29,1.74-1.57,4.58-2.19,7-2.67,7.38-1.44,14.81-2.61,22.22-3.88,1-.17,2.16-.8,2.85-.44,10.28,5.39,21.72-.14,32.3,3.47,2.74.94,6.37-1,9.61-1.17,19.75-.91,39.51.67,59.25-.13,11.5-.47,23-1.7,34.45-2.7a6.6,6.6,0,0,0,3.43-1.53c4.28-3.57,4.24-3.62,6.23,1,2.39,5.61,8.77,6.65,13.76,2.27a28.44,28.44,0,0,1,4.18-3.46c.65-.38,1.88.22,3.77.51-.63,1.59-1.2,2.86-1.64,4.18-.39,1.17-.63,2.4-.84,3.23.62.74.82,1.2,1,1.2,10.71.22,21.38,2.52,32.11.65,2.5-.43,4.89-1.87,7.37-2,6.14-.3,12.54-1.15,18.39.18,6.87,1.56,8.55,2.54,18.62.37-2.67-5.83-5.26-11.18-14-10.11.3-.86.59-1.73.89-2.59l10.53-2.06c1.67-3.86.32-5.94-3.6-6.1-4.66-.2-9.33,0-14-.11a9.43,9.43,0,0,1-4.94-1.65c9.63.26,19.86-1.44,28.79,1.2,16.13,4.79,32.2,2.19,48.26,2.65,7,.21,14-2.16,21-3.35.2,3.06,2.78,3.57,6.17,3.64,6.44.15,13.24-1.59,18.78,4,1.23,1.24,4.48.51,6.81.6,3,.11,6.29-.65,8.93.35,6.17,2.34,11.21,2.45,16.08-2.91a7,7,0,0,1,10-.56c3.57,3.13,6.62,3.59,10.69,1,1.21-.76,3.66.47,5.55.75,3.46.51,6.93,1,10.87,1.55-.22-4.16-.38-7.19-.62-11.89,2.4,2,4,2.79,4.6,4,3.54,7,3.41,6.74,10.73,5.4,6.47-1.19,13.1-2.29,19.64-2.2,9.82.15,17.69-3.52,25.3-10.16l-10.34-27.58,10-5.56c-2-7-4-13.8-6.12-21.23l-6.14,2.37c.76-1.26,1.33-2.78,1.71-2.74,10.58,1.27,16.68-7.45,25-11.15a5.76,5.76,0,0,0,2.78-2.75c3.59-8.72,11.56-9.39,19.65-11.43l-10.93,15.91c-7.94-1.17-12.73,6.49-18,12-3.34,3.49-1,9.48,2.39,14.39l8.32.62c2,2.53,4.09,5,6,7.6,1.31,1.74,3.29,3.53,3.48,5.45.59,5.76,2.25,10.14,11.62,9.35l-9.86,8.64,11.88,12.44c-3.3,1.47-8.47-2-8.09,4.62l5,2.31-9.27,10.55-5.66-2.52a15.93,15.93,0,0,0-2.5,2.91c-5,9.74-14.29,10.8-23.65,11.81-6.22.66-12.51,1.1-18.63,2.31-2.23.44-4.07,2.82-4.34,3-10.66,0-19.58,0-28.5,0-4.26,0-8-.2-11.92-3.38-3.18-2.57-8.27-5.26-13.39-2.09-4,2.47-4.39,4.5-.58,7.31,7.8,5.73,15.82,11,26.3,9.56,1.78-.25,3.64.2,7.54.47-7.3,4.36-13.32,2.67-18.94,2.62-6.23,0-12.47-1.09-18.69-1.84-5.55-.66-11.08-1.5-18.24-2.48,3.91,7.38,8.75,8.65,14.58,9.27,37.18,3.92,74.47,1.24,111.7,1.82,28.65.44,57.32.17,86,0a41.41,41.41,0,0,0,13.62-2.11,39,39,0,0,1,28.84.38,31.35,31.35,0,0,0,10.67,1.75c10.66.21,21.38-.63,32,.26,12.18,1,22.73-3,33.22-8,.86-.41,1.54-1.65,2.34-1.69,12.05-.62,22.51-7,33.77-9.56,14.25-3.29,28.89-6.24,43.94-5.85,8,.21,16.07-2.15,24.09-3.47a3.74,3.74,0,0,0,2.23-1.67c5-8,13.82-9.28,21.52-12.59,2.38-1,4.45-2.78,6.66-4.2-.3-.79-.6-1.57-.91-2.36l-13.17,1.58c1.29-3.86,1.29-3.86,15.21-6,.34-1.45.7-2.94,1.15-4.86,8,.7,13.81-2.36,17.92-9.63,2-3.47,6.12-5.68,9.81-8.93l6,8h9.31c.87-2.58,1.65-4.88,2.38-7,1.38.13,2.36,0,2.6.29,4,5.59,5.88,6.65,10.92,4,6.39-3.31,12.18-2.54,18.79-.37,6.28,2.07,13.59,7,19.51-1.29,9.66-1.75,19.28-3.82,29-5.11,6.09-.81,12.68,1.25,17.68-4.26a4,4,0,0,1,3.64-.68,11,11,0,0,0,9.48-.09c1.73-.76,5.06,1.08,7.17,2.47,5.31,3.5,10.07,3.47,15.42-.13,2.52-1.7,6-2.32,9.14-2.69,8.78-1,17.56.68,26.57-2.06,5.27-1.6,12,2.35,18.15,2.63,11.52.53,23.14.94,34.62,0,12.72-1,25.29-3.76,38-5.26,7.66-.9,13.45-4.54,18.54-9.92a60.67,60.67,0,0,1,5.37-4.39c2,8.1,12.41,6,14.15,13.89l23.21.84c-.8-10.7,5.84-12.23,13-13.9,10.08-2.34,20-5.3,29.94-8.31,1.6-.49,2.69-2.64,3.77-3.77l13.14,4.67c1.52-3.31,2.59-5.66,4-8.63l12.49,3.71c-.67-3.32-1.08-5.4-1.42-7.09,7.65-6.86,16.85-6.69,26.21-6.66,4.64,0,8,1.64,11.69,4.19,10.73,7.34,21.08,12.43,32.37,11.43a88.94,88.94,0,0,1,22.85.92c8,1.43,15.83.42,23.56,1.76,4.34.75,8.5,2.63,14,4.39,1.49,4.78.16,9-7.24,9.66l2.49,5.2c-5.71,7.73-6.38,9.59-4.45,12.4-2.13,3.87-4.28,7.77-6.31,11.44,6,5.58,10.83,8,18.08,2.88,4.79-3.36,8.85-5.85,12.19-11.35,2.83-4.66,7.74-10.12,14.43-11.85,6-1.54,12.07-2.81,17.64-5.27,4.49-2,9.89-1.92,13-7.85,2.16-4.13,7.58-7.29,13.59-6.5a8.94,8.94,0,0,0,9.33-4.11c1.13-1.62,4.28-2.2,6.61-2.51,5.23-.7,10.58-.57,15.76-1.45,7-1.19,13.94-2.89,20.83-4.67,1.43-.36,2.52-2,3.79-3.06,5.5,3.87,11.42,2.81,17.5,1.51a32,32,0,0,1,8.25-.15c2.92.17,6,1.51,8.71.86,9.7-2.35,19.37,1.93,28.93-.26,7.16-1.64,7.11-1.87,12.05,1.92a13.05,13.05,0,0,0,2.4-1.42c10-9.15,20.92-10.92,33.4-5.22,3.77,1.72,8.37,1.58,12.59,2.34,5.14.91,10.24,2.17,15.42,2.74,5.63.62,10.91.44,15.54-4.39,5.55-5.8,16.74-5.63,23-.66.77.61,1.46,2,2.14,2,13.3-.58,25.37,9.69,39.41,4a25,25,0,0,1,14.53-1c6.55,1.6,12.64-3.09,19.18-.18,1.47.65,4.5-2.19,7.44-3.75,3.68,7,12,5.31,17.92,9.86,4.89-9.54,12.79-11.48,22.08-10.33,2,.24,4.36.58,5.92-.28,3.5-1.94,6.62-4.48,10.6,2.82l.39-3.51c-.27-3.78-.55-7.57-.92-12.6,6.33,3.34,3.07,8.2,5.52,12.72,4.73.65,10.35,1.45,16,2.18q21,2.71,42,5.37c3.12.39,9.9,4.34,13.19,6.3a50.63,50.63,0,0,0,12.46,4.85c6.92,1.9,14,3.23,21,5,1.42.37,2.6,1.7,3.9,2.57s2.53,2.33,3.86,2.41a96.81,96.81,0,0,0,14.35,0c1.56-.13,3-2,3.15-2.09,5.33,1.52,9.94,4.24,14.2,3.78,10.31-1.11,18.59,3.64,26.71,8.11,4.12,2.27,7.88,2.68,12.13,3.22,3.72.47,7.31,2,12.64,3.51,3.14-1.71,8-.56,13.56-.06,12.46,1.12,22.25,8.69,33.66,11.39-3.08,4.22-3.9,10.53-9.47,13.58-1.08.6-2.32,2.57-2.78,2.35-6.95-3.15-11.82,2.47-17.44,4.26-5.37,1.7-11.69,3.9-14.86,8-3,3.91-6.58,3.58-9.86,4.94-1.44,3.49,3.86,6.32.17,10.37-1.37,1.5-.31,6.93,1.43,9.21,5.94,7.8,12.55,16,23.33,16.1,31.29.25,62.6-.25,93.9-.45v118H.62Z"/><path class="cls-1" d="M.62,216.13c8.79,4.22,17.67,8.29,26.36,12.71,7.84,4,7.75,4.17,10.11,13.92,2.31-.5,5-.42,6.93-1.61,6.3-3.92,9.74-4.16,15.65-.25,1.08.72,2.21,1.37,3.35,2,1.44.78,2.93,1.49,4.53,2.29-2,5.43-6.73,6.45-11.57,6.76-3.06,9.08-3.06,9.08-21.6,6.83-1.6-3.33-4.12-5.93-7.52-8.56C21.49,246,19,253,14.43,250.52L11.94,244H2.49c.43,2.41.42,4.31,1.13,5.9,1.51,3.39-.21,4.08-3,4.19Z"/><path class="cls-1" d="M.62,190.13c4.41,2,10.22-1.29,16.23,4.4L.62,196.13Z"/><path class="cls-1" d="M890.4,922.49c1.91,10.64,11.57,1.36,16,7.53V940.3c2-2.2,3.37-3.13,3.91-4.41,2.1-5,5.92-3.27,9.26-2.35,1.8.5,3.15,2.47,4.93,3.16,7.27,2.8,12.17,7.06,9.38,17.62,6.36-4.18,10.62-3.4,15.6-.76,3.64,1.94,8.19,3.24,13.34,1.58,5.62-1.82,7.7,5,11.59,7.67,2.3,1.56,3.67,4.66,5.13,7.26,2.29,4.07,5.57,6.67,10.23,6.58s7,2.51,8.15,6.06c3.88,12.2,5.37,24.49-1,36.44a82.15,82.15,0,0,1-6.25,10.18c-3.92,5.36-7.52,10.57-9.07,17.4-1.06,4.69-4.75,8.79-9.06,12.53,0,8.32.48,16.68-.14,25-.58,7.82-2.78,15.52-3.45,23.34-1.06,12.32-3.15,24.19-10.28,34.65,1.16,7.28-6.2,10.67-7.36,17.32-3.19.19-6.12.46-9,.51-4.61.06-9.48-.8-11.56,5.17-.33.94-2.12,1.35-3.19,2.07-3.42,2.28-7,4.39-10.2,6.92-9.78,7.72-12.71,18-11,30,.89,6.12.15,12.44-4.81,16.58s-2.74,14.85-12.82,14.3c-2.05,4.45-5.53,8.8-5.85,13.37-.81,11.47-8.31,19.37-13.5,28.48-1,1.74-4.35,2.65-6.75,3-8.13,1.1-15.39-1.72-22.15-6.75-2.54,3.86-2.63,6.59.47,9.3s6.93,5.06,4.48,10.75c-.59,1.36,3.05,4.54,4.84,7-1.62,17.77-19.68,24-36.6,23.31-1,6.28-1.93,12.49-3.11,20.15-2.7,0-5.84.23-8.94-.07a85.38,85.38,0,0,1-9.18-1.91c.15,3.18-.09,5.12.39,6.85a42.85,42.85,0,0,1-3.85,33c-1,1.78-2.52,4-4.22,4.48-6.66,1.74-9.17,7.1-9.14,12.5,0,4.82,3.41,9.14,9.42,9.81,1.52.17,2.92,1.49,4.15,2.16-4.53,10.09-17.17,13.25-14.67,24.83-12.48,7.62-12.54,7.8-7.27,23.24-3.11,1.89-6.44,3.77-9.59,5.91a20.82,20.82,0,0,0-5.08,4.53c-2.12,2.88-3.78,6.11-6,9.84l14.3,2.5,4.73-9.17-6.78-4.48,9.65-1.21c2.65,9.78,10.41,14.31,17.91,20a64.13,64.13,0,0,1-6.12,2.65c-6.43,2-11.89,6.84-19.54-.16-5.7-5.21-16.93-3-20.81-12.67-.91-2.26-2.53-4.23-3.55-6.45-1.62-3.53-3-7.16-4.61-11,.72-1.78,2.82-4.47,2.21-6.21s-3.92-2.56-6.25-3.9c0-5.32,4.51-12-4.33-15.9-2.68-1.2-.8-15.11,2.24-16.37,5.86-2.42,5.09-6.92,5-11.92l-4.74-2.12c1.8-6.63,3.6-13.21,5.48-20.1.7,2.93,1.48,6.15,2.64,11,5.06-7.64,4.9-15,6.54-21.8a59.06,59.06,0,0,0,1.83-13.72c0-2.74.22-7-5.12-6.24-.81.11-2.77-2-2.73-2.94.21-4.48-.18-9.54,1.79-13.24a16.52,16.52,0,0,0,1.44-13.31c-1.9-6.38-.9-11.9,1.68-18.15,3.48-8.42,4.3-17.91,7.42-26.52,3.41-9.42,3.61-19,3.75-28.69.09-5.56-2.1-11.43,1.88-16.56-2.69-18.6,7-36,5-54.72-.7-6.33,1.51-12.93,1.65-19.43.29-13.86,0-27.74.14-41.62.06-7.59-6.26-11.21-10.35-15.74-5.62-6.2-13.11-10.65-19.35-16.34-6.63-6.05-11.61-12.81-12.67-22.62-.83-7.7-4.49-15.13-7.19-22.58-4.83-13.34-9.83-26.62-14.88-39.88-1-2.77-2-6-4.11-7.83-3.24-2.83-3.46-6.42-4.89-9.9-3.56-8.63-1.67-15.47,4.51-21.47,3.86-3.74,3.56-7.12-.13-10.08s-4.21-6.84-3.45-10.76a199.46,199.46,0,0,1,5.09-20.12c.5-1.66,2.63-2.78,3.85-4.29,2.18-2.69,5.4-5.23,6.1-8.3,1.13-5,2-9.27,6.56-12.66,1.8-1.34,2-5.44,2.1-8.32.31-6.32,0-12.66.17-19,.19-6.75-.13-13-5.22-18.55-1.89-2-1.61-6.14-2.24-9.31-1.09-5.45-4.84-8.51-8.87-7.14-3.06,1-6.72,8.21-6.1,11.92.26,1.52.46,3,.92,6.14-2.88-2-4.55-2.91-5.86-4.17s-2.32-4.2-3.78-4.46c-8.43-1.49-11-9.23-16.14-14.18-2.64-2.54-6.15-4.18-10.34-6.93,4.06-13.28-12-19.34-12.55-30-7.06-3.11-12.91-5.7-18.78-8.27-1.2-.53-2.43-1.4-3.64-1.39-6.29,0-9.28-4.42-12.33-8.79-1.89-2.72-3.38-5.75-5.46-8.29-5.25-6.41-8.8-7.19-16.55-4.08-2.13.86-4.19,1.86-6.77,3-11.78-6.42-24.73-11.35-34.78-21.28-1.73-1.7-4.82-1.94-7-3.31-2.58-1.62-6.27-2-6.66-6.4-.12-1.39-2.44-3-4.1-3.77-6.08-2.69-7.85-7.48-7.32-13.62a8.36,8.36,0,0,1,.12-1c2.48-14.41-4.84-25.58-12.42-36.52-3.75-5.42-9.77-9.79-11.94-15.67a64.67,64.67,0,0,0-11.45-19.6c-1.55-1.85-3-3.82-4.45-5.73-4.65-6-9-12-10.38-19.89-.84-4.66-3.11-9.15-5.23-13.47-2-4-6-4.34-9.46-2.92-3.82,1.56-2.88,4.78-2.11,8.42a42.19,42.19,0,0,0,8.64,18c6.48,8.34,9.74,19.21,14.12,29.12A120.68,120.68,0,0,1,477,667.57a17.43,17.43,0,0,1,.69,7.39c-4.56-2.55-6.65-6.2-6.47-11.17.25-6.73-3.12-11.1-8.84-14.36-3-1.73-5.48-4.47-8.49-7,6.47-9.78,2.53-16.73-4.83-22.91a11.78,11.78,0,0,1-3.62-4.36c-3.1-8.28-6.53-16.51-8.66-25-3.12-12.49-11.95-18.1-22.2-21.37-2.62-4.86-5-9.13-7.25-13.45s-5-8.29-6.35-12.79c-3.13-10.69-12-19-12.41-30.74-.38-10.16-1.22-20.31-1.32-30.47a94.13,94.13,0,0,1,1.46-18.83c2.07-10.67-.38-20.8-2.7-32l9.21,2.1c3.76-12.4-4.63-23.05-17.45-20.58,2.28,3,3.7,6.29,6.19,7.62,2.72,1.45,6.61.84,6.38,6.55-12.45-3.57-19.89-13.33-28.88-21.37l8.4,1.69c.37-1.25.86-2.24.68-2.38-6.19-5-10-11.78-14.39-18.14-2.55-3.66-6.17-6.59-8.65-10.29a24.43,24.43,0,0,1-3.43-8.95c-1.27-6.92-4.44-11.62-12.46-12.36l-2.6,5.28c-1.09-.5-2.9-.75-3.18-1.54-2.6-7.3-5.21-14.31-13.35-17.6-2.1-.85-4.16-3.54-4.85-5.81-2.1-6.88-7.16-10.48-12.94-13.78-4.46-2.55-9.43-4.94-12.66-8.7-4.26-4.94-9.73-1.65-14.46-3.64-4.1-1.72-9.65-4.62-14.73-.72a2,2,0,0,1-1.89-.23c-4.8-4.42-11.38-4.73-16.8-7.5-3.08-1.57-6.1-4.13-8.92-1.74-1.93,1.63-2.09,5.34-3,8l-22,7.63c-5.39-8.57,3.58-12,8.19-17.17-8-1.67-13.56.78-17.52,7.26a69.63,69.63,0,0,1-4.62,5.87c-2.67,3.47-9.59,4.44-6.25,11.63.5,1.07-3.14,4.65-5.42,6.32-7.39,5.41-15.6,9.83-22.38,15.88-4.17,3.73-7.25,7.9-14.57,7.07,3.56-7.41,12.38-7.43,15.57-13.33,3.07-5.66,5.21-11.81,8.06-18.43-7.58-.35-14.36,1.85-21.19-.54-2.73-1-6.36.63-9.82,1.1L125,305.8l-10.79,4.3c-7-3.63-5.73-12.71-12.16-16.49-.63-.36,1.17-5.82,2.61-8.49s3.88-4.85,5.55-6.84c3.78-.5,7.69-.72,11.46-1.59,4-.94,7.94-2.49,12.79-4.06V256.34c-9.61,5.56-20,3.85-30,5.06-4.61.55-8.52-.2-9.48-6.2-.29-1.83-3.18-3.24-5.37-5.31,1.69-.69,3.71-2.34,5-1.89,5.57,2,7-3.88,10.83-5.19,5.67-1.95,6.13,5.37,10.71,5.34,5.07,0,10.67-4.51,12.17-11.06-5.91-.34-10.9-2.07-15.35-6.74-3.77-3.94-9.87-5.66-16.51-9.2,4.21-.57,7.25-.29,9.61-1.43,6-2.88,13.51-3.78,15.72-11.93.4-1.46,3-3.45,4.41-3.33,9.87.86,17.53-8.31,27.62-5.84,8.68-6.49,17-2.32,26-.22,16.54,3.88,33.63,4.61,50.59,5.88,11.76.88,23.7,1.88,35,4.83,11.52,3,23.59,4.64,34.33,10.51,2.22,1.21,5.36,1.16,6.68-2.19,2.17-5.53,7-6.84,11.41-4.87,4.26,1.9,6.71-.34,9.95-1.43,3-1,6.62-2.89,9.13-2,4.42,1.56,8,.89,12.34.11,5.08-.9,9.62-1.42,12.32-7.32l14.75,13.63,6.18-8.5a14.54,14.54,0,0,1,1.77,3.06,33.09,33.09,0,0,1,.39,5.17c3.26-1,6.43-1.2,8.32-2.83,5.29-4.59,10.11-4.95,16.07-1.13,3.15,2,7.31,2.52,11.07,3.48,4.14,1.06,9.11.77,12.34,3,4.93,3.44,8.42,2.27,12.31-1.14l7.7,4.7c-.61,2.28-1.21,4.57-2,7.61,9.4,2,18.32,1.54,27.08.67,9.13-.9,16.9.81,24.2,10.05-.44-5.3-.69-8.29-1-11.5l13.78-5.44c14.59,7,31,9,48.27,6.8,1.81-2.75,3.75-5.72,6.15-9.39l-6.58-3.75,5.9-8.25,14.13,9.34-11.84,4.9,8,3.56c-1.33,6.51-1.33,6.51,6.86,8.41.31-4.87,2.75-8,7.6-9.77,2.38-.88,3.91-4.08,6.08-6.51-2.45-1.9-5.16-2.92-5.63-4.58-1.37-4.77-4.25-6-8.78-6.36-2-.18-5.11-2.5-5.52-4.33-.56-2.49.13-7,1.78-7.94,7-3.81,5.38-9.91,5.26-15.61-.09-3.83-.87-7.64-1.38-11.79,10.46-3.05,20-1,29.54-1.16-4.46,9.21-6.57,10.63-17,11.71-2.16,2.84-4.31,5.64-6,7.86l15.4,17.41c-3.39,7.29-2.63,8.19,7.61,8.86l4.63,11.92c5.32.3,4.42-5.08,6.91-7.27,8.34.78,8.52.79,7.94,9-.27,3.79.75,6.79,4,8.33,4,1.83,6.73-.22,9.3-3.47,6.16-7.77,8.45-11.66,6.71-20.69,10.18-2.89,19-1.93,25.52,7.66-1.79,3-3.59,6-5.66,9.47l7.12,5.84c-4.89,5.59-10.78,7.29-17.11,9.5-6.79,2.38-12.28-3.75-18.37-.33,1,6.72-3.4,11.88-6.68,16.86-2.23,3.38-7.34,4.95-11.3,7.08-1.65.88-3.83.79-5.49,1.66-6.06,3.21-9.37,9.48-15.53,13.14-5.83,3.47-9.38,10.74-14,16.24-3.72,4.4-4,9.57-4,15s.63,9.5,7.57,10.57c2.48.38,4.78,4.78,6.31,7.78,1.3,2.55,1.38,5.74,2,8.63,6.07.36,12-.12,17.4,1.3,4.81,1.27,9,4.82,13.58,7.07,7.53,3.69,15,7.77,22.85,10.45,4.77,1.62,10.32.9,15.3,1.22.35,5.48,1.27,10.91.92,16.25-.73,10.84,8.09,15.71,13.76,22.31,1.24,1.44,7.41.39,9.86-1.45s4.32-6.29,3.83-9.16c-1.31-7.68-4-15.11-6.42-23.5,7.87-4.22,18.6-6,19.61-17.62.87-10.18-.74-19.35-12.47-23.3,1.71-2.8,3-5.06,4.4-7.18,2.77-4.06,3.73-8.24,1.38-12.82-.6-1.17-2-2.84-1.6-3.48,2.79-4.82.28-9.1-1.79-13.74,1.91-.53,3.13-1.2,4.32-1.15,8.52.34,17.18,0,25.49,1.58,4.7.88,10.61,3.89,12.76,7.73,3.25,5.79,8.1,4.74,13,5.73v6.21c0,11.2,4,16.76,14.63,20.5,4.84,1.7,13-3.27,15.64-9.37,1.39-3.24,3-6.38,4.75-10.11,7.44,10,14.39,19,20.86,28.25a25.37,25.37,0,0,1,3.9,10.07c1.18,7.13,5.09,11.64,11.51,14.37,5.21,2.22,10.5,4.78,13,10.05,2.29,4.8,5,7.88,11.15,6.38v13.61c-3.26,3.06-7,5.89-12.75,6.93-3.73.68-7.45,4.15-10.13,7.27-2.92,3.39-5.89,4.8-10.25,4.72-10.66-.2-21.33-.08-32,0-2.33,0-6-.73-6.77.43-6.06,8.63-18.62,10-22.69,20.53-.53,1.37-.32,3-.64,6.83,5.77-4.05,9.81-7.19,14.14-9.87,6.75-4.18,13.55-9,22-3.78.49.3.78.94,1.19,1.45-2.12,6.58-9.19,3-14.06,6.6l9.35,6.23c1.78,5.17-2,13.14,6.82,15.34,3.26,7.7,12,1.53,17.22,6.89l-27,15.82c-3.61-2.64-1.67-5.65,1.19-8.34,2.39-2.25,5.12-4.14,6.91-5.55-.78-5.27-2.72-6.15-5.88-4.75-2.64,1.17-5.82,1.81-7.79,3.7-6.9,6.62-16.56,8.16-24,13.63-6.56,4.79-9.26,12.92-6.85,22.69l-19,6c-5.48,4.94-.28,19.18-14.09,20.48,1.3,2.66,2.58,4.66,3.17,6.84.22.81-1,2.56-1.91,3s-2.94-.15-3.3-.87c-1.25-2.49-2-5.24-4.64-7.56,1.07,7.68,1.74,15.45,3.33,23,2.1,10-.44,15.3-8.87,22-4.86,3.85-12.18,6-13.05,14-.13,1.23-2.14,2.29-3.33,3.37-9.41,8.57-15.05,18.22-10.55,31.61,2.2,6.54,2.77,13.66,5.14,20.13,3.11,8.48,2.91,16.77.93,25.58-4.75.4-6.33-4.06-7.33-6.65-3.19-8.3-8.69-15.65-6.78-26.05,1.18-6.45-4.18-12.94-11.12-16.82l-5.7,4.19c-1.77-1.66-3.39-3.24-5.08-4.75-1.2-1.07-2.45-2.88-3.73-2.93-6.54-.25-13.19-.68-19.58.36-2.46.4-4.38,3.4-7.48.9-.43-.35-2.29,1.08-3.48,1.68.3.69.61,1.39.92,2.08l6.58,1.87c-.3,1.65-.62,3.46-1.18,6.62-3.69-1-7.4-1.13-10.18-2.82-6.6-4-17.26-4.16-23.64.24-4,2.71-9,4.35-12,7.86-5,6-8.76,13.23-7,21.6,1,4.73,1.6,8.94-1.54,13.24-1.21,1.66-1.28,4.38-1.32,6.62-.19,9.33-.65,18.69,0,28a44.75,44.75,0,0,0,4.18,15.16c4.58,10,7.74,21.27,20.5,25.26,6.17-1.08,12.14-7.53,20.72-2.6,2.07-7,4.32-13.12,5.64-19.45,1.48-7.1,2.62-8.29,10.34-10.66,4.55-1.39,8.76-2.45,13.49-.65-2.28,7-3.44,14.23-5.57,20.49-2.91,8.5-2.55,16.74-3.82,25.07-.56,3.66-3.42,7-5.62,11.15,7.25,2.64,14.43,2.11,21.34.86,13.09-2.38,20.16,4.39,17.64,16.92-1.82,9-4.07,18.35-3.54,27.39.63,10.74,7.2,19.59,15,26.93,1.3,1.23,4.28,1,6.43.85,1.08-.08,2-1.67,3.08-2.37,10.44-6.64,13.52-5.94,20.45,4.56,1,1.57,2.13,3.1,3.74,5.43,2.35-4.72,3.53-9.34,6.42-12.32,3.4-3.53,3-7.86,4.72-11.48,1.59-3.31,5.37-6.92,8.81-7.72,7.17-1.67,11.36-6.74,17.36-10.46-1.14,1.61-3,3.12-3.26,4.85-.34,2.5.51,5.16.94,8.44,4.44-1.82,8.31-3.32,12.11-5,7.55-3.33,8.18-3.11,11.19,4.49.24.62.25,1.33.53,1.92a3.54,3.54,0,0,0,.71,1l23.53,5,13.87-7.29c-.4,5.46,2.24,8.49,6.85,10.29,2.05.81,5.34,2.29,5.43,3.64.48,7.16,6.44,9.17,10.58,13.11,3,2.82,4.72,6.95,6.8,10.61,5.76,10.17,11.75,14.61,21.75,12.35a12.3,12.3,0,0,1,9.18,2.18c6.59,5.29,12.6,11.31,18.72,17.17a4.72,4.72,0,0,1,1.33,3.55c-1.09,7.11,2.75,12.84,5.27,18.85,2,4.87,2.24,8.79-2.15,12.4C891.62,919.57,891.07,921.35,890.4,922.49ZM690.53,467.9c1.14-13,.31-14.32-10.82-16.9-2.87-.66-6-.67-8.67-1.68-3.54-1.3-9.21-2.72-9.78-5.11-1.79-7.38-6.75-11.84-11.26-17.16-7.1-8.4-15.14-9.34-22.39-1.12-3.09,3.5-6,6.41-10.52,8.48-4.67,2.13-9.57,5.85-8.57,12.7,8.12.31,16,2,22-4.38,5.65,6.54,12.75,5.51,19.61,5.18,2.64-.13,5.66-1.78,6.91,3-2.74.2-5.31.35-7.87.6-8.92.86-14.77,9-13.31,17.87a24.89,24.89,0,0,1-.59,8.65c-1.44,7.35-1.51,14.27,4.19,20,9.09-4.58,10.29-7.23,8.86-18.75s.88-15.55,12.4-20.93c3.63,1.71,5.87,4.42,5,8.61-.76,3.53-2.06,6.95-3.12,10.41l1.69.79L669,474.7l5.24,9.66a53.09,53.09,0,0,0,3.67-3.94,8,8,0,0,0,1.19-2.64C681.53,468.55,681.52,468.55,690.53,467.9Zm-14.82,21.16-3.94-3.56L666.36,495c.42.81.56,1.66,1,1.92C675,501,694.72,494.8,698,487.17c.45-1.06.45-3.09-.22-3.68-1.08-1-3.16-1.88-4.34-1.46C687.38,484.15,681.52,486.7,675.71,489.06ZM693,480.67c7,0,13.88.14,20.72-.05,3.41-.09,5.79-1.79,4.69-5.68-.92-3.27-2.43-6.25-6.78-5.31-4.08.87-8.18,1.69-12.22,2.72C695.62,473.32,693,475.47,693,480.67Z"/><path class="cls-1" d="M2124,1078h11.33c.41-11.37,3.32-21.46,13.68-27,4.31-2.33,9.59-4.54,14.23-4.18,6.93.54,14.22,5.52,18.06,9.28-2.24,5.59-4.89,10.86-6.41,16.43-1.45,5.31,1.66,9.84,5.32,13.21,4.58,4.21,10.07,7.41,14.78,11.49,3.88,3.37,7.21,7.37,10.76,11.07,6.89-1.64,9.9-6.2,10.58-12.06,1.08-9.34,1.73-18.76,2.15-28.16s.41-19,5.29-28.75c2.33,10.07,4.28,19.42,6.78,28.62.67,2.49,1.19,5.63,5.38,6.22,3.85.54,5.35,3.86,6,8,1.83,11.67,3.51,23.48,7,34.72,1.55,5.07,6.41,10,11,13.06,6.76,4.52,9.21,11.14,10.16,17.93.85,6,3.63,8,9.22,8.66-1.12,12,9.6,17.93,13.48,27.39.7,1.72,2.55,3.1,2.87,4.82,2.61,13.68,3.42,41.09-.35,54.91-1.58,5.8-2,13.24-8.16,17.37a5.59,5.59,0,0,0-2.31,3.13c-2.53,13.27-10.09,25.22-10.33,39.06-.08,4.39-.63,8.62-6.19,8-6.8-.7-11,2.85-15,7.31a25.07,25.07,0,0,1-2.66,2.29c-6.13.39-7.63-4.49-10.08-8.28l-8.62,7.52c-5.65-1.81-10.76-3.62-16-5-5.83-1.61-8.79-5.17-9.19-11.23a27.3,27.3,0,0,0-1.84-8.54c-2.52-6.09-8.82-10.12-9.41-17.45-.09-1.19-2.78-2.18-3.54-2.73.41-4.89.77-9.31,1.32-16l-16,18.06c-3.59-6.14-7.26-11.45-9.85-17.24-1.25-2.8-2.85-3.74-5.29-5-7.25-3.86-13.95-8.57-22.92-7.62-4.65.49-8.81.88-13.13,3.48-4.56,2.73-10,4.11-15.54,5.2-7.15,1.39-14.91,4.37-16.54,13.37-2.32.3-4,.91-5.56.65-11.87-2-21.32,3.68-30.65,9.54-8.41,5.28-9,5.36-15.92-.81-1.9-1.71-3.86-3.37-6-5.26,7-6.51,5.71-15.19,4.15-22.47-2-9.33-4.51-18.43-5.57-28.06-.84-7.65-4.74-15-7.36-22.68,4-4.85,5.1-10.12,1.29-15.84-5.94-8.93-1.64-18.53-1.46-27.82,0-1.1,2.8-2,4-3.23,6.3-6.47,11.46-14.46,21.94-14.95,1.3-.06,2.38-2.19,3.79-3,3.11-1.69,6.32-4.34,9.55-4.42,7.67-.18,11.41-4.67,14.06-10.67s7.68-11.32,5.27-18.88c-.37-1.16,1.17-2.93,2.35-5.61,2,3.3,3.5,5.71,6.16,10,.68-5.14,1.09-8.19,1.24-9.31,2.84-3.11,6.48-5.44,6.18-7-1.92-10.48,6.46-14.37,12.12-19.83.92-.89,4.72-.22,6,1C2121.56,1072.6,2122.58,1075.58,2124,1078Z"/><path class="cls-1" d="M1069.28,175.43c1.46,4.72,3.55,9.11,8.22,9.14,6.93,0,8.74,6.77,13.75,9.17.72.35.34,3,.46,4.48-7.37,2.2-13.73,3.09-17.72-5.17-.8-1.65-3.88-2.2-6.61-3.62-2.79,4.25-5.54,8.43-8.47,12.91,5.71,4.43,13.92-1.61,18.49,5.26-10.7,10-24.58,11.1-37.38,14.91-5-4.74-7.94,4.1-12.18,2-5.13-2.53-7.79,1.79-11.63,3.05-5.59,1.85-7.12,6.82-9.64,10.78-4,6.22-11.42,4.43-16.46,8.18-1.37,1-5.22-1.33-8.36-2.25-6.58,3.56-14.59,5.8-20.57,13.35,2.07,9.37-1.55,17.81-12.16,23.32,2.29,9.86-2.83,18.1-6.18,27-4.43.22-7.34.93-11.18-3.45-4.4-5-11.32-10.7-19.92-4.7-6.16-8-12.09-15.72-18-23.43a25.06,25.06,0,0,1-5.27-11.29c-.9-4.79-5-9.48-8.84-13.08-3.56-3.38-5-6.08-3.5-11,.61-2-1.47-4.76-2.61-8l4.59-11h12c1.22-4.36,2.35-8.39,3.6-12.87l-9.48-5c1.6-1.62,4.62-3.44,4.4-4.72-.37-2.16-2.74-4-4.35-5.91s-3.28-3.68-5.15-5.75l-17.79,1.46c-1.08-1.6-1.45-1.9-1.42-2.15.62-5.15,2.62-10.59,1.56-15.35-1-4.26-5.59-7.59-8-11.68-1.77-3-3.17-5.76-7.14-6.08-1.2-.1-3-.82-3.38-1.73-4.14-10-14.18-9.33-21.73-10.09-6.29-.63-12.69-5.14-19.35-1.52-4.13-4.6-6.76,2-10.53,1.4a41.7,41.7,0,0,0-10.93-.35c-6.42.68-6,.4-12.31-4.26-3-2.24-7.77-2.15-11.71-3.1l3.28-7.48L743,122.26c6.06-2.1,10.52-4.28,15.22-5.12,8-1.45,16.23-2.06,24.37-3,1.32-.15,2.68.07,4-.11,8.76-1.17,10.2-3.53,7.68-13.43a25.42,25.42,0,0,1-4.33.28c-1.23-.1-2.43-.71-5.67-1.74,5.87-2,9.94-3.53,14.08-4.83a74.21,74.21,0,0,1,10.19-2.68c1.72-.27,3.63.5,5.42.95,2.12.52,4.2,1.2,7.2,2.08.52-8.58,5.14-10.44,12.37-10.06,4.23.22,8.54-2.61,12.89-2.86,9.53-.55,19.72-4.78,28.11,4.61L879.41,81c2.58,1.2,5.2,2.31,7.72,3.61,3.61,1.88,8,.1,8.48-2.2,1.57-6.82,5-3.87,8.62-2.87,8.11,2.27,16.25,4.46,24.46,6.36,2.08.49,4.44-.22,7.5-.44-2.26-4.77-5.68-6-9.92-6.24.31-4,1.76-6.57,6.33-6.71,6.83-.2,13.66-.8,20.49-1.07,8.5-.34,17,.92,25.49-1.34A55.94,55.94,0,0,1,992,68.23c14-.23,28-.27,42,0,10.4.19,20.73-1.27,30.91,4.14,6.59,3.5,15,3.55,23.1,5.26-5.56,3.69-12.25.73-19,2.55-.82,2-1.85,4.52-3.21,7.81,7.89-.42,14.13-6.2,22.48-2.22l-8,6.49c3.67,2.32,6.06,2.36,9.39,0A20.28,20.28,0,0,1,1099.81,89c9.52-.46,18.74-1.12,28.16-3.77,7-2,15.22.64,23,3-4.06.66-8.12,1.33-12.17,2-8.49,1.34-13.42,8.33-20.1,12.54a16.55,16.55,0,0,1-6.08,2.63c-7.45,1.1-12,6.12-16.37,11.47-2.06,2.54-3.79,5.34-7,9.86l11.23-1.64c1.44,7.51,7.48,8.26,14,8.54-4.86,0-10.21-1.28-14.43.36s-9.53-.23-15,3.77c4.57,2.23,7.29,4,10.27,4.87,2.7.79,5.68.6,9.65.93-2,3.55-4.51,6-4.61,8.61-.09,2.35,2.42,4.79,4.23,8l-10.16,2.51,3.66,5.66-14.5,3.94c-2.34,4.34-1,6.58,4.23,7.21C1080.21,181.7,1075.45,176.34,1069.28,175.43Z"/><path class="cls-1" d="M649.45,168.7c-5.38,7.48-6.42,13.51-2.5,18.23,3.11,3.74,7.44,5.07,13.13,2.53-2.36-1.48-5-2.19-5.65-3.75-1.06-2.49-2-6.29-.81-8.16,1.74-2.76,5.23-4.62,8.3-6.27,1.93-1,4.52-.75,6.68-1.46,11-3.56,15.78-.37,16.17,10.87.05,1.29,0,2.58,0,3.92h15.55l9-8.4c-7.28-2.35-7.28-2.35-13.48,1.25l-10.05-9c5.79.61,9.8,1,13.82,1.47L712,171.33c-1.82,5.82-1,9.33,4.88,9.48a10.65,10.65,0,0,1,4.82.85c4.24,2.42,8,5.85,12.48,7.6,4.15,1.63,8.95,1.61,14,2.39.62,2.59,1.28,5.31,1.88,7.81,2.87,0,5.54-.61,7.72.17s5.06,2.56,5.92,4.61c2.64,6.26,6,4.55,9.8,1.63,1.12,4.9-1.12,9.64-.75,13.72l16.65,9.07c.54,0,3.29-1.07,5-.16,7.35,3.82,14.4,8.21,22,12.64L803,256c-3-2.12-6.82-4.87-10.71-7.49s-8-5.2-12.08-7.82c-4.3,7.37-3.41,13.63,3.05,16.73s10.94,7.93,14.76,14l-4.64,6.77c-6-.14-11.41-1.36-16.15-5.6-2-1.79-5.39-2-8.14-3-.46.8-.91,1.6-1.36,2.4l17.51,13.69-1,1.53c-5.16-1.41-10.36-2.72-15.49-4.28-3.88-1.18-7-3.36-11.93-2.56-4.41.7-7.05-4.93-7-9.26-5.82-2.81-11-5.19-16.07-7.8a19.67,19.67,0,0,0-17.19-.59c-4.82,2.12-7.44.62-10.35-2.76q2.18-3.07,4.35-6.12c9,4.82,17.14,2,25.7-2.51l-2.77-6.39,11.78-8.86c-1.42-6.56-4.08-11-10.45-14.29-9.66-5-18.35-11.89-27.55-17.82a101.86,101.86,0,0,0-9.15-4.65l-2.81,6.15c-7.07.56-14.36-1.45-21.64-.05-7.56,1.45-15-2-22.55-1.07-5.54-7.31-15.37,2.11-20.7-6.3l10.66-3c-3.88-3.93-7.68-2.62-11-2.89-7-.55-8.26-2.36-5.53-8.71C630,170.64,635.45,166.58,649.45,168.7Z"/><path class="cls-1" d="M695.94,140.76c-3.15.16-6,1.24-7.51.24-8.35-5.65-17.49-1.69-26.16-2.76-5.44,5.35-10.78-.54-16.21-.18s-10.89.08-16.33.08l-.18-2.38,10.63-1.6c.45-2.13,1-4.55,1.41-6.76,7-3.48,10.91,8.37,18.65,3.12-2.93-7.31-8.4-10.88-16.86-10.65.27-.74.53-1.49.79-2.23,3.45-.37,7-.5,10.33-1.19,2.37-.49,5.65-1.12,6.65-2.8,1.92-3.24-1.06-5.31-3.67-6.94a7.66,7.66,0,0,0-1.3-.58c-6.43,3.19-12.33,6.75-18.68,9.09-8.38,3.09-17.1,5.6-26.2,4.8-3.34-.29-6.56-1.8-10.09-2.83l4.39-8.7c-9.05-2.29-18.49,4-25.33-4.56.15-5.29,2.31-9,8.39-9.87,2.46-.36,4.68-2.65,7.11-2.83,5.06-.39,10.37-2.1,14.74,3,1.94,2.28,5.65,3.18,8.67,4.41,3.64,1.47,7.4,2.64,11.11,3.94l1.42,2.85,3.16-6.2c2.47,2.29,4.54,4.33,6.73,6.21,1.33,1.13,2.85,2,4.28,3l3-5.69c10.55-3.19,20.73,1.91,32.29,4.93-1.18-5.12-1.9-8.21-2.61-11.27l-1.89-.19c-3.84-.31-7.73-1.12-11.51-.77-4.08.38-8.06,1.85-12.39,2.92-.59-2.38-.52-4.56-1.39-5-1.56-.86-4-1.48-5.53-.85-8,3.33-15.5,1.2-23.82-1.55,1-1.8,1.48-3.86,2.75-4.66a11.4,11.4,0,0,1,6.53-2c7.86.77,14.84-1.86,21.82-4.77.9-.38,2.25-1.27,2.68-1,8.74,6.37,17-1.28,25.52-1,3.9.11,7.8-3.57,11.85-3.94s8.06,1.51,12.16,2a21.28,21.28,0,0,0,11.34-1.77c5.29-2.28,11.66-2.54,17.31,2.2,7.09-7.3,16.24-5.37,25.06-4.89a116.13,116.13,0,0,1,12.7,1.66c3.82.64,7.59,1.58,11.39,2.32a51.51,51.51,0,0,0,5.89.93c8.52.7,17,1.32,27.79,2.14-3.18,2.06-4.46,3.48-5.94,3.73-5.51,1-11.09,1.51-16.64,2.22-.66.09-1.64-.07-1.92.3-7.51,9.82-20.51,7-29.69,12.9-.52.34-1.49.07-1.9.46-10.37,9.51-23.71,8.33-37,10.25.3,3.14-6.41,5-1.28,9.52-2,1.92-4.13,5.64-5.86,5.45-7.84-.87-13.58,3.14-20,7C696.39,133.06,696.2,136.3,695.94,140.76Z"/><path class="cls-1" d="M2193.19,1008.44c.22-2.9-.05-4.54.41-4.77,6.77-3.48,5.43-9.1,3.69-14.5-2.69-8.35-7.34-14.88-16.19-18.19-5.4-2-10.17-5.69-15.23-8.61-1.37-.8-2.86-2.35-4.13-2.2-3.24.39-4.78-1.38-4.37-3.79a8,8,0,0,1,3.89-5.15c1.87-.89,4.49-.2,6.69-.2l5.15,11,17.78-19.61c.27,0,1.47-.3,2.14.16,11.66,8,25,12.6,37.36,19,6.95,3.6,13.25,9.11,15.73,17.61.63,2.15,3.22,3.9,5.22,5.42,2.22,1.7,4.8,2.94,8.48,5.11-7.08,4.85-6,9-2.1,14.25,5.76,7.69,10.51,16.14,15.91,24.61-6,2.41-10-1.36-13.63-4.54-2.89-2.53-5.88-5.8-7-9.32-2.41-7.55-7.6-11-14.78-12.82-4.31,1.27-5.63,4.95-7.22,8.7-3.42,8-13.13,10.84-18,4C2207.65,1007.26,2202.36,1004.82,2193.19,1008.44Z"/><path class="cls-1" d="M2007.19,910l3-12.22c9.19-1.28,14.71-7.8,18.31-16.47.49-1.17,1.23-2.63,2.25-3.12,7-3.34,10.21-9.44,12.93-16.2.9-2.24,3.24-3.9,5.16-6.1,1.7,3.26,2.65,6.29,4.57,8.47s4.78,3.44,7.29,5.15a30.48,30.48,0,0,0-8.78,20.83c-.1,7.18-.59,15.27,4.93,21.75-4.26,3.72-7.21,8.21-6.46,14.47.18,1.55,0,3.81-1,4.74-6.85,6.57-5.45,15.66-7.78,23.61-.84,2.84-3,5.28-4.48,7.67l-13.26-6.06c-1.08-.49-2.74-1.68-3.16-1.34-5.82,4.77-9.9-3.34-15.31-2.1-.6.14-2.64-2.83-2.79-4.46-.52-6.13-1.07-11.44-5.48-17-3.58-4.52-3.24-12.45-3.77-18.94-.26-3.16,2.33-5.42,6.08-4.67C2001.66,908.47,2003.81,909.15,2007.19,910Z"/><path class="cls-1" d="M537.51,205.09c-2.44,3.53-4.83,7-7.49,10.87-6.71-.4-13.92-.3-20.13-5.07a4.81,4.81,0,0,0-4.6,0c-10.93,9-24.57,6.73-37.07,9-1.88.34-5.49-.78-5.94-2.05-1.87-5.29-6-4-9.78-4.55-4.63-.73-9.14-2.2-13.69-3.35-.11-.9-.22-1.8-.32-2.7,2-1,4-2.84,6.12-3,5.62-.43,11.3-.1,16.95-.21,2.81-.06,5.61-.42,9.28-.71-9.08-6.72-16.27-7.7-27.12-4.3-5.69,1.79-6.05,1.67-11.47-4l9.8-2.34,0-2.24c-2.66-.34-5.34-.61-8-1.05s-5-1-8.22-1.66c6.69-12.22,17.66-13.11,29.1-15.21v8.91l10-5.11,12.64,6.37c.35-.19,2-1.14,3.66-2,5.91-3.21,6.78-3,11.12,2.39,2,2.52,4.32,4.83,6.5,7.24,8.79-5.89-3-10.79,1.09-17.3,1.91.23,5.11-.24,7.18,1.08,2.54,1.6,4.36,2.36,7.57.49l-4-6h9.53c-7.41,8.76-3.51,15.76,1.44,22.63C520.8,203.16,533.73,198.72,537.51,205.09Z"/><path class="cls-1" d="M1554.53,1185.44c-7.5-3.87-10.14-9.73-10.14-17.37,0-3.2-.43-6.82-2-9.52-2.51-4.46-1.55-8.87.46-12.27,5.47-9.23,7.89-18.44,4.45-29a21.11,21.11,0,0,1-.69-9.89c1.32-7.4.79-15.44,10.95-18.72,7.13-2.3,12.36-8.42,13.7-16.72.24-1.49,1.12-3.44,2.31-4.13,5.92-3.45,7.21-9,7.16-16.31,5.77,9.17,7,18.21,7.38,27.49,0,1,.24,2.41-.29,2.89-6.92,6.14-4,14.6-5.38,22-.53,2.9-.88,5.84-1.53,8.72-4,18-8.2,35.9-12.13,53.89C1566.55,1177,1566.71,1177.06,1554.53,1185.44Z"/><path class="cls-1" d="M1970,980.54c-4-.69-7.07-.27-8.26-1.56-10-10.81-20.16-21.38-23.94-36.59-1.84-7.4-6.42-14.13-9.78-21.15-.57-1.17-1.53-2.22-1.83-3.44-3.92-16.24-14.79-28.44-24-41.62-1-1.47-1.3-3.46-2-5.36a13.88,13.88,0,0,1,2.2-.17c8.06.89,13.36,4.46,16.82,12.57,2.71,6.33,7.87,12,13.11,16.71,3.71,3.29,7.81,6.12,11.56,9.6,6.54,6,12.35,11.51,10.56,21.31-.11.64-.18,1.76.13,1.92,7,3.76,4.66,13.16,10.62,17.39,4.31,3.06,5.09,7.19,4.83,12.09C1969.78,967.82,1970,973.42,1970,980.54Z"/><path class="cls-1" d="M1216.39,410.69c-3-4.35-5.13-6.06-4.84-7.14,1.58-5.94,7.27-4.34,13.54-5.67l-12.63-6.39c1.29-3.8,2.49-7.36,4-11.77l5.74-2.18c.31-3.1,1.29-6.36.74-9.34-.47-2.48-2.72-4.63-4.85-8l-7.48,1.22v-9.21l-11-7.1c6.53-5.51,1.2-19.43,15.49-20.44-.43,3.35-.75,5.83-1.15,8.87h15.44l-10.52,16.08c6.71,1.27,11.78,4.27,12.31,11.85a4.52,4.52,0,0,0,2.09,3.26c7.8,3.56,8.54,10.95,10.17,18.53,1.77-.57,3.59-1.8,5-1.44,1.72.43,3.1,2.22,4.46,3.29-1.73,4.69-2.78,9.52-5.25,13.46-1.24,2-5,3.07-7.72,3.34-5.27.52-10.62.13-15.94.19C1220,402.17,1215.46,401.27,1216.39,410.69Z"/><path class="cls-1" d="M2207.52,557.73l-2.08-1c-1.51,6.56-8.86,5.39-12.67,9.26-1.43,1.47-6.23-.36-9.39-.68-1.87,3.89-4,8.27-6.08,12.65l-1.83-.4v-9.5h-8.69c-.3,1.14-1,2.25-.7,2.94,2.3,5.5,1.37,8.82-5.3,9.44-1.49.14-2.82,2.07-4.83,3.65,1.49-3.55-.2-8.09,5.56-8.33,1,0,1.93-2.76,2.88-4.24-1.71-.39-3.58-1.42-5.1-1-3.35.83-6.49,2.51-9.81,3.53-1,.3-2.26-.46-3.38-.73,3.8-3.59,7.1-7.06,10.79-10a11.64,11.64,0,0,1,6.11-2.34c4.62-.35,9.28-.11,14.5-.11,3.38-6.93,8.87-11.18,15.45-15.45,8.82-5.71,13.22-16,14.13-27.05.32-3.85.31-7.73.45-11.72,10.07,1.47,14.14,8.27,10.34,15.64-3,5.88-5.29,11.78-5.75,18.65C2211.75,546.58,2209.13,552.15,2207.52,557.73Z"/><path class="cls-1" d="M1711.83,134.84c.71,4.81-1,6.06-4.12,6.62-11.58,2.1-23.26,3.88-34.66,6.71s-22,7.68-31,15.49c-4.67,4.06-9.52,8-13.69,12.53-6.07,6.6-6,8.78-1.76,16.47a21.48,21.48,0,0,1,1.27,2.65c.09.24-.19.62-.5,1.51-6.61,1-12.92,2.22-18.2-4.94-1.81-2.44-7-2.35-13.37-4.2,7.88-1.33,10.29-5.3,12.54-10.08,1.68-3.56,5.5-6.06,8.12-9.23,8.75-10.59,20.48-17.4,32.58-22.6,7.5-3.23,16.86-2.78,25.39-2.8a59.51,59.51,0,0,0,28.36-6.74C1705.34,134.91,1708.74,135.27,1711.83,134.84Z"/><path class="cls-1" d="M1131.65,243.47c6.52,2.26,11.23,7.29,16.34,14.35-11.61,5-22,10.29-33,13.91-9.34,3.08-16.53-3.6-23.85-8.29l-7.15-4.58,6.76-5.65-10.49-2.59,8.62-3.72-2.27-3.58c2.51,2,5.91,3.42,7.32,6,2.21,4,5.19,4.36,8.17,2.62,6.56-3.83,13.37-4.54,20.76-4.08C1125.28,248,1127.87,245.44,1131.65,243.47Z"/><path class="cls-1" d="M378.14,183.12c7.37-6.37,10.61-13.28,12.35-21.67,5.39,0,11-.61,16.42.15a154.88,154.88,0,0,0,20.76,1.61c4.78,0,9.54,3.26,16.47,5.88-6.13,2.21-9.87,4.25-13.83,4.84-7.66,1.15-14,5.92-17.95,10.95-3.6,4.61-8,3.53-11.48,5.88-4.66,3.13-7.69.16-11.31-2.5C386.53,186,382.57,185,378.14,183.12Z"/><path class="cls-1" d="M1404.81,127.7c-13.53,5.81-16.24-8.17-25.09-11.92-8.88,4.62-15.9,12.41-23.4,20.73-8.31-1.19-11.88-9.75-18.79-13.54-6.73-3.69-12.51-9.1-18.25-14.68,6.51-1,13.11-4.21,18,3.33,1.74-1.45,3.43-2.88,5.66-4.75l10.59,8V104.47c6.75,2.3,13.61,2.3,18.34,7.89.86,1,2.92,1.43,4.42,1.43,10.22,0,17.15,7.22,25.47,11.36A20.89,20.89,0,0,1,1404.81,127.7Z"/><path class="cls-1" d="M2431.34,1343.7c1.47,4.84,4,6.3,8.08,3.08,1.66,5.89-.2,10.82-3.78,15.43-3.82,4.89-5,11.88-12.25,14.13-1.56.48-2.25,4.43-2.94,6.89-1.72,6.09-3.78,11.75-9.21,15.84-3.08,2.32-5.35,2.78-8.8.91-3.18-1.74-6.9-2.49-11.79-4.15.66-1.91.88-5.51,2.78-7.46a141.58,141.58,0,0,1,14.88-12.61c6-4.63,12.1-8.88,14.9-16.58C2425.05,1354.15,2428.18,1349.6,2431.34,1343.7Z"/><path class="cls-1" d="M607.59,154.58c-.12-5.21,5.57-10.76-3.61-12.28,9.09-5,9.35-5.26,15.5,1.19a20.21,20.21,0,0,0,15.76,6.67c9.4-.08,18.64.13,28.14-1.45,9.1-1.52,18.84.76,29.17,1.43-.89,2.53-1.07,5-1.94,5.24-6.42,2.1-12.66,6.81-19.86,2.05-.94-.62-2.73-1.07-3.54-.6-9.34,5.52-19.47,1.49-29.16,2.5-1.38.14-3.8-.77-4.2-1.79-1.61-4.12-4.24-2.23-6.4-1.3C620.3,159.31,614.31,155.23,607.59,154.58Z"/><path class="cls-1" d="M460.63,161l6.65-8.89c-11.06.08-21.07,2.72-30.72-1.47,5.46-10,10.09-11.94,19.7-9,6.42,1.93,12.74,2.76,18.62,7.49,3.55,2.85,11.26.52,17.88.52-1.95-2.84-3.62-4.73-4.59-6.94-.44-1,.19-3.49.91-3.76,1.21-.46,3.93-.07,4.2.65,3.38,9,9,10.21,16.77,5.42a2.91,2.91,0,0,1,1.95,0,8.18,8.18,0,0,1,1.72.87c-3.11,8.07-3.13,7.84-10.73,8.27-8.54.48-17.09,1.06-25.54,2.28C472.13,157.24,467,159.26,460.63,161Z"/><path class="cls-1" d="M836.79,433.24c3-13.64,9.6-24.62,17.2-35.12l1.88.76-6.43,14.52,20.23,4.51c2.46,4,2.64,9.11.73,14.6-1.26,3.64-4.65,6.33-7.27,4.8C854.92,432.53,846,433.94,836.79,433.24Z"/><path class="cls-1" d="M1176.94,395.32l-4.41-4.68,5.83-10.54c-1.35-3-2.72-6.09-4.49-10.07l9.45-2c1-3,2-6,3-8.86,7.38-2.16,13.42-1.91,17,6.39l-6.37,5.48a53.63,53.63,0,0,1,1.13,7.62c.06,4.4-.31,8-6.3,9.33C1186.58,389.1,1182,392.71,1176.94,395.32Z"/><path class="cls-1" d="M1917,106.41l12.24-2.83-3.94,12.63c-4.15-1-7.74-2-11.38-2.84-4.44-1-9.11-3.13-13.31-2.47-6.58,1-8.15-1.93-8.85-7.15-.06-.45-1-.78-1.49-1.18l-14.37,3.81c3.35-8,7.57-12.82,15.8-12.31a11.6,11.6,0,0,0,4.7-1c5.16-2,10.5-.68,13.22,3.22C1912.15,99.89,1914.81,103.38,1917,106.41Z"/><path class="cls-1" d="M769.71,1664c-12.82,5.68-16,4.77-23.89-6.92l8.37-.92c2.72-6.65-2.67-5.61-4.34-6.31-.75-5.32-1.4-9.92-2.14-15.06l9.72-2.31C762.23,1642.28,774,1649.34,769.71,1664Z"/><path class="cls-1" d="M2018.3,997.31v6.85l10.75,1.14c-.46,2.06-.84,3.75-1.06,4.71-5-.71-9.32-1.55-13.69-1.88s-8.29,0-12.2-3c-2.26-1.73-6.24-1.24-9.46-1.68-6.78-.93-13.71-1.16-17.83-8.26-1.48-2.55-3-5.15-.57-6.91,1.6-1.16,5-.84,7.1,0a21,21,0,0,1,7.11,5c3.44,3.5,7.92,4.78,11.85,3.25C2006.7,994,2012.39,995.36,2018.3,997.31Z"/><path class="cls-1" d="M2447.93,1347c5.64-8.75,1.72-14.58-7-18.77,8-6.74,5.93-15.4,5.73-23.74,3.56,2,7,2.56,8.4,7.55,1.59,5.84,8.06,3.92,13.29,3.68-.38,2.73-.1,6-1,6.34-9.43,3.91-7.24,14.25-11.9,20.65C2453.86,1344.84,2453.74,1349.89,2447.93,1347Z"/><path class="cls-1" d="M569.83,169.2,565.91,174c3.66,4,14,3.06,9.77,12.21-15.12,7.25-25.41-4.06-37.36-9l15.31,1.71c-2.62-4.45-4.06-6.88-5.5-9.31C559.21,165.16,563.25,165.09,569.83,169.2Z"/><path class="cls-1" d="M2085,937.55c-6.83,5-7.45,9.72-2.8,16.33,2.48,3.53,1.88,9.37,2.19,14.2.07,1.06-1.91,2.25-2.88,3.31-4-7-2.84-15.09-7-21.78-7.23,9-2.41,19.9-6.48,31.53-.73-3.65-1.34-5.19-1.3-6.71.15-5.81,2-11.85-3.56-16.57-.89-.75-.81-3.22-.48-4.75,1.44-6.57,3.14-13.08,5-20.55l6.25,8.25,8.84-4.93Z"/><path class="cls-1" d="M2221.83,427.64c0-3.09,0-5.49,0-7.89.26-9.44,1.76-18.78-1.76-28.19-2.33-6.27,1.8-11.56,5.74-16.57,2.55,14.11,5,27.79,7.26,40.12Z"/><path class="cls-1" d="M2226.34,488.34l-15.14-2.75c0-.46-.23-3.65.27-3.78,7.86-1.95,7.61-8.05,7.66-14.09a13.76,13.76,0,0,1,1-5.17c4.44,9.2,17.68,7.8,21.17,17Z"/><path class="cls-1" d="M647.27,268.34c1.24-5.45,2.61-11.43,4-17.49,10.94,7.09,24.93,8.28,33.13,19-4,1-5.3.56-15.85-5.83l-12.24,9.73Z"/><path class="cls-1" d="M2241.89,1345c6.14,6.33,13,.29,20.91,1.34-1.14,6.71-1.52,12.92-3.5,18.58-.8,2.31-4.94,4.24-7.82,4.71-1.53.25-4.49-2.63-5.32-4.7-2.4-5.94-4-12.19-6-18.32Z"/><path class="cls-1" d="M2074.74,736l8.64,2.9v16.55c-7.6,5.73-4.6,13.67-4.45,21a8.85,8.85,0,0,1-1.7,5.08c-.75-4.91-1.06-9.51-6.62-11.5-1.05-.37-2-5.09-1.09-6.21,5.32-6.4,2.95-13.84,3.66-20.85A63.22,63.22,0,0,1,2074.74,736Z"/><path class="cls-1" d="M728.44,717.46h-13c-3.74-2.83-6.88-5.22-10-7.59-.76-.58-2.17-1-2.24-1.66-.85-8-7.45-8-12.94-9.5-4.33-1.2-8.93-1.68-10.19-7.48-.22-1-3.67-1.39-7.71-2.77,7.62-.38,12.68-1.64,18.09,2.31,10.32,7.53,21.33,14.11,32,21.2C724.23,713.15,725.65,714.87,728.44,717.46Z"/><path class="cls-1" d="M2109.47,828.6c1.25,7.75,2.3,14.17,3.3,20.35-2.8,1.81-5.87,2.8-7.14,4.89s-.54,5.12-.72,8.25c-12.6-.91-3.49-12.41-8.19-17.88l-9.09,2.49,3.52-7.93C2100.58,842.18,2103.88,834.75,2109.47,828.6Z"/><path class="cls-1" d="M2218.91,143.24l2.35,9.34c1.81-.3,3.55-.06,4.16-.78,3.5-4.14,7.62-4.27,13.63-2.61-2.08,1.94-3.24,4-4.59,4.14-11.61,1.11-23.25,1.83-34.88,2.75-4.77.39-8.51-1-11-6.38,1.06-1.31,2.15-4,3.76-4.37,3.44-.75,8-1.66,10.56,0C2208.53,148.92,2213.1,148.65,2218.91,143.24Z"/><path class="cls-1" d="M1372.13,105.14l7.82-5,15.36,3.65,2.47-2.93,26.81,2c-.56,1-.88,2.32-1.42,2.42-8.67,1.5-16.35,7-26.4,2.88C1389.54,105.12,1380.68,106,1372.13,105.14Z"/><path class="cls-1" d="M1795.65,862.18c-1.47-11.63-5.45-22.23,1.25-34.39,2.76,8,5.62,14.82,7.38,21.92C1805.71,855.48,1803.16,859.9,1795.65,862.18Z"/><path class="cls-1" d="M749.62,740.59c-3.56-6.13-6.26-10.76-9.07-15.59,11.25-3.86,11.41-3.81,27.51,7.78C762.61,736.58,754,730.82,749.62,740.59Z"/><path class="cls-1" d="M440,131.29c2.81,5.83-3.79,6.33-5.73,10.78l-5.18-5.77c-4.46,2.3-8.82,5.57-13.69,6.75-4.37,1.07-9.31-.17-16.14-.49C413.39,136.4,425.22,130.15,440,131.29Z"/><path class="cls-1" d="M2164.38,933.94c.43,4,.88,8.07,1.33,12.18-6.12,1.89-10.44,2.45-13.41-3.65-1.05-2.17-4.27-3.27-6.5-4.87C2150.64,930.16,2154.84,929.46,2164.38,933.94Z"/><path class="cls-1" d="M568.87,141c-1.38,4.67-2.45,8.31-3.68,12.48H552l2.25-5.71c-2.71-5.21-10.56,2.36-11.62-5.09l10.81,1.18c.68-6.34,5.74-3.1,8.86-3.88C563.75,139.66,565.46,140.46,568.87,141Z"/><path class="cls-1" d="M1964.63,118.36l-33.46,3.87c1.17-5,6-8.52,10.26-9.35C1948.41,111.51,1956,112,1964.63,118.36Z"/><path class="cls-1" d="M527,111.62c10.56,3.39,22.42.39,29.71,13.24-5.89-1.85-10.36-3.67-15-4.61s-9.55-1-14.7-1.51Z"/><path class="cls-1" d="M2072.2,692.72c-3.45-9.32,1.15-16.28,4.91-24.18C2080.75,676.21,2078.76,685.61,2072.2,692.72Z"/><path class="cls-1" d="M2005.41,721.3c-1.77,4-3.36,8.11-5.48,11.94-.61,1.11-3.19,2.28-4.08,1.84-1.45-.73-3.16-2.78-3.11-4.22a14.63,14.63,0,0,1,2.37-7C1997.23,720.5,2000.37,719,2005.41,721.3Z"/><path class="cls-1" d="M2141.57,579.21l9.68,5.88c-6.07,3.86-2,12.5-9.68,16.39Z"/><path class="cls-1" d="M1302,521.11c-1.78-13.77-1.78-13.77,5.46-15.87C1309.61,517.4,1309.07,519,1302,521.11Z"/><path class="cls-1" d="M1331.06,535.49h14.85l-1,9.8-14.36-7.42C1330.76,537.08,1330.91,536.28,1331.06,535.49Z"/><path class="cls-1" d="M880.07,200.7h-6.5c1.77,5,1.77,5,5.82,8.35l-6.53,4.76-7.64-7.51C870,203.93,871,195.62,880.07,200.7Z"/><path class="cls-1" d="M584,123.56c-6.24-.85-13,3-16.59-5.13C573.91,116.74,578.68,118.14,584,123.56Z"/><path class="cls-1" d="M2288.17,978.94l-12.76,9.72-9.13-5.69c8.21-1.6,15.95,1.06,20.56-6.59C2287.29,977.23,2287.73,978.09,2288.17,978.94Z"/><path class="cls-1" d="M710.91,229.9c2.43-1.69,4.7-3.75,7.37-4.85.93-.38,3.72,1.4,4.06,2.63s-.78,4.17-1.91,4.59c-2.46.91-5.34.7-8,.95Z"/><path class="cls-1" d="M596.88,140.09c-7.68,3.69-11.65-1.76-17.66-4.06C588.6,134.5,588.6,134.5,596.88,140.09Z"/><path class="cls-1" d="M596.82,155.73c-6.41.13-11.72,2.06-16.05-2.59C587,148.5,590.43,148.83,596.82,155.73Z"/><path class="cls-1" d="M400.84,1683.43h15.69c-5,3.72-10.49,1.92-15.74,2.59Z"/><path class="cls-1" d="M480.93,127.59H463.72c5.53-4,11.29-2.3,16.95-2.59C480.76,125.86,480.85,126.73,480.93,127.59Z"/><path class="cls-1" d="M2276.3,154.05c-8,4-13.22,0-18.91-.55C2259.57,151.28,2259.57,151.28,2276.3,154.05Z"/><path class="cls-1" d="M191.65,330.53c-3.45,5.56-6.65,9.29-13.1,5.93C183.6,336.37,184.2,328.1,191.65,330.53Z"/><path class="cls-1" d="M523.4,141.31c8.05-.54,8.05-.54,13.88,6.51Z"/><path class="cls-1" d="M2085.47,917.51h-10.31C2076.19,913.19,2076.19,913.19,2085.47,917.51Z"/><path class="cls-1" d="M2441.15,1295.1c-1.51-2.9-3-5.79-5.05-9.63C2443.33,1286.22,2444.75,1289.32,2441.15,1295.1Z"/><path class="cls-1" d="M326,372c5.17-.08,5.17-.08,7.28,10.87Z"/><path class="cls-1" d="M2059.85,1012.33l-10.92,3.91-.75-2,10.9-4.18Z"/><path class="cls-1" d="M574.51,1667.8H559.88l0-1.81h14.28Z"/><path class="cls-1" d="M2104.85,1018.5c-2.45,3.06-2.77,8.63-9.38,7.43.58-6.19,5.35-6.37,9.66-7.14Z"/><path class="cls-1" d="M2216.23,168l9.61.63c-.05.89-.11,1.78-.16,2.67l-9.59-.59Z"/><path class="cls-1" d="M2221.33,444.21v-7.59c2,1.74,3.88,2.65,4.46,4.09C2227.25,444.32,2224.51,444.26,2221.33,444.21Z"/><path class="cls-1" d="M1584.06,214.44c-1.85,1.66-2.93,3.35-3.87,3.28-1.15-.09-2.4-1.53-3.13-2.68-.19-.31,1.35-2.42,2.18-2.48C1580.47,212.47,1581.77,213.47,1584.06,214.44Z"/><ellipse class="cls-1" cx="2168.44" cy="987.16" rx="0.92" ry="4.55"/><path class="cls-1" d="M2102.94,797.28l3,7.8-2.17.84-3-7.83Z"/><path class="cls-1" d="M1638.1,94.35l-7-.55-2-2.62c1.49-.47,3-.88,4.47-1.43C1637,88.46,1638.22,89.85,1638.1,94.35Z"/><path class="cls-1" d="M2089.56,807l-4.51,7.4C2082.42,808.92,2083.09,806.81,2089.56,807Z"/><path class="cls-1" d="M2076.88,796.74c-.88-2.72-1.77-5.44-3.25-10C2079.69,790,2078.24,793.38,2076.88,796.74Z"/><path class="cls-1" d="M2105.13,1018.79c-1.34-6.33,2-6.43,8.82-4.8-4.22,2.06-6.68,3.27-9.12,4.49Z"/><path class="cls-1" d="M1656.07,96.82l8.94-2.53C1662.29,99.11,1658.88,96.8,1656.07,96.82Z"/><path class="cls-1" d="M1306.37,488.4c-.11,2.2-.22,4.4-.39,7.71C1302.13,493.09,1303,490.8,1306.37,488.4Z"/><path class="cls-1" d="M2128.89,956.93h10.29l-.07.5h-10.3Z"/><path class="cls-1" d="M1325.14,359.88l-5-6C1325.28,352.18,1326.1,353.93,1325.14,359.88Z"/><path class="cls-1" d="M732.47,1365.35l1.11-7.76.52,0c-.13,2.6-.27,5.21-.4,7.81Z"/><path class="cls-1" d="M584,127h8.42v.4H584Z"/><path class="cls-1" d="M822.5,445.23c2.5,3.78,3.67,5.57,4.87,7.39C823.79,451.72,823.79,451.72,822.5,445.23Z"/><path class="cls-1" d="M822.14,1585.35l4.28-2.63,1.26,1.94-4.11,3Z"/><path class="cls-1" d="M875.11,443.2l-2.85-3.07c.87-.71,1.71-1.93,2.61-2a3,3,0,0,1,2.23,2C877.19,441,876,441.91,875.11,443.2Z"/><path class="cls-1" d="M782.39,736.27l5.56.6c0,.52-.08,1-.11,1.58h-5.71Z"/><path class="cls-1" d="M711.1,739.53l-5.21-1,.33-1.92,5.45.84Z"/><path class="cls-1" d="M2070,1010.39l4,.94c-.27.54-.61,1.57-.8,1.55a32.2,32.2,0,0,1-3.7-.91Z"/><path class="cls-1" d="M674.08,281.29l-5.46,2.65c-.25-.52-.51-1-.77-1.56l5.32-2.67Z"/><path class="cls-1" d="M1717.06,1426.28l5.51,4.72C1718,1432.54,1716.05,1432,1717.06,1426.28Z"/><path class="cls-1" d="M1589.41,97.34h-3.75c-.05-.27-.09-.53-.14-.8l3.81-.82C1589.35,96.26,1589.38,96.8,1589.41,97.34Z"/><path class="cls-1" d="M837.21,1580.62l-1.11,4.76-1.65-.34,1-4.81Z"/><path class="cls-1" d="M727.35,1662.58l3.83-2.09c.22.74.44,1.48.67,2.22l-4.24.71C727.53,1663.14,727.44,1662.86,727.35,1662.58Z"/><path class="cls-1" d="M2467.89,1104.16c1,1.14,2.12,2.08,2,2.32a6.32,6.32,0,0,1-2.26,2.33c-.21.13-1.84-1.23-1.75-1.69C2466.06,1106.18,2467,1105.4,2467.89,1104.16Z"/><path class="cls-1" d="M374.07,1678.36l5.05,2.29c-.15.37-.3.74-.44,1.11l-5.22-1.86C373.66,1679.39,373.87,1678.88,374.07,1678.36Z"/><path class="cls-1" d="M1773.92,188c-1.45.64-2.3,1.35-3,1.23s-1.27-1.06-1.89-1.65c.74-.4,1.47-1.11,2.21-1.11S1772.64,187.17,1773.92,188Z"/></svg>