<svg xmlns="http://www.w3.org/2000/svg" viewBox="0 0 1860 1335.75"><defs><style>.cls-1{fill:#2ea6e8;}</style></defs><g id="Layer_2" data-name="Layer 2"><g id="Layer_1-2" data-name="Layer 1"><path class="cls-1" d="M1128.07,145.29s0,.08,0,.12H1128Z"/><path class="cls-1" d="M1500,482.76c0-.07,0-.14.08-.2a.76.76,0,0,0,0,.11Z"/><path class="cls-1" d="M1849.94,144.14c3.44-.08,7,.4,10.06-1.72v-30c-2.8-1.43-5.52-3.85-8.42-4.08-7.11-.57-14-3.29-21.28-2.33a16.21,16.21,0,0,1-7.33-.9,13.42,13.42,0,0,0-8.92.2c-.06,2.83,2.16,6.34-1.13,8.22s-5.92-.13-8.84-2c-2.18-1.37-3.16-3.72-4.87-4.75-2-1.24-4.59,1.82-7.51,1.41-3.68-.53-8.14.92-11-.68-3.88-2.15-7.12-.14-10.59-.52-.85-.1-1.77.74-2.7,1-3.42,1-6.16-1.32-9.21-2.07-2.84-.69-1.43-3.21-1.71-5s-1.77-2-3.29-2.39c-8.83-2.41-17.73-1.92-26.59-.54-3.24.5-6.49,1.46-9.37-.38-4-2.51-7.86-4.89-12.62-5.4a2,2,0,0,1-2-1.81c0-4-3-3.75-5.25-3.21-6,1.46-11.84-4.36-17.83-.24a1.53,1.53,0,0,1-1.39-.35c-4-4.52-9.28-3-14.08-2.86-3.84.1-7.65,1.3-11.44,2,.11,2.29,2.08,4,1.22,7.11-5.68-1.8-11.26,1.84-17.18-.13-2-.67-4.89-.81-6.62.16-4,2.28-7.46,1.7-11-.67-2.1-1.41-4.1-1.12-4.8,1.25-.85,2.85-1.63,5.2-5.23,5.15a14,14,0,0,1-7.66-2.46,17.59,17.59,0,0,1-5-6.15c-1-1.91,1.52-2.84,2.16-4.37,1.33-3.14.71-5.32-2.5-6.15s-6.54-2.18-10.17-2c-3.08.19-6.09.47-9.12-1.87s-5.59-.72-7.44,3.42a2.81,2.81,0,0,1-2.68,2A77,77,0,0,1,1533,76.43c-2.82-1.08-4.84-1.76-7.42.11a6.87,6.87,0,0,1-8.3.09c-1.87-1.4-3.6-1.38-5.53-1.47-5.47-.28-5.9.27-12.85,2.33-5.7,1.7-11.76,2.22-18.08,3.34,3.08-4.93,3.51-5.26,7.22-6.16,2.63-.64,6-.55,7.71-2.18,4.44-4.16,10.15-4.87,15.4-6.52,3-.94,4.51-2.76,6.27-4.74,1-1.11.71-3.17-.27-3.13-3.13.13-3.73-3.13-6-3.84-6.53-2-13.26-1.88-19.95-1.46-3.16.2-6.88,4.1-8.6-1.89-4,.74-6.13-2.16-9-4.16-4.22-3-16.51-.32-18.89,4.52-1.31,2.68-2.47,2.79-4.57,2.91a9.41,9.41,0,0,0-3.63.55c-6.11,3.07-12.22,4.59-19.07,2.21a13,13,0,0,0-8.1.39c-8.21,2.69-16.5,5.07-25.31,4.36-1-.07-2.46-.16-2.88.39-3.08,4-7.94,3.18-12,4.24.46,8.32.14,9.05-7.26,8.73A60.87,60.87,0,0,0,1347.27,79c1.48,2,1.19,4.88,5,5.53,2.47.42,4.52,3.22,7.44,5.47-3.65,1.66-7,2.08-9.21.52-7.2-5.1-13.16-4.09-18.89,2.18-1.81,2-9.6,3-10.82,1.45-1.88-2.37-.84-5.11,0-7.69a1.39,1.39,0,0,0-.07-.63,8.56,8.56,0,0,1-1.12,1.55,6.48,6.48,0,0,1-1.9,1.12c-7.62,3-7.84,4-2.11,9.46a6.5,6.5,0,0,1,1,1.73c-.43.54-.67,1.06-1.07,1.29-2.51,1.48-3.3,3.57-2.36,6.31,1,2.89,3.47,2.28,5.65,2.36,3.24.11,6.57-.21,9.7.44,5,1,5.24,2,3.19,8.18a54.72,54.72,0,0,0-4.55-5c-2.2-1.89-9.81.85-10.14,3.5-1,8.26-5.61,13.47-13.16,14.78-1.18.2-2.6.3-3.22-1.15-.53-1.26-.42-2.53,1-3.17,2.64-1.23,3.07-4.26,5.16-6,2.25-1.89,2.24-5.57.1-7.11a3.17,3.17,0,0,1-1.6-3c.15-3.48-.86-7.15.55-10.38,1-2.38.46-4.6-1.09-5.22-4.62-1.86-1.73-4.11-.85-6.36.67-1.68,3.44-2.52,1.71-5.56-3.94,0-8.34.71-12.34-.25-2.64-.64-3.85-1-4.93,1.65a15.43,15.43,0,0,1-8.93,9.09c-.72.28-2.5.78-2,1.49,3.23,4.21.91,11,6.53,14a17.4,17.4,0,0,1,3.22,1.88c1.69,1.46,1.17,3-.06,4.58-.74.92-1.28,2.53-2.76,1.4-6.36-4.89-14.64-5-21.5-8.88-5.76-3.27-12.48-3.21-18.84-1.82-.49,2.71,2,2.59,2.38,4,.34,1.22.54,2.94-.94,3.1-2.33.24-3.11,1.58-4.34,3.26-1.5,2.05-5.29,1.16-5.08-.92.66-6.41-2.34-3.43-4.83-2.2a18.65,18.65,0,0,1-8.67,1.71c-2.84,0-5.84-.85-8.31,2-1,1.22-3.06.48-4.31-1.35-2-3-4.86-3.48-6.77-.75-1.47,2.1-1.76,2.37-3.58.59a2.75,2.75,0,0,0-4,.37c-1.52,2-3.94,2-5.9,3-4.53,2.11-9.76,2.51-12.78,7.71-1.7,2.92-7.61,2.76-10.12.47-1.41-1.29-3.28-2.61-2.76-5,.45-2,2.35-1.37,3.68-1.66,1.87-.4,2.39-1.71,2.18-3.31a2.36,2.36,0,0,0-2.71-2c-2.37.17-6-1.31-6.77,1.25s-2.86,5.59-.87,8.31c2.59,3.53,1.54,6.43-.88,9.73-2.95-1.46-6.23-3.49-9.42-2.63-3.48.94-6.54,3.37-10,4.72-1.05.41-1.81,1.73-1,3.63,1.71,3.89-.13,6-4.34,5.08a14.84,14.84,0,0,0-5.8-.38c-1.28,7.91-1.32,7.89-8.75,4.6a8.77,8.77,0,0,0-2.71-1.17c-5.67-.3-7.7-5.81-7.17-8.74.75-4.1-1.18-5.13-3.22-7-1.07-1-2.52-1.82-1.69-4,5-1.53,9.39,1.38,14.1,2.25,7.08,1.3,14.19,2.52,21.05-.92,1.69-.86,4.44-1.71,4.13-3.63s-.83-4.54-3.92-5.68-6.24-1.66-8.91-3.32c-7.25-4.51-14.74-7.85-23.54-7.2-1,.07-2.32.08-2.84-.48-4.64-5.1-10.67-4.07-16.51-4-1.13,0-2.54.43-3.21-1.14.42-2,3.93-2.23,3.32-4.13-.77-2.4-3.53-2.13-5.8-2.23-2.45-.11-5.4,2.88-7.37-1.19-.3-.62-1.68.09-2.54.75-3.3,2.54-8.19,2.6-12.19.19-.51-.3-.68-.61-1.21-.19a8.82,8.82,0,0,1-5.32,2.29c-1.92.06-3.06-1.93-4.87-1.37-1.42.45,2.51,3.59-1.25,2.94s-6.72,1.66-8.53,3.43c-2.67,2.62-3.75,1.71-5.8,0s-4-2.54-5.94.49c-1.35,2.15-5.8,1.37-6,3.18-.74,6.76-3.66,5.7-7.85,3.17-1.15-.7-2.44.43-2.86,1.67-.47,1.41.67,1.62,1.68,1.49,1.72-.22,2.2,1,2.41,2.18.31,1.78-1.17,2-2.39,2a4,4,0,0,0-4.35,3.3,5.82,5.82,0,0,1-3.12,4c-5.27,2.7-9.19,6.36-10.16,12.47-.17,1.07-.63,2.16-1.5,2.45-6.83,2.26-8,13-17.27,11.54-.11,0-.33.37-.43.59-2.56,5.87-8.94,6.3-13.56,9.11-2.92,1.77-4.7,3.33-4.74,6.65,0,3-.39,6,.08,8.93,1.06,6.44,3.57,12.2,9,16.32,1.87,1.41,3.88,1.79,5.41.34,4.44-4.21,10.47-6,14.86-10.8a24,24,0,0,1,2,3.74c1.93,6.12,4.41,11.94,8.8,16.73,1.34,1.46.39,2.6,0,4-.78,2.86,1.1,5.14,3.15,6.36,1.71,1,3.68.09,4.48-2.47a4.3,4.3,0,0,1,4.53-3.21c4.14.4,5-2.89,5.92-5.5a36,36,0,0,0,1.66-8.67c.28-2.74,1.1-4.76,4-5.53,1.47-.39,2.46-1.56,3.57-2.58,4.67-4.32,5-7-.55-9.25-4.71-1.89-4.64-4.67-4.51-8.42.13-3.33,1.41-5.85,3.38-8.62,2.86-4,6.94-6.53,10.79-8.66,4.14-2.28,6.47-4.47,7.24-9.2.53-3.23,3-7,6.21-7.26a76.84,76.84,0,0,1,11.92.21,4.1,4.1,0,0,1,3.72,3.16c.58,1.65-.23,2.77-1.56,3.77-4.42,3.29-7.53,7.91-13.12,10.16-6.21,2.5-6.52,5-5.66,12.13.32,2.66.65,5.52-.59,8.11a2.38,2.38,0,0,0,.07,2.7c1.75,2.52,9.87,6.33,12.34,4.67,3.75-2.53,8-1.95,11.84-3.24,6.68-2.23,13.34-2.3,19.44,2.35-7.74,4.1-15.47,6.8-24.06,5.61-2.36-.33-4.41.65-6.47,1.49-3.11,1.27-3.47,3.51-.44,4.91,2.26,1.05,3.11,2.15,3,4.38s.48,4.51-.69,6.61c-.59,1.05-1.67.91-2.63,1-1.93.22-3.1-1-4.55-2-3.61-2.65-5.27-2.1-7.55,1.57-2,3.27-3.61,6.31-1.5,10.39,1,2,1.1,6.55-1.24,6.48-4.3-.14-5.45,2.82-7.76,4.83-1.67,1.46-3.12.8-4.3-1-2.55-3.86-5.7-3.42-8.85-.9-3.39,2.7-7.54,3.25-11.41,4.66-2.61.94-5.27-.14-5.76-1.43-1.92-5-3.79-2.32-6.51-.88-6.08,3.22-12.32.22-13.33-6.11-.43-2.69.62-3.26,2.81-1.46a1.22,1.22,0,0,0,1.89-.28c-.16-.42-.21-1.12-.48-1.22-5.21-1.92-5.55-2.24-2.23-5.57,2-2,1.08-2.81.39-4.61-.59-1.57-.12-3.54-.12-5.56-2.39.94-3.31,2.89-5.54,3.23-4,.61-5,4-3.91,7.06,1.71,4.68,1.14,9.65,2.85,14.3,1.27,3.48-.82,5.66-4.76,4.8-2-.44-3.35-.82-4.35,1.06s-1.62,2.18-3,.36c-.44-.55-2.5-.75-2.7-.42-2.06,3.34-6.93,3.78-8,8.21A13.7,13.7,0,0,1,945,249.76c-2.85.92-4.23,2.62-5.39,5.3a16,16,0,0,1-9.88,8.7c-3.07,1-6.42,0-6.3,4.93,0,1.23-1.92,1.49-3.13,1.21-1.67-.39-3.23-1.41-4.9-1.61-3.14-.4-6.62-1-7.38,4,9.59,2.41,15.49,8.68,17.67,18,1.22,5.2-.06,10.63-1.41,15.75-.7,2.65-2.55,4.56-6.25,3.6-6.24-1.62-12.72-1-19.12-1.07a16.51,16.51,0,0,1-3-.08c-2.8-.53-5.54.65-7.92,1.13-4.1.82-3.35,2.5-2.6,5.57,1.72,7.13,2.49,14.4-.46,21.54a34,34,0,0,0-1.34,5c-.28,1.15-1.15,2.58.28,3.36,2.81,1.54,2.57,4.1,2.34,6.52-.33,3.5,1.71,4.36,4.46,4.25,2.18-.09,5-1.42,6,1.16,2.91,7.06,7.09,6.48,12.31,2.84.71-.5,1.94-.3,2.93-.34,4-.15,8.69,1.29,9.86-4.75.05-.28.83-.61,1.27-.61,2.9,0,3.87-1.56,3.81-4.25a4.37,4.37,0,0,1,2.33-3.64c1.45-1,1.54-1.72,1.21-3.55-1.55-8.66,1.35-13.87,9.52-17.69,2.8-1.31,4.37-3.86,6.64-5.69s-.17-3.64-.29-5.48c-.25-3.81.86-5.73,4.69-6.19,2.91-.35,6-.77,8.83.69,1.92,1,4.39,1.29,5.63-.16,2.34-2.73,6.29-3,8.26-6.16,1.69-2.72,3.95-2.11,6.48-.73s3.35,3.39,4.53,5.59c4.19,7.77,9.48,14.36,17.67,18.6,2.24,1.16,6,1.67,6.78,4.9,1,3.92,5.77,5.56,5.79,10.12,0,1.14,1.61,1.94,2.89.91,1.07-.87.39-1.82-.46-2.37-2.93-1.88-2-4.32-.7-6.44s3.27-1.88,5.29-.78c.81.43,1.95.81,2-1-4-2.88-10.46-3.46-10.49-10.45,0-.29-1.26-.86-1.89-.81-5.27.41-7.68-2.6-9-7.16a11.48,11.48,0,0,0-4.58-6.55c-4.94-3.1-3.27-7.83-3.59-12-.17-2.28,2.11-3.13,4.23-3.31,1.89-.16,3.39-.08,3,2.7-.15,1,1.41,3.85,2.43,2.21,2.26-3.62,1.61-1.07,2.73.48,2.45,3.41,2.67,8.58,7.29,10.23,5.81,2.08,9,7.84,14.62,10.1,2.69,1.08,3.69,3.27,3.6,6.46-.19,6.68.1,6.66,3.6,14.33.59,1.32,1.09,2.71,1.61,4.05,1,2.46.69,5.38,4.77,5.19,1.56-.07,1,1.64.68,2.91-1,4.57.73,8.29,3.88,9.6,1.56.65,3.12-.36,2.53-1.13-2.69-3.51,2.92-4.24,2-6.93.51-.35-1.83-.69-.12-.71,2.14,0,3.72-.37,4.59-2.45a3.8,3.8,0,0,0-4-2.69c-1.56,0-2.52-1-2-2.38,1.21-3.12-.93-5-2.07-7.39-1-2.17-1.33-4.94,2.76-3.26,1.68.69,1.87-.47,2.7-1.44a11.32,11.32,0,0,1,12-3.07c1.71.7,3.51,2.05,2.68,3.89-1.67,3.68-1.49,6.45,1.92,9,.72.53.82,2.34.68,3.5-.5,4.2,1.41,7.7,3,11.32,1.12,2.64,9.52,7.89,12.3,7.83,1.75,0,2.78-.71,2.92-2.59.19-2.6,2-2.66,3.74-1.9s3.67,1.34,5.08,3c2.12,2.45,6.32,2.55,7.52,1.15,3.8-4.46,9-1.73,13.16-4.51.93,3.84-1.9,6.35-1.38,9.34,1.76,10-3.79,18.67-5.35,28.05a9.32,9.32,0,0,1-2.62,5.2c-1.15,1.19-1.49,4.16-3.28,3.49-2.66-1-5.7,1.74-7.73-.82-4-5.1-7.8-2.57-11.35.28-2.72,2.17-4.62,2.91-8.5,1.46s-7-4.39-11.43-4.69c-6.29-.41-11.83-3.38-16.68-7.18-4.63-3.62-5.5-4.05-10.1-1.21-4.95,3.06-4.94,3.06-3.8,9.18.14.73.09,1.49.19,2.23.49,3.53-2.79,4.49-4.57,6.3-2,2-3.3-.46-5-1.39-3.39-1.94-6.31-5.18-10.49-5.21a5.89,5.89,0,0,1-6.21-5.26c-.82-5.29-5-6.43-8.57-6.58a21.1,21.1,0,0,1-15.52-7c-3.76-4-4.48-3.72-1.35-7.62,2.06-2.57,3.6-5.23,2.13-8.1a13.22,13.22,0,0,1-1.32-6.33c0-3.74-3.29-6.9-5.77-5.41-4.87,2.94-10,2.32-15.17,2.59-2.3.11-4,2.26-6.68,1.31-8.09-2.87-15.17,2-22.73,3.23-.25,0-.59,0-.72.17-2.56,3-6.92,3.33-9.35,6.84a6.42,6.42,0,0,1-7.42,2.22c-1.4-.52-2.82-1.65-4.22-1.08-5.29,2.12-8.74-.73-11.93-5a23.17,23.17,0,0,0-1.13,2.77c-1.64,7.12-4.94,12.41-11.1,17.33-5.67,4.53-11,11.87-7.32,21,.62,1.51,0,2.83-.59,4.26-3,6.92-6.72,13-14.68,15-1.34.34-2.6.94-2.72,2.19-.67,6.76-6.7,10.84-8.15,17.47-1.87,8.6-7.05,16.12-10.1,24.43-1.63,4.42-3.68,8.13.63,12.05,2.11,1.92,1.68,4.56,1.11,7-.27,1.14-1.21,2-.5,3.44,5.07,10.14,1,20.25-2,29.46-2.74,8.41,3,15.76.14,23.52,0,.15.19.52.38.62,4.54,2.29,6.22,7.13,9.12,10.78,3.84,4.84,9,9.39,8.28,16.72-.34,3.77,2.4,7.58,4.38,9.28a103.52,103.52,0,0,1,15.86,17.28c4.46,6,7.59,6.06,14.54,3a27.15,27.15,0,0,1,18.86-1.51c1.93.57,3.63,1.34,5.69.34,4.16-2,9.31-3.47,12.14-6.36,4-4.13,8.48-4.29,13.05-4.74,6.5-.65,10.67,2.76,12.32,9.09.19.71-.06,1.55.19,2.22,1.12,3,2.17,5.52,6.58,3.77,2.74-1.08,7.19-1.74,9-.28,3.17,2.51,7.37,5.43,7.19,10.38-.35,9.69-.54,19.42-3.26,28.86-.46,1.59-2,2.93-1.13,4.91,1.7,3.84,2.41,8.48,5,11.47,9.53,10.85,12.06,24.33,15.67,37.53,1.07,3.9,1.93,7.47,1.16,11.62-.6,3.3-.81,7.51,1.24,10.11,4.12,5.21,1.81,10.58,0,14.72-4.76,10.81-7.25,22-9.07,33.51-.91,5.8-.22,10.76,2.78,15.6a15.63,15.63,0,0,1,2,4c3.3,12,11,23,9.26,36.29-.12.89.62,1.87.78,2.84.7,4.12,1.63,8.2,2.37,12.31,1.23,6.89.78,14.49,6.26,20.22,1.5,1.56,3.76,3.06,3.8,5.39.11,7.75,4.29,14.15,6.67,21.14.48,1.42,1.71,3.08.55,4.15-3.94,3.61-.58,6.5.39,9.82s5,3.62,6.27,6.94c.45,1.13,3.55-1.46,5.13-3,.44-.42,1.42-.32,2.15-.39,5.41-.54,10.7-1.69,16.22-1.67,6.73,0,13.09-2.26,17.54-7.58,6.59-7.89,13.77-15.44,16.55-25.9.66-2.45,3-4.51,4.67-6.6.57-.7,2.17-.86,2.07-1.9-.59-6.39,4.34-12.07,2.15-18.71-.93-2.81.17-5.21,2.94-7a17.17,17.17,0,0,1,4.54-2.41c5.32-1.4,6.86-5.15,6.83-10s.49-9.93-1.63-14.68c-3.55-8-3.36-15.27,4.29-21a1.67,1.67,0,0,0,.47-.58c3.5-7.23,9.16-12.27,15.72-16.77,5.27-3.62,8.68-9.43,7.9-15.82-.91-7.5-.43-14.93-.74-22.38-.19-4.57,1.06-9.5-3.59-12.86a2.8,2.8,0,0,1-.83-2c-.06-5.39-2.61-10.43-2-16,.41-3.41,1.53-7.31-2.58-9.91-1.14-.72-.65-2.86-.24-4.29,1.84-6.38,3.63-12.78,5.75-19.07.84-2.5,1.11-5.49,3.4-7.24,3.75-2.87,5.26-7.19,7.35-11.07,3.54-6.55,6.93-13.58,12.2-18.49a92.6,92.6,0,0,0,17.43-22.52,73,73,0,0,0,6.31-14.13c1.76-5.58,4.39-10.83,6.25-16.32,3-8.87,6.61-17.88,4-27.83-1.82,1.07-2.25,2.93-4.49,3.67-7.62,2.49-15.07,5.13-23.11,6.41-7.42,1.18-7.32,2-10.89-4.45-1.2-2.15-4.47-3.58-1.56-7.16,1-1.26.61-5-2-6.47-1.46-.84-1.52-2.6-2.45-3.54-4-4-5.84-9.68-10.58-12.88-3.14-2.12-4.43-4.76-5-8.44-.81-5.31-1.11-11.27-5-15.23s-5.27-8.36-5.58-13.84c-.45-8-.35-16.47-7.49-22.37a3.71,3.71,0,0,1-1.3-3.38c.67-4.78-2.18-8.56-3.52-12.75-1.14-3.53-3.14-6.85-3.82-10.44a50.62,50.62,0,0,0-5.87-15.84,22.14,22.14,0,0,1-2.93-10.34c8,1,3.17,10.89,9.82,12.82,1.28-3.58.16-8,3.58-10.67a1.88,1.88,0,0,1,1.1,2.49c-2.47,4,.38,6.75,1.93,10,3.52,7.5,8,14.62,10,22.82.49,2,.91,4.05,3.21,5.53,4.66,3,6.12,9,5.84,13.33-.44,6.6,1.63,11.49,5.32,16.09a32.32,32.32,0,0,1,3.6,5.5c2.55,5,3.83,10.42,7.34,15.17,2.56,3.48,3.77,8.93,3.45,13.34-.49,6.76,1.38,13,2.23,19.46.19,1.43-.14,4.3,2.9,4.5,2.61.17,5.45.2,6.5-2.48,1.12-2.89,2.9-3.23,5.6-3.63,3.81-.57,6.83-4,11-3.82,3.51-6,10.45-7,15.5-10.83,1.15-.87,3.1-1.27,3-3.05-.37-5.09,3.39-5.25,6.73-7.06,3.62-2,10.51-.52,10.32-7.82,0-.53,1.49-1.58,2.28-1.57,2.68,0,3.42-1.31,3.43-3.73s2.1-3.33,3.76-4.23c1.24-.68,2.33-1.42,2-2.68-1.57-7,5.26-10.07,7.2-15.48,1.09-3.06,4.58-5.22,2.22-9.18-1.92-3.22-3.64-7.23-7.4-7.91-5.52-1-6.94-4.48-8.31-9-.55-1.83-.66-4.11-1.81-6a12.19,12.19,0,0,0-4.34,4.82c-2.94,5.83-8.51,7-14.15,7.63-4.56.48-5.71-1.23-5.4-6.1.16-2.57,0-5.17,0-7.79-4.37.47-1.57,4.69-4.36,5.92a7.61,7.61,0,0,1-2.22-5.75c1.11-6.09-2.55-9.56-6.17-13.1a4.87,4.87,0,0,1-1.74-3,20.85,20.85,0,0,0-3.61-9.65c-1.67-2.28-.27-3.61.82-5.26s3.3-2,4.88-3.2c2.7-2,6-.38,7.51,3,.71,1.58,1.17,3.37,2.22,4.68,2.08,2.57,1.73,6.9,4,8.37,3.64,2.38,6.4,5.44,9.29,8.43,2.58,2.65,5.71.94,8.47,1.73,2,.58,2.87-.49,4.2-1.92,2.8-3,4.71-2.28,6.45,1.45a12.34,12.34,0,0,1,.87,5.09c0,1.39.61,2.71,2,2.6,3.39-.28,5.87,2.16,9,2.66a104.86,104.86,0,0,0,31.93.09c2.94-.43,6-.57,7.11,3.53a19.93,19.93,0,0,0,2.13,4.56c3,5,5.61,10.81,13,10.4,1.23-.07,2.7-.26,3,1.41.22,1.45-1,2.33-2.16,2.64-4.68,1.33-3.67,3.86-1.6,6.71.74,1,1.5,2,2.22,3,2.93,4.16,5.07,4,8.38.05,1.89-2.24.62-5.29,2.79-8,3.15,5.46,3.2,10.75,3,16.14-.33,11.16.37,22.18,4.33,32.83,1.88,5.09,3.77,10.34,4.44,15.67a39.75,39.75,0,0,0,3.57,12.76c2.23,4.5,3.36,9.27,4.75,14,1.23,4.22-.18,9.1,3.15,12.81,1.07,1.2.65,3.6,3.07,3.75,2.6.16,2.25-2.25,3.13-3.54.68-1,.75-2.78,1.6-3.21,4.74-2.35,2.93-8.36,6.55-11.24-.24-11,4.57-21.77,1.65-33-.92-3.5.9-6.21,3.35-8.54,3.14-3,8.33-4,8.88-9.47,7.09-4.45,10-12.15,14.44-18.65.44-.64,0-1.68,1.66-1.6,5.46.25,5.95-4,6.51-7.93.78-5.49,3.24-7.62,8.34-6.26,1.78.48,3,.78,4.57-.17,2.91-1.72,6.45-1.85,9.26-4.23,3.1-2.62,5.11-1.73,5.25,2.34a23.68,23.68,0,0,0,4.59,13.14c2,2.71,3.18,5.64,4.83,8.23,4.11,6.43,4.09,12.92,3.11,19.74-.46,3.22.57,5.19,3.15,6.7,3.8-3.39,8.35-6,9.28-11.3a1.9,1.9,0,0,1,2.11,1.34c2.87,6.39,3.49,13.32,4.52,20.1.64,4.25,3.69,7.76,3.48,12.06-.51,10.23-.34,20.53-2.72,30.62-.41,1.72-1.09,5.11.6,5.31,4.3.5,4.78,4.37,5.92,6.62,2,4,5.8,7.6,5.18,12.63-.59,4.72,1.28,9.16,2.28,13.43.79,3.41,1.93,8.16,4.64,10.48a54.68,54.68,0,0,1,10.34,12.13c.75-4.22.73-7.49-.52-10.8a38,38,0,0,1-2.3-14c0-7.54-4.54-14.47-11.36-18.84-2.08-1.33-3.15-2.51-3.63-5-.77-4.08-1.2-9.1-3.79-11.77-4.58-4.72-3.2-9.46-2.33-14.39,1.07-6,4-11.74,3.35-18.15-.17-1.52.24-3,2.32-3.09s3.57.3,3.57,2.69c0,2,.6,3.26,2.94,3.33,2,0,2.52,1.9,3.65,3.2,3.53,4.1,5.3,9.81,9.38,12.93s5.56,6.76,5.37,11.51c2.81-.51,5.09-1.57,5.74-3.77,1.36-4.61,4.54-7.19,8.45-9.43,4.72-2.7,6.68-7.08,6.65-12.42a67.09,67.09,0,0,0-.21-9c-1.12-7.79-1.94-15.67-8.24-21.62-2.86-2.7-4.09-6.78-6.45-9.85-5.56-7.24-3.71-13.8,0-21.08,1.37-2.72,3.81-2.77,5.45-4.52,7.2-7.67,10.29-7.08,14.2,2.13a9.31,9.31,0,0,1,7-6.34c3.89-1,8.07-2.63,9.69-7.21.53-1.5,2.24-1.88,3-1,2,2.2,3.26.49,5.06-.23,1.64-.66,2.63-2.06,4.41-2.58,7.14-2.11,10.49-8.88,15.16-13.77,2.78-2.91,4.52-7.58,5.27-12.37a21.4,21.4,0,0,1,5.84-11.56c4.42-4.16,3.74-9.8,6.19-14.38.63-1.18-.15-1.14-1-1.07-1.45.12-2.47-1.77-4.17-.81-.77.43-1.87,1.1-2.49-.31a2.65,2.65,0,0,1,.65-3.36c.56-.48,1.25-.83,1.8-1.33,2.85-2.57,4.29-9.21,1.52-11.05-3.91-2.59-3.86-6-4-9.56-.15-3.35-1.94-5.54-4-7.69-3.32-3.37-4.48-6.72-1.47-9.32,3.46-3,5.39-7.54,10-9.4,1.61-.65,4.56-.55,4.38-3.26-.21-3.05-3.18-1.42-4.79-2.18a8.54,8.54,0,0,0-3.44-1.19c-3.87-.18-3,7.13-7.78,4.88-2.88-1.38-.09-7.31-5.62-7.36-2,0-2.6-2.93-3.31-4.65-.84-2.06.4-4.71,2.51-4.47,4,.43,5-2.17,6.85-4.48,2.43-3,6.25-4.58,8.34-8.22,1.15-2,4-1.85,6-.29,1.85,1.45,1.93,3.35.58,5.29-.71,1-1.35,2.08-2.08,3.09-1.36,1.88-.45,3.12,1.45,4.61,1-1.16,1.74-2.62,2.94-3.37,3.55-2.21,7.34-3.28,11.55-1.63,5.08,2,2.51,5.51,1.89,8.65-.56,2.9-.56,4.54,3.31,5.74,2.37.73,8.35,3.42,3.77,8.8a1.69,1.69,0,0,0,.07,1.4c2.19,4.77,1.2,9-2,12.94-1,1.27,2,5.32,2.9,4.45,2.8-2.9,7.27-1.85,9.82-4.42a12.41,12.41,0,0,0,4-9.62c0-7.26-3.66-12.52-6.75-18-4.38-7.72-4.87-9.16,2.11-13.71,3.71-2.41,6-5.06,5.53-9.62-.14-1.49-.07-3,1.81-3.62,3.33-1.06,4.23-4.54,6.45-6.73,3.63-3.6,3.53-4.12,7-.85,2.55,2.4,4.4,2.46,7,.18a72.3,72.3,0,0,0,9.74-10.69c5.51-7.19,11.29-14.06,15.1-22.38.69-1.53.73-3.57,2.41-4.53,6-3.43,6-9.23,5.93-15-.1-5,.27-9.86,3.25-14.24,2.45-3.59,1.1-7.74,1.09-11.66,0-1.26-8-6.9-9.38-6.94-1.64-.05-3.44.45-3.31,2.18.28,3.73-2.34,2.21-3.95,2.56-2.12.47-5.09.07-5.2-1.68-.29-4.79-3.84-5.61-7-7.09-2.83-1.34-2.43-3.3-.29-4.31,4.57-2.14,8.07-5.68,11.62-8.92,6.7-6.12,12.88-12.8,19.52-19,4.11-3.86,8.62-5.82,14-5.18,7.33.88,14.74-1.23,22,.82a1.88,1.88,0,0,0,1.92-.67c4.86-4.89,9.68-.51,14.46.28a79.13,79.13,0,0,0,8.94,1.13c2.59-.17,3.81-.76,4.2-3.8a7,7,0,0,1,4.94-6,9.13,9.13,0,0,0,5-4.32c3.28-5.22,9.72-3.89,14.06-6.89.47-.32,2-.15,2.12.19,1.71,3.65,4.26-.89,6.2.45-2,4.86-2,4.86-.05,9.24.93-2.18,2.83-2.84,4.46-3.84,3.85-2.38,7.93-4.35,9.68-9.1.51-1.39,1.61-3.2,3.85-3,1.22.11,2.64-.24,3.4.95a2.49,2.49,0,0,1-.28,2.81,14.76,14.76,0,0,0-2.93,7.51,6.11,6.11,0,0,1-5.23,5.59c-3.69.65-5.88,3.45-8.25,5.67-6,5.6-10.28,13.16-19.1,15.31a5.22,5.22,0,0,0-2.93,3.2,11.27,11.27,0,0,1-3,5.06c-4,3.51-4.45,7.89-4.36,12.72.19,10.14,4.61,19.41,5.12,30,4.78-2.24,8.22-4.83,8.3-9.49.1-5.51,4.75-4.51,7.35-6.55,2.16-1.68-.7-6.72,3.66-8.83,5.7-2.74,5.49-3,6.87-8.56a22.27,22.27,0,0,1,3.37-6.55c2-3,2.75-6.37-.49-9a4.37,4.37,0,0,1-1.39-5.34c2-4.34,6.68-7.14,7.29-12.37a.89.89,0,0,1,.69-.14c2.23,1,3-4.17,6.27-1.08,2.13,2,3-3.28,5.65-3.18a3.31,3.31,0,0,1,2.05.52c1.42,1.39,2.38.43,3.84-.08,6.08-2.14,12.16-2.87,17,2.73a22.88,22.88,0,0,1,5.12-4.91c5.36-3.35,10.82-6.42,16.5-9.25,7.37-3.66,12.4-5.16,20.63-4.34a32.65,32.65,0,0,0,4.33-.19c-2.69-5.13-1.73-11.87-9.16-13.19-1.06-.19-1.46-1.46-1.46-2.4C1847.24,144.05,1848.75,144.17,1849.94,144.14Zm-760.28,23.71c4-1,11.16,4.36,11.12,8.32,0,1.27,0,2.94-1.37,3.11-3,.39-5.75.73-7.58,3.54-.15.24-2.23.6-2-1.06.41-3-1.41-5.08-2.76-7.41C1085,170.76,1085.81,168.85,1089.66,167.85Zm-8.09,164c-1.67,1.55-3.72,1-4.88,1.13-1.52,0-2.27,0-3,0-1.32-.09-2.42-.55-2.7-2a2.78,2.78,0,0,1,1.58-3.06c2.74-1.65,5.78-1.28,8.68-.87C1083.15,327.35,1083.24,330.35,1081.57,331.9Zm56.28-3.81a34,34,0,0,1-25.3-6.59c-3.83-2.85-7-2.68-10.64-.42-2.9,1.77-6.44,2.46-8.39,5.78-1.52,2.59-4.16.79-6.14.71-7.06-.27-12.25-4.1-12.94-9.17a10.07,10.07,0,0,1,.23-4.41c1.93-5.9,3.62-11.69,7.86-16.83,2.52-3.06,4.17-7.39,6.5-11,1.91-3,3.4-3.85,6.27-.85a6.75,6.75,0,0,0,6.64,1.85c2.86-.64,4.51,2.17,2.52,3.55-3,2.09-1.84,2.47.34,3.83,1.67,1,.8,3.07-.3,5.69,2.59-1.14,3.68-1.65,4.79-2.1,4.58-1.87,4.58-1.87,2.54-6.07-2.24-4.64-1.87-5.72,2.82-7.72,3.55-1.51,7.28-2.39,10.5-4.89,2.39-1.85,5.66-1,10.09.09-6.71,4.23-6.18,12.13-11.72,16.91,7.43,2.24,11.65,9.42,18.6,13.05,2.66,1.4,4.38,4.74,5,7.95C1148.31,323,1144.21,327.28,1137.85,328.09Zm75.48,1.09c-1.66.18-2.81,1.36-4.76,1.24-4.11-.25-4.1.47-1.87,4.41,3.9,6.91,3.71,14.58,3.42,22.18a2.78,2.78,0,0,1-2.86,2.88c-2.76,0-5,1.2-7.52,2.09-2.94,1-5.69-2.07-8.2-3.83-2.11-1.48-3.16-3.95-6.32-4.63-2.67-.58-3.77-8.43-1.77-11.15a17.87,17.87,0,0,0,1.84-2.93c4-8.47-1-14.62-5.37-20.75-2.25-3.16-4.28-6.05-3.73-10.14a7,7,0,0,0-.88-4.3c-2.8-5.25-2.86-8.72,1.47-11.34,5.15-3.11,9.13-7.49,13.64-11.19,5.19-4.27,9.74-.52,14.49-.75,1.74-.09,1.21,2.84,1,4.6.79,4.61-1.69,7.54-5.53,9.34-1.46.68-4.49.18-4.15,2.07.54,3-2.15,5.51-.41,8.5,1.25,2.14,2,4.7,4.18,6,3.18,1.89,4.24,6.72,9,6.4,1.11,3.26,4.2,5.2,5.51,8.29C1215,327.32,1214.8,329,1213.33,329.18Z"/><path class="cls-1" d="M0,1247.3c9.24-.09,18.49-.26,27.73-.27q50.63,0,101.25,0a54.33,54.33,0,0,0,6-.19,2,2,0,0,0,1.59-2.19,1.77,1.77,0,0,0-1.75-2c-3.48-.17-7.33-1.15-10.33.42-2.63,1.36-4,.22-6-.45-1.49-.5-2-1.07-1.66-2.57s1.23-2,2.63-2a277.26,277.26,0,0,1,28.53,1.3c2.14.22,3.69,1.76,5.54,1.79,3.81.06,7.91,1.75,11.27-1.78,2.18-2.28,5.16-1.52,7.82-1.12,1.63.25,4.59,1.83,4.61.69.07-3.43,5.28-3.83,3.93-7.7-.3-.88-.26-1.92-.71-2.55a68.72,68.72,0,0,1,26.34-4.26c.49,0,1.23.08,1.45-.2,5.53-6.91,14-3,20.73-5.69,1.29-.52,2.92,0,4-1.46.8-1.11,2.47-1.61,3.28-.74,3.33,3.56,7.53,2.09,11.3,2,6.59-.12,13.12,1.07,19.78.33,3.13-.35,6-2.49,9.93-.58,3,1.49,7.35.35,11.1.36h11.25c3.75,0,7.51.13,11.25,0s7.52.32,11.43-1.91c2.86-1.63,7.32-.32,11-.64,2.5-.21,6,1.75,7.06-2.85.13-.56,3.82-2,4.64,2,1.05,5.23,6.28,6.28,9.84,2.43.63-.68.66-2.08,1.36-2.51a4.09,4.09,0,0,1,4.88.28c2.27,1.88-1,2.08-1.15,3.26a15.29,15.29,0,0,1-.67,2.12c1.13,2.07,3.1,1,4.68,1.28,4.77.82,10-1.75,14.4,1.74,2.89-2.93,7-.85,10.23-2.48a17.8,17.8,0,0,1,13.82-.69c4.79,1.71,9.25,1,14.65,1.38-2.08-3.76-2.56-8.07-8.13-7.24-.83.12-1.79-1-1.83-2-.05-1.25.93-1.55,2-1.57a3.73,3.73,0,0,0,.75,0c2.07-.57,6,1.43,5.55-2.65-.41-3.48-4.1-1.56-6.31-1.79-3.21-.34-6.49-.1-9.72-.32a2.42,2.42,0,0,1-2-2.73c.38-1.45,2.17-1.33,2.9-.36,1.41,1.87,3.16,2.18,5.25,2.13,17.12-.42,34.11,2.79,51.29,1.82A59.64,59.64,0,0,0,469,1205c1.33-.36,4.09-4.86,3.89,1.14,0,1.16,2.1.77,3.29.88,5,.47,10.52-1.71,14.45,3.56.59.79,2.84.39,4.33.46,2.74.12,5.72-.48,8.17.4,4.5,1.62,7.68,1.48,11-2.65,2.06-2.59,5.85-2.85,8.67-.1,2,1.9,3.39,3.52,6,.67a3.65,3.65,0,0,1,5.38.3c2.37,2.47,5.1.9,7.24,1.24,2.17-2-.11-3.05,0-4.43s-.64-3.24,1.42-3.65c1.84-.37,2.2,1.69,3.23,2.64s-.2,2.24.63,3.45c1.16,1.68,2.35,2.76,4.25,1.63,6-3.59,12.82-2.48,19.23-3.26a61,61,0,0,0,10.63-2.65c5.27-1.65,6.21-5,3.66-10-2.12-4.19-1-9.66-5.41-13-.68-.52-.73-3.4,1.36-3.39,2.69,0,3.6-2.45,5.66-3.15-2.41-2.68.27-6.19-1.5-9-1.16-1.84-2.18-3.77-3.2-5.55-2.4-.44-3.05,2.66-6,2.09,1.48-1.55,2.1-4.08,4.13-3.82,8.06,1.07,12-6.34,18.39-8.69,2.05-.75,2.68-5.08,4.78-6.12,2.52-1.25,4.75-3.22,7.87-3.7,2.27-.36,5.58-.14,6.61-3.71.22-.77,2.22-.54,3.58.73-3.7,5.24-14.12,5.44-11.92,15.44-6.81-1.27-10.81,2.88-14.67,7.27-2.58,2.94-2.47,8.94.22,11.32.35.32,1,.7,1.32.59,7.07-2.36,7.66,5.41,11.77,7.68a3.08,3.08,0,0,1,1.13,4.25c-.71,1.31,1.1,4.33,3.91,4.37,3.61.06,2.77,2.4,1.67,3.84s-3.14,2.29-5.6,4c4.08,1.32,5.88,4.34,8.38,6.64.88.8,1.32,1.65.95,2.52-.75,1.76-1.75,1-2.75,0-1.69-1.7-1.88.36-2.47,1.12-.77,1-.57,2,.75,2.08,4,.14,1.87,2.24,1.3,3.82-.84,2.35-4.53,2.25-4.57,5.46,0,1.72-1.12,1-1.85.32-3.43-3-5.18-.33-6.88,2.1s-3.14,3.8-4.36,4.3c-7.8,3.15-16.07,3.76-24.3,4.64-.49,0-1.21-.18-1.46.08-4.25,4.39-9.43,1.64-14.19,1.84-5,.21-10,0-15,0-3.89,0-6.4-3.15-9.86-4.35a5.23,5.23,0,0,0-6.39,2c-2,2.62,1.29,3.56,2.94,4.77,5.91,4.36,12.27,7.28,19.92,6.17,1.13-.16,2.34.27,4.21.51-5.48,4.14-11.2,2.69-16.3,2-3.43-.47-6.84-.87-10.29-1.06s-7.38.89-10.56-2.13a2.68,2.68,0,0,0-3.94.63c-.88,1.71.74,2.61,2,3.38a17.46,17.46,0,0,0,8.14,2.74c49.4,3.16,98.84.47,148.25,1.47a23.07,23.07,0,0,0,10.12-1.93c7-3.26,13.45-3.31,20.28.18a16.68,16.68,0,0,0,7.9,1.75c10.5-.21,21-.12,31.5-.07a21.7,21.7,0,0,0,10.48-2.82c4.42-2.3,8.94-5.13,14.52-4.8,4.22.24,7.8-2.46,11.64-3.91,9.59-3.64,19.71-5.1,29.67-7.12a37.12,37.12,0,0,1,11.19-.29c6.32.69,12-3,18.3-2.2a2.31,2.31,0,0,0,1.88-.9c3.84-6.91,11-8.18,17.58-10.49.93-.33,2-.31,2.52-1.34a4.34,4.34,0,0,0,.7-2c-.05-.81-.93-.89-1.65-1.09-2.41-.67-4.15,1.61-6.44,1.41-1-.09-2.29-.09-2.52-1.09a2.53,2.53,0,0,1,1.73-3c1.92-.43,4-.2,5.95-.43s5.4,1.24,4.7-3.4c-.26-1.74,1.88-1,2.87-1,4.54-.08,8-1.42,10.24-5.89,1.65-3.29,5.27-5,8-7.44a5.28,5.28,0,0,1,3.54,3.62c1.14,3.15,3.68,1.75,5.67,2.15,3,.6,2.65-1.41,3.19-3.41.85-3.15,3.06-3.45,4.14-.54,1.22,3.28,3.79,3,5.32,2.24,7.66-3.88,14.94-1,22.21.86,2.34.59,4.05.88,6.25-.43a44.51,44.51,0,0,1,22.88-6.25c4.86,0,10,1.21,14.2-2.72,1.16-1.09,2.82-.84,4.22-.06,1.14.65,2.5,1.25,3.52.47,3.16-2.42,5.72-.43,8.2,1,3.31,1.93,7,2.41,9.76.25,3.16-2.47,6.38-2.18,9.82-2.45,6-.49,12.42,1.9,18-2.33a2.6,2.6,0,0,1,2.18,0c10.25,4.8,21.2,4.12,32,3.71a124.33,124.33,0,0,0,27.36-4.52,14.12,14.12,0,0,1,4.33-.86,18.36,18.36,0,0,0,15.62-6.58c2.34-2.72,4.64-4.91,7.23,0,.55,1,2.56,1.48,4,1.8,1.87.42,4.23,0,3,3.26-.09.25.59,1.1.66,1.07,5.34-2.22,10.42,3.82,15.87.46,1.16-.71,2.22-1.16,2.12-2.58-.36-5,3.58-5.49,6.81-6.26,8.23-2,15.81-6.27,24.44-6.7a2.52,2.52,0,0,0,2.19-1.66c1.68-3.12,3-3.36,4.85.18,1,1.89,7.2,1,7.54-.85.92-5.07,3.63-3.8,6.83-2.52,3.64,1.44,3.78,1.24,3-2.68-.18-.92-1-2,.51-2.31,3.84-.79,6.74-4,11.12-3.69,6.57.44,13.07-.49,19.39,3.2,2.54,1.48,1,1.94.93,3.08,0,.74.63,1.16,1.49,1.27,7.74,1,15,4.88,23.19,3.64,3.62-.55,7.38,2.22,11.24,0a2.91,2.91,0,0,1,3.46.73c1.45,2,3.46,1.59,5.42,1.7,5.62.32,11.38-1,16.82,1.8,1.19.62,3.17-.29,5-.52.24,4,1.5,8.17-4.19,9.63-1.45.37-.74,1.67,0,2.31,2,1.72.63,3-.83,2.62-2.28-.66-3.87-.84-4.89,1.5-1.3,3,1.74,3.61,3.05,5.16a6.12,6.12,0,0,0,1.37.9,38.26,38.26,0,0,0-3.15,3.74c-1.31,2-4.2,4.27-1.83,6.43,2.15,2,5.58,4.5,8.7,2.4,4.33-2.9,11.55-2.59,11.89-10.39.11-2.48,4-2.23,5-3.81,4.55-6.65,11.82-6.49,18.4-8.5,3.63-1.11,7.78-1.66,10.5-5.65,2.42-3.53,6.16-6.32,11.25-5.71,1.64.2,3.94.69,4.85-1.07,3.08-5.89,8.79-4.91,13.5-4.65,6.35.35,12.1-2.3,18.28-2.33,3,0,3.8-3.14,5.65-4.81.82,3.52,3.46,3.69,6.32,3.44,2.38-.2,4.82.55,7-1.67,1.37-1.42,3.34-.71,5.39.16,3.9,1.66,8.2,2.82,12.23-.07a2.72,2.72,0,0,1,3.36-.2,13.37,13.37,0,0,0,14.41,0c1.68-1,4.16-1.25,4.81,0,2.15,4.31,3.37,2.43,5.69.1,6-6,13.92-5.31,20.91-3.75,4,.87,8.35,2.1,12.14,2.34,5.28.33,9.72,3.41,14.92,3.11,2.18-.13,4.64.54,6-1.94,3-5.39,8.88-3.41,13.3-5.12a5.34,5.34,0,0,1,4.81,1.32c3,3.78,6.9,3.21,10.81,3.26,1,0,2.39,0,2.81.63,4.09,5.84,10.3,3.71,15.14,2.93,4.27-.69,8.82-.14,13-2,2.12-.94,4.32,1.16,6.79,1,2.94-.15,5.45-3.58,9.1-.41,1.81,1.57,3.18-3.89,6.67-3.07,2.89.69,1.76,4.91,5,4.84,2.21,0,4.32,0,6.38,1.41,1.63,1.08,2.75-.91,3.44-2,2.76-4.43,6.87-5.71,11.57-4.79s9.29-2.62,14.21-.6c1.32.54,1.43-1.62,1.18-2.78-.43-2-3-4.93.21-5.55,3.72-.73,2.64,3.08,2.62,5.3s.9,3.15,3,3.38c3.08.34,6.16.65,9.23,1,11.16,1.18,22,4.83,33.32,4.72,2.3,0,4.26,3,6.81.71.12-.11,1.09.32,1.11.54.62,7.44,7.32,5.09,11.26,6.49,5.18,1.83,10.05,5.35,16,4.5,3.57,6.3,9.83.48,14.29,3.11,1,.58,2.36-.19,2.9-1.62.44-1.19,1.35-1.49,2.14-.42,3.53,4.82,8.78,3.35,13.45,3.57a20.83,20.83,0,0,1,8.95,2.5c5.24,2.67,10,7.4,16.73,6.13a5.75,5.75,0,0,1,4.86,1.49c1.47,1.27,2.65,1.11,4.55.47,2.73-.93,5.93-1.24,8.64.54,1.63,1.06,3.32,1,5,.92a15,15,0,0,1,9.6,3c3.44,2.4,7.55,4.26,12.35,3.74-.21,2.7-4.62,2.07-3.33,5.83.82,2.4-3.56,3-4.6,5.06-1.52,2.94-3.64,1.76-5.82,2.32-5.6,1.43-11.39,2.71-16.41,6.44-3.59,2.65-6.59,7.05-12.06,6.44.32,2.93,2.84,5.31.18,8.4-.86,1,.09,4.66,1.35,6.15,5.45,6.45,11,12.48,20.87,12.28,19.49-.41,39-.14,58.49-.11,2.75,0,5.49.18,8.23.27v88.45H0Z"/><path class="cls-1" d="M793.5,0c2.85,6.12,9.19,4.55,14,6,3.16,1,6.85.18,10.59.18-3.39,3.66-7.55,3.35-11.39,2.89-5-.61-6.56,1.84-7.3,6.93,5.55-1.91,10.4-5.3,16.06-3.27.94,4.13-3.52,3.29-5.2,5.49a3.38,3.38,0,0,0,4.54,1.19c6.2-4.57,13.43-2.74,20.19-3.52,2-.23,3.46-.14,5.33-1.47,3.89-2.79,9-2.2,13.23-1.6,3.61.52,7.34.26,11,1.18a6.81,6.81,0,0,1-5.91,2.66c-4.66-.3-8.17,3-12.38,3.91-2.67.6-1.28,3.82-3.4,4.37-3.52.92-5.88,4.82-10.18,3.81a3.26,3.26,0,0,0-2.73.82c-3.8,5-10.24,7.72-12,14.37,1.43,1.14,2.73.52,4.09-.22,1.15-.64,3.18-.83,3.44.06,1.58,5.39,6,4.12,9.75,4.6a1.54,1.54,0,0,1,1.21,2.24c-.43,1-1.23,1.19-2.24.21-2.74-2.67-6.13-.88-9.23-1.12-2.7-.22-5.16,5.14-8.1.35a14.49,14.49,0,0,0-1.35,1.69,1.39,1.39,0,0,0,.75,2.29c2.61,1.12,4.79,3.47,8.08,2.66,3-.74,4,1.39,4.62,3.6s-.52,1.4-1.88,1.24c-2.93-.36-2.79,2-1.7,3.31,1.26,1.54,3.33,2.66,2,4.84-1,1.7-3.26.64-4.89,1.09a6.26,6.26,0,0,0-1.29.72c-.93,2.51,3.56,2,2.44,4.87-3-.08-6.07.94-9.15,1.74a3.38,3.38,0,0,0-2.73,2c-2.25,4.92-2.33,4.86-6.95,1.37A5,5,0,0,0,802.8,81c-.2,0-.45.17-.67.26,1.78,5.55,2,5.93,9,7.27,2.32.45,3.79.82,3.63,3.45-.14,2.16,1.29,1.08,2.32,1.3,2.93.65,1.56,3.16,1.54,4.84s-1.79.72-2.44,1c-5.1,2.42-8,.12-10.69-3.9-1.07-1.63-3.53-1.62-4.59-4.41L794,101.27c12.12,2,12.12,2,14.3,4.71-9.59,5.56-19.22,10.64-30.8,9.78-4.74,3.95-11.8-.09-16.59,5.13a46.08,46.08,0,0,0-5.16,5.93c-1.83,2.84-3.83,5.24-7.48,5.25-1.71,0-2.64.87-3.75,2-.77.77-2.21.86-3.34,1.27-2.71,1-3.6-4.54-6.07-2.12a10.82,10.82,0,0,1-6.38,3.22c-3.41.55-4.26,5.22-8.07,5.46a4.09,4.09,0,0,0-.16,2c1.66,6.88-1.36,11.66-7,15-1.47.89-2.28,1.29-1.84,3.25,1.28,5.71-1.58,10.56-3.78,15.46-2.13,4.74-5.69,5-9.23,1.23a47.47,47.47,0,0,0-7.76-6.07,3.15,3.15,0,0,0-2.89-.14c-6.35,4.62-8.56-2.42-10.67-4.92-3.38-4-6.1-8.76-9.52-12.91-.62-.75-1.48-1.62-1.54-2.48-.46-6.65-4.84-10.79-9.08-15.21-1-1.07-2.65-3.18-1.36-5.4s1.69-4-1.3-5.33c-1.16-.53-.79-2.18,0-3.29s2.22-2.13,2.12-3.81c-.22-3.56,2-3.9,4.79-3.94,5.45-.08,7.24-1.77,7.62-6.93.11-1.48-.17-2.29-2-3.16-3.87-1.83-7.42-4.31-11.88-4.69-.62,3.88,3.21,4.22,5.26,6.81a19.69,19.69,0,0,0-4.35,1.47c-2.56,1.3-7.5-2.1-7.7-4.87-.05-.74,5.5-5.1,6.52-5.19a10.56,10.56,0,0,1,6.23,1.74c1.07.6,3.72.88,4.6-1.09,1-2.2-1.65-2.61-2.39-3.9-1-1.79-6.22.13-3.88-4.52.34-.68-1.33-.66-2.33-.53a88.29,88.29,0,0,1-10.11,1c-2.32,0-3.81-1-2.63-3.82a25,25,0,0,0,.74-3.62c.82-3.23,1.91-6.3-2.39-8.31-1.22-.57-1.44-3.07-2.38-4.5-1.72-2.59-2.69-6.12-7-5.86-.7,0-1.73-1-2.18-1.77-3.82-6.68-10.86-7-17-7.71-4.59-.51-9.2-1.91-14.09-1.05-5.31.93-11.08-.07-16.13,1.46-3.74,1.14-6.21-.93-9.28-1.12-.66,0,2.17-3.93-1.85-3.06-2,.44-3.49-2-6-.73-1.18.58-1.11-1.74-.52-2.78,2.35-4.16,2.38-4.09-1.48-5-2.61-.64-5.18-1.44-7.68-2.15-.18-2.72,1.74-2.07,3-2.3,5.22-.92,10.49-1.4,15.38-3.89,2.94-1.49,6.39-.42,9.61-.62,2.69-.17,5.33.15,8-1.18,2.41-1.19,3.4-2.28,2.92-5.07-.54-3.19-2-3-4.66-2.73a23.78,23.78,0,0,1-5.81-.29c5.95-5.24,13.88-4.6,20.56-7.44,1.81-.76,3.23.67,4.84,1.24,2.39.83,5,1.21,5.21-2.8.17-3.14,2.59-3.81,5.21-3.74,4.27.11,8.3-.75,12.5-1.57,6.49-1.27,13.69-3.22,20,1.49.81.6,2.06,1.43,2.55.32,2.06-4.67,4.72-1.71,7.17-.71a8.13,8.13,0,0,0,5.56.26c3.79-1,1.36-2.85,1.26-5,10.28,1.37,20,5.41,30.77,6.43-2.11-4.53-5.55-5-9.22-5.19,5.8-7.35,13.78-6.58,21-5.67,5.32.67,10.56-1.62,15.85.49,1.57.62,2.77-1.66,3-3.56Z"/><path class="cls-1" d="M0,112.44c8.35,1.86,15.3,7.21,23.53,9.47,2.61.72,2.65,3.94,3.46,6.16,1.48,4.06,2.78,4.64,5.61,2,3.09-2.87,8.22-3.78,10.87-1.06s5.72,3.66,9,4.9c-3.43,1.69-6.07,4.71-10.31,4.57-1.39,0-1.4,1.8-1.46,3a3.22,3.22,0,0,1-1.79,2.94c-1.8,1-3.94,2.18-5.41.75-2.8-2.74-8.53,1.75-9.85-4.43-.55-2.53-6.16-4.64-8.85-3.64-3.3,1.23-5.56,1.92-5.95-3-.28-3.42-3.6-2-5.48-1.67-2.37.37-2.22,2.2-1.09,4,1.73,2.76.55,4.08-2.31,4.52Z"/><path class="cls-1" d="M0,93c3.89.1,8.2-2,11.85,2.45C7.62,96.65,3.79,96.08,0,96Z"/><path class="cls-1" d="M1860,96a5.58,5.58,0,0,1-3.76-.37c1.11-1.16,2.1-2.34,3.76-2.63Z"/><path class="cls-1" d="M340.43,416.84l-.06-.2.21.06Z"/><path class="cls-1" d="M519.08,572.69l-.13,0c0-.06,0-.12,0-.18Z"/><path class="cls-1" d="M642,232.88c-.17-2.34-2.8-2.57-4.67-2.33-2.21.27-2-1.05-2.72-2.39-2-3.81-4.51-6.94-9.09-8.62-5.79-2.11-10.5-5.85-10.72-13.14-.06-2.05-1.36-4.29-2.66-6-5.1-6.81-10.71-13.24-14.6-20.91-2.66,1.33-4.45,3.17-4.5,5.31-.15,5.06-4.77,5.92-7.33,8.66-1.33,1.43-3,1.24-4.81.46-8.41-3.59-11.18-8-10.58-17,.06-.87,1.22-1.72,0-2.83-2.29-1.1-6.36.95-7.43-1.64-1.62-3.92-6.09-3.82-7.83-7a4.76,4.76,0,0,0-5.15-2.26c-5.51.91-10.75.26-16.15-.86-5.11-1.06-6.08.57-3.86,5.29.28.59,1.25.94.74,1.77-2.07,3.37-.77,6.43.63,9.59.81,1.83,0,3.35-.85,5.25-1.13,2.43-3.26,4.31-3.81,6.53,1.26,3.29,4.7,2.72,6.49,5.22,5.65,7.93,2.32,20.67-6.77,24.07-1.14.43-2.55.25-3.58.81-1.32.71-2.58,2.1-1.43,3.63,3.3,4.38,1.91,10,4.4,14.76,1.41,2.69-.39,6.08-3,7.8-3.83,2.56-5.13,2.05-8.32-1.53-.81-.9-2-1.43-2.9-2.29-5.61-5.43-7-12.45-6.52-19.75.29-4.8.81-4.83-4.16-5.63-1.71-.28-3.5,0-5.23-.22a35.26,35.26,0,0,1-19.81-8.25c-5-4.27-10.66-7.49-17.87-5.57-4.12,1.09-5.15.42-5.87-4.28s-1.93-8.63-7.7-9.11c-1.91-.16-3-1.69-3-3.69,0-5.17-.36-10.16,3.22-14.82,2.08-2.71,4-5.74,6.38-8.07s4.28-5.31,8.55-5.86c2.81-.37,2.78-5.7,6.41-7,1.37-.51,2.61-1.28,4.13-1.22,2.43.1,4-1.14,5.86-2.69,2.51-2.14,5.07-4.1,5.53-7.55.35-2.61,5.7-3.85,2.06-7.6-.26-.27.67-1.15,1.51-1.13,1.5,0,3.4-.54,4.42.17,4.76,3.3,9.12-.37,13.59-.68,2.3-.16,5-2.07,6.68-4.32,1-1.29,1.54-3.06-.41-3.64-5.54-1.67-3.59-4.23-1-6.83,1-1,2-2.68,1.3-3.08-3.13-1.74-4.4-6.18-8.66-6.09-3.7.07-7.46-.56-11.77.73,3.06,4,.52,7.58-.68,11-.73,2.14-3.21,3.62-4.61,5.61-1.16,1.66-2.56,2.43-4.41,1.94a5.13,5.13,0,0,1-4-4.76c-.09-1.17.48-2.39.67-3.6.45-2.89-.82-4.25-3.65-5.18s-4-.33-4.85,2.43c-.45,1.43-1.1,3.43-4,3.29,1-3.15-3.73-5.78-.35-9.24a7,7,0,0,0-1.29-.34c-2.23-.13-4.72.37-6.64-.46-3.55-1.53-1.49-3.69.08-5.56a.7.7,0,0,0-.18-.65C449.71,98.87,449.47,91,442.24,90c2-2.13,4-3,4.47-5.1.29-1.36,1-2.45,2.46-2.16,7,1.37,8.94-4.35,13.19-8.45-5.53-1.28-10.27-1-14.76-1.28-9.41-.49-10.08.92-8.6,10.56a10.33,10.33,0,0,1,.22,3c-.43,3.21.63,6.88-4,8.51-2.88,1-1.52,4.45-1.64,6.72s2.07,3.36,4.2,3.28c3.44-.13,6.24.86,6.27,4.57,0,2.9.12,3.47,2.9,2,.88-.48,1.36,1.32.88,2.2-1.19,2.17-2.58,4.25-5.12,5.1-2.35.8-4.53,1.62-3.61,4.9.11.4-.69,1.34-1.26,1.59a2.17,2.17,0,0,1-3.1-1.15c-.42-1-3.38-1.09-1.16-3.2,1.76-1.67.62-2.5-1.22-2.79-1.39-.23-3.19.21-3.2-2a2,2,0,0,1,1.95-1c1.74-.13,4.07-.07,4.14-2.13,0-1.43-1.5-3-2.65-4.29-.57-.62-1.9-.46-2.8-.85-4.73-2.06-5-1.81-7.54,2-3.21,4.83,3.47,2.62,3.44,5.8-2.75.83-1.77,5.8-6.14,5.84-9.14.09-18.39.76-27.16-2.31-2.28-.8-4.88-2.54-7-3.1s-4.69,3.07-7.63,3.35c-3.54.33-3.3,2.35-2.52,4.68.38,1.14,1.44,2.17-.52,3-3.2-5.82-9.38-6.73-14.58-6.3-6,.5-11.92.36-17.86.62-1.56.07-3.7.78-4.39-1.62-.63-2.16,1.67-2.77,3.54-4.07-3.43-1.48-7-4.12-8.16-3.32-4.69,3.23-8.71.28-12.65-.65-5.11-1.19-10.68-.92-15.22-4.75-2.48-2.1-6.26-1.59-9.27-.17-2.1,1-2.9,4-6.07,3.66-4.5-.5.75-5.67-3.77-6.15-2.32.8-1.58,4.83-4.49,5.77a19.4,19.4,0,0,1-6.94-6.3c-1.67-2.5-3.91-4.36-6.17-.43-1.32,2.3-3.32,2.58-5.7,2.68-3.7.14-7.22,1.62-11.11.08-2.48-1-5.22.22-7.74,1.6-1.66.9-3.21,2.54-6.06.52-2.47-1.76-6.53-.72-8.19,2.79-1.56,3.32-3.53,2.85-6.56,2.24-6.66-1.34-12.24-6.47-19.52-5.43-9.18-6-20.09-2.37-30.09-5.42-10.79-3.29-22.78-1.16-34.16-3.94-4.32-1-8.8-1.31-12.92-3.44-2-1-4.41-1.22-6.29.55-3,2.8-6.65,3-10.43,2.89a12.13,12.13,0,0,0-6.34,1.56c-1.89,1-3.93,2.28-6.34,1.92-3.76-.58-6,1.11-7.44,4.57s-4.28,4.52-7.65,6.05-8.11-.51-11,3.84a25.66,25.66,0,0,1,15,7.71c1.74,1.86,4,3.61,7.14,3.12,1.94-.31,2.74,1,2.15,2.81-1.31,3.87-8.78,6.25-11.53,3.24-2-2.19-4.88-2.52-5.82-1.56-3.87,4-9.92,1.79-13.79,5.59,2,.9,5.55,0,5.85,2.38,1,8.17,7,5.69,11.49,5.51,6.26-.25,12.62-.3,18.9-3,.35,3.4-1.79,5.8-.16,8.65,1.22,2.15-.28,3.63-3,3.6-2.18,0-4.79-.69-6.24,1.53-2.85,4.34-5.78,2-8.87,0-1.93,2.4-1.83,5.5-4.78,7.37-3.36,2.14-2.83,4.4.53,7.8,1.25,1.26.84,2.78,1.4,4.08,3.47,8.14,5,8.56,12.91,3.63,1.71,2.41,3.71,4.61,3.43,8-.24,2.73,1.32,3.57,3.81,2.61,3.11-1.19,6.15-2.15,8.67,1.16a2.27,2.27,0,0,0,1.16.6c2.8-3.84,7.06.23,10.29-2.21-3.58,4-1.77,9.62-5.62,13.65-3.52,3.7-9.48,4.23-11.78,9.39a5.9,5.9,0,0,0,4.68.54c3.16-.8,4.64-4.5,7-5.33,6.61-2.35,10.25-8.49,16.31-11.32,2.56-1.19,5.68-4.64,4.87-5.87-3.22-4.92,1.48-5.55,3.42-7.14s3.61-2.78,4.58-5.4,3.77-4.38,6.46-5.77c2.09-1.07,4-1,6.83,0-2.46,1.78-4.26,3-5.91,4.31-2.1,1.71-2.57,4.16-2.25,6.65.26,2.11,1,4.19,3.76,2.2a20.88,20.88,0,0,1,13.19-4.1c1.89,0,2.91-1.33,2.05-3a3.4,3.4,0,0,1,1.43-5c1.76-1,3.61-.56,5.33,1.15,3.91,3.88,10.45,2.49,14.3,6.77a1.5,1.5,0,0,0,1.42-.07c3.1-3.9,6.11-.32,8.95.3,4.88,1.07,10.61-.19,14.28,4.64,4.77-.35,5.69,5.28,9.66,6.2a7,7,0,0,1,5.72,5.92c.6,3,3.19,6.14,5,6.66,4.56,1.31,5.27,5.24,7.8,7.87a6.11,6.11,0,0,1,1.81,4.41c.15,2,1.53,2.28,3.2,2.24,1.39,0,2.19.05,1.73-2s1.29-1.48,2.46-1.06c3.41,1.22,5.82,2.87,6.59,7.11.47,2.59-.64,6.53,2.6,7.93,4.07,1.75,4.87,5.85,7.37,8.69,3.31,3.76,4.41,9.3,9.5,11.67a1.38,1.38,0,0,1,.43,2.41,2.92,2.92,0,0,1-2,.44c-1.81-.22-2.49-3.55-5.22-1.71.15.53.13,1.39.54,1.74,4.1,3.51,8.11,7.16,12.5,10.27,2.17,1.53,4.55,2.78,6.65,4.48.94.75,2.7.81,3.4-.32s-.07-2.36-.95-3.36a4.41,4.41,0,0,0-3.31-1.45c-2.39-.12-3.19-2.12-4.2-3.79-.38-.61-.6-1.48.18-1.94a3.2,3.2,0,0,1,2.07-.53A12.74,12.74,0,0,1,296.85,270c.12,4.43-.12,4.67-4.2,2.49-1.22-.66-2.27-1.19-3.37-.5-1.49.93-.32,2.06,0,3.19,1.66,5.41,2.89,11.15,2.16,16.61-.88,6.62-1,13.29-1.92,19.91s.56,13.64,1,20.41c.61,9.44,6.87,17.37,10.58,26,2.2,5.15,5.65,9.64,7.41,14.91.71,2.15,1.37,2.78,3.55,3.64,5.65,2.23,11.51,5.36,13.42,11.48,2.05,6.59,6,12.5,7,19.36.75,4.89,3.21,7.86,7.85,9.12-1.12-3.92-2.67-7.69-3.32-11.81-.38-2.41-1.29-4.59,1.31-5.68a6,6,0,0,1,6.74,1.38c3.07,2.8,3.43,6.47,4.08,10,.52,2.8.59,6.92,1.75,8.17,2.16,2.32,3.77,5.17,6.16,7.2,1.72,1.46,2.37,3.46,3.53,4.95,3.35,4.33,7.26,8.11,7.95,13.91.05.44.49.86.82,1.23,5.51,6,9.78,12.95,14.26,19.74a20.91,20.91,0,0,1,3.56,11.86c0,2.74-.26,5.48-.21,8.22.07,4.09.9,7.73,5.5,9.34,1.77.62,3.76,1.52,3.73,4.1,0,1.82,1.22,2.36,2.83,2.83,4.2,1.21,7.48,4,10.91,6.61,6,4.63,13,7.73,19.77,11.19,2.45,1.26,3.25,1.27,5.55-.19,6.57-4.14,10.28-3.12,15.13,3.29,1.19,1.56,1.87,3.52,3.06,5.08,2.51,3.3,4.77,7,9.77,7a6,6,0,0,1,3.31,1.5,14.5,14.5,0,0,0,10.33,3.38c1.47-.09,3.28,0,3.12,2.14-.25,3.43,2.25,5.31,3.89,7.74,2.59,3.85,6.15,7.36,5.07,12.73-.42,2.09,1.09,4.1,2.59,3.71,3.62-.94,4.81,2.72,5.26,3.72,3.28,7.29,11.88,8.5,16,14.66.52.78,1.83,1.91,3.17.91a1.81,1.81,0,0,0,.42-2.64c-1.92-2.61-1.15-4.5,1.29-6.23,1.32-.93,1.2-2.5,1.26-3.94A31.92,31.92,0,0,0,515.6,574c-5.89,2.92-6,3-10-2.63-.61-.86-1.5-1.24-2.08-1.93-3.63-4.26-6.8-9.77-6.09-14.71,1-6.78.51-13.89,2.9-20.41C503,527.06,496,518.63,487,521.14c-5.24,1.45-10.5.66-16.18.21.88-3.66,4.17-5.15,4.43-8.33.5-6.28-1.41-13,3.29-18.56-1.61-5.92,2.19-10.61,4-15.65-2-1.14-3.76-.64-5.46-.88-2.38-.33-4.32,1-6.47,1.48-5,1.14-6.54,2.42-6.69,7.1-.14,4.42-2.35,8-3.53,12-.39,1.34-1,2.74-2.36,2.1-4.95-2.4-8.66,1.63-13,2.2-.77.1-1.22,1.73-2.32.53-3.22-3.49-8.68-4.82-9.85-10.33-.46-2.17-2-4-2.75-5.94-1.6-4.08-3.61-8.08-4.3-12.54-2.16-13.75,3.5-27.12,1.91-40.84,0-.41.52-.87.61-1.34,1-5.79,4.08-9.36,9.21-12.93,9.08-6.3,13.37-7.88,22.89-3.12,1.43.71,2.91.49,4.37.68,2.62.34,3.72-1.18,4-3.35.28-2.54-1.85-1.58-3.07-1.71s-2-.47-1.77-1.71a2,2,0,0,1,2.21-1.63c4.82.27,9.51-1,14.39-.89,3.71.12,6.82-.21,9,3.33,1.83,3,3.79,2.8,5.69,0,.61-.9,1.36-1.42,2.39-.45,3.64,3.44,7.9,7.28,7.12,12.4-1.46,9.53,3.76,16.27,7.87,23.62a1.84,1.84,0,0,0,2.49,1,2.52,2.52,0,0,0,1.05-1.73c.59-4.9,1.5-9.76,0-14.71-2-6.86-3.68-13.81-5.69-20.66-1-3.52-.19-6.62.61-10.08,1.89-8.19,10.71-11.35,13.06-19,.1-.33.78-.6,1.24-.7,3.95-.88,5-6.41,9.86-6,1.3.11.76-1.42.65-2.32-.16-1.29-.15-2.75,1.29-3.12,2.87-.75,1.94-2.06,1.62-4.3-1.12-7.65-3.62-15.19-2.72-24,1.54,2.78.18,5.42,2.05,7.12,1,.87,1.93,1.68,3.26.9,1.12-.65,2-1.61,1.53-3-.52-1.61-2.38-2.64-2-4.77,5.29-.57,7.7-3.86,7.88-9,.12-3.2,1.77-6.77,4.28-6.75,5.33.05,8.83-3.41,13.34-4.76-.63-2-3.1-2.85-2.12-5.44,1.3-3.4,1.42-7.61,5-9.47s5.91-6.11,10.69-5.68a4.15,4.15,0,0,0,3.69-2.2c2.48-4.08,7.38-3.51,10.64-6a2.12,2.12,0,0,1,3.25.42c.93,1.31.35,2.41-.7,3.21a19.33,19.33,0,0,0-5.64,5.86,3.52,3.52,0,0,0,1,4.69c1.76,1.4,2.88-.47,3.5-1.41,2.79-4.25,7-5.87,11.6-7.13a13.26,13.26,0,0,0,6.13-3.77c.15,0,.3-.16.46-.49s0-.68-.36-1.05a30.4,30.4,0,0,0-8.75-1.25c-4.64-.23-9.5-4.69-9.32-9.08.17-4.14-1.1-6.54-5-7.67-.95-.27-1.84-.8-1.68-2.09.85-1.2,2.11-.94,3.31-.87,3,.16,5.37-1.06,6.4-3.7.68-1.74-3.43-3.57-7.26-3.52a13.89,13.89,0,0,0-6.94,2.34c-3.55,2.15-6.78,4.81-10.14,7.26-1,.7-1.9,2-3.15,1s-.45-2.14-.09-3.38c2.18-7.49,11.72-7,14.69-13.6a3.62,3.62,0,0,1,2.45-1.44,25.72,25.72,0,0,1,4.48-.16c7.75,0,15.51-.2,23.24.08,3.84.14,6.7-.75,8.9-4,2.43-3.62,5.71-6.12,10.37-6.08,2.53,0,4.1-1.84,5.66-3.27C643.66,240,642.21,236.19,642,232.88Zm-144.46,75c-.24-.6-.83-1.35-.67-1.87.66-2.1,1.72-4.09,2.32-6.21.89-3.14-1-5.26-3.31-6.82-2.73-1.88-4,1.13-5.38,2.4-4.07,3.69-6.9,7.7-5,14,1.2,3.91,1,8.46-2.61,11.8-2.32,2.16-4.18,1.75-5.64-1a15.23,15.23,0,0,1-1.36-10.15c.68-3.62,1.76-6.79.21-10.72-1.35-3.42,5.66-10.81,9.84-11.3,2.36-.27,4.87.44,7.65-1-1.55-2.64-3.43-2.63-5.71-2.26a22.07,22.07,0,0,1-9.64-.14c-1.46-.43-3.41-.62-4.39-2.41-.19-.35,1.69-4.43-1.37-1.2-4.24,4.46-9.65,3.6-14.88,3.72-1.81,0-1.82-1.28-1.63-2.56a3.77,3.77,0,0,1,.59-1.33c.74-1.21,17.83-14.67,19.19-15.18,2.2-.83,4.3-1.05,6.28.64,1.1.94,3.22.54,3.69,2.19,1.37,4.73,8.05,5.28,8.25,11.05.17,4.87,4.31,6.32,8.12,6.81,3,.38,5.81,1,8.69,1.63,1.82.4,3.81-.46,5.09,2a14.33,14.33,0,0,1,1.72,9.25c-.28,1.66-1.91,2.23-2.72,1.52-3.59-3.14-4.26.77-5.47,2.32-.79,1-.56,2.83-.67,4.3-.14,1.94-1.14,3.62-2.85,3.91-2.18.36-2.64-1.79-3.1-3.46-.25-.93-.35-1.91-.51-2.82C499,304.59,499.88,308.09,497.5,307.91Zm25.07,7.52c-5.9,3.72-11.19,9-19,8.12-3.87-.44-4-1-1.74-5.22a9.23,9.23,0,0,0,.52-2.83,1.74,1.74,0,0,1,1.48-1.71c2.09-.21,1,3.1,3.23,3.35,3.06-4.87,8.94-3.5,13.44-5.53a2.06,2.06,0,0,1,2.52,1.06C523.4,313.57,523.45,314.87,522.57,315.43Zm11.53-5.36c-2,.17-4,0-6,0v.16c-1.73,0-3.47,0-5.2,0-1.39,0-3.19.58-3.61-1.46-.27-1.32.88-2.19,1.73-3.08a5.14,5.14,0,0,1,4-1.69,11.48,11.48,0,0,0,7.54-2.11c1.78-1.29,4-.7,5,2.33C538.87,308.27,538.31,309.69,534.1,310.07Z"/><path class="cls-1" d="M526.52,572.68c3.9,1.37,4.13,5.94,8,9.18-.5-8,7.33-11.41,7.38-18.87,0-3.65,6-2.9,7.37-6.44,5,.56,7.23-3.2,9.81-6.38.83-1,1.84-1.93,2.95-.58.74.91.08,1.67-.91,2.28-3.68,2.27-.59,5.13-1.67,8.65,4.34-1.73,6.78-4.17,10.1-5.08,5.09-1.39,6.27-1.55,7.71,3.4,1,3.39,2.75,3.62,5.38,3.54,3.75-.12,7.43-.25,10.16,3.23,1.08,1.37,2.71.83,3.88-.43,1.57-1.69,3.75-2.24,5.76-3.13,3-1.33,3.19-1.46,4.75,2.05,1.67,3.75,6,3.16,8.39,5.65,2.12,2.21.32,6.14,4.55,7.85s6.91,5.7,8.83,10.31c2.73,6.59,7.22,11.12,16,9.08a8.69,8.69,0,0,1,7.06,1.55c5.29,3.61,9.5,8.3,13.87,12.85a3.88,3.88,0,0,1,1.32,3.34c-.9,5,1.77,9.12,3.62,13.36,1.74,4,2.39,7.5-1.52,10.66-1,.84-2.22,2.16-1.34,3.89s2.42,2.23,4.35,2.18c7.24-.19,7.23-.14,7.12,7.16A9.57,9.57,0,0,0,680,654c2.13-3.89,4.84-7.15,9.15-4.72,5.52,3.1,13.4,4.56,11.36,14.86,4.08-1.71,7.19-2.09,10.83-.33,2.92,1.42,6.71,3.57,10.6.9,1.31-.9,2.86.62,3.83,1.71,2.77,3.09,6.05,5.7,8.17,9.39,2,3.52,4.67,6.29,9.28,6,2.72-.15,4.26,1.94,4.9,4,3,9.6,4.37,19.25-1,28.57-1.61,2.79-3.32,5.51-5.19,8.16-2.34,3.32-4.88,6.51-5.73,11-.55,2.93-.68,7.77-5.52,8.92-1.87.44-1.43,2.39-1.45,3.81,0,5.24-.09,10.48,0,15.73a55.37,55.37,0,0,1-2.91,18.15,13.62,13.62,0,0,0-.55,5.16,20.41,20.41,0,0,1-2.25,10.79c-3.33,6.74-5.11,14.13-9.3,20.58-1.54,2.36-2.78,2.94-5.11,3-4.49.12-9.69-1.61-12,4.53-.47,1.29-1.84.12-2.6.51a28.53,28.53,0,0,0-14.79,17.08,11.42,11.42,0,0,0-.45,5.19c1.3,8.31-.11,15.71-6.05,22.11-1.4,1.51-2,3.95-2.51,6.07-.74,3-1.64.82-2.63.3-.69-.36-1.83-.17-1.9.52-.4,3.86-4.54,5.95-4.53,10,0,8.9-6.76,14.65-10.3,21.9-.73,1.49-2.35,1.69-3.91,1.72-6.23.13-12.4.09-17.08-5.94-1.8,2.62-2.56,4.34-.18,6.7s6.1,4.16,3.54,8.56a1.53,1.53,0,0,0,.49,1.32c3,2.06,4.1,4.14,2.26,8-2.08,4.33-4.1,8.2-8.71,10.36-4,1.86-8.62,1.29-12.47,3.85-1.47,1-3.85.15-5.88-1.39,2.6,5-2.4,9.11-1.14,14,.45,1.79-1.4,2.27-3,2.47-2.55.33-4.83-.61-7.24-1.23-3.53-.92-5.06.5-3.79,3.73,3.08,7.85.95,15.47-1.07,22.87-.7,2.58-2,6.52-6.5,7s-5.07,5-5.38,7.86,2,5.64,5.61,6.92c4.94,1.72,5.36,3.85,1.6,7.27-4.05,3.69-8.59,6.8-8,13.24.15,1.6-1.56,1.6-2.57,2.21-5.63,3.42-6.16,4.83-4.19,10.72,1.85,5.55,1.91,5.67-3.79,8.35-3,1.41-6.29,2.66-6.18,6.51.1,3.27-4.17,1.59-4.18,4.79,2.8,1.91,6.44.05,9.63,1.66,2.28,1.15.81-3.54,3.36-4.4,1.05-.36.45-2.68-1.62-3-.92-.13-2-.14-2-1.54,6.21-2.22,6.4-2.3,8.62,2.67,1.42,3.2,4.8,4.11,6.74,6.69,1.24,1.64,3.38,2.6,5.28,4-3.81,3.61-8.8,3.19-13,4.93-1.64.69-3.18-.55-4.8-1.12-3.89-1.38-6.52-6.2-11.72-4.32-.68.25-2.6-1.47-3.15-2.65-1.76-3.78-6.83-5.8-5.7-11.24.25-1.18-1.42-3-2.61-4.15s-1.71-1.75-.46-3.46c2.59-3.55,2.39-3.69-1.61-4.78-.47-.13-.95-.2-1.39-.37-.22-.08-.38-.32-.56-.49.62-4.22,3.71-8.59-2.45-11.9-2.68-1.45-1.34-12.13,1.59-13.39,3.32-1.43,2.83-3.66,3.43-6.32,1.07-4.73-3.93-1.86-4.5-4.73,4.86-3.67,3.37-10,5-16.51,2.43,3.74.36,7,2.4,9.79,4-3.75,2.71-9.15,4.36-13.51,1.47-3.88.23-8.35,1.65-12.47.36-1-.59-3.23-1.59-3.84s-2.72.26-4.13.47l.13.07c-.92-5.37-1.59-10.53,2.14-15.5,1.5-2,.82-5.25-.07-8-1.43-4.39-.63-8.35,1-12.84,2.38-6.62,4-13.63,6-20.42s2.42-13.64,2.74-20.6c.22-4.54-2.54-9.45,1.39-13.62-2-14.14,5.38-27.44,3.65-41.62-.48-3.92.49-8.08,1.13-12.07,1.8-11.35,1.16-22.7.17-34-.13-1.5-5.24-8.14-7.22-10.42-4.19-4.84-9.85-7.82-14.59-11.94-5.34-4.63-9.65-9.68-9.78-17.48-.09-4.94-2.66-9.46-4.68-14-5-11-7.18-23.09-12.75-33.9-.67-1.3-.49-3.14-1.84-4-5.89-3.69-4.07-10.22-5.65-15.44-1-3.15,2.23-5.32,3.93-7.64,3.65-5,4.08-5.2.32-9.16-3-3.13-2.4-6.42-1.71-9.72.85-4.06,2.71-7.88,3.14-12.09a4.56,4.56,0,0,1,3.64-4.22c2.24-.59,2.91-2.36,3.53-4.38,1.31-4.3,1.62-9.08,6.07-11.91,1.12-.72,1.19-2.64,1.18-4.2,0-7,0-13.95,0-20.93,0-.74.22-1.77-.17-2.2-4.91-5.32-4.88-12.64-7.77-18.76A1.42,1.42,0,0,1,526.52,572.68Z"/><path class="cls-1" d="M1525.3,904.81c6.68-6.72,5.1-13.76,3.32-20.33a104,104,0,0,1-3.11-15.18c-.72-6-3.12-11.81-4.93-17.66-.59-1.87-1.45-3,.66-5s1.9-5.88,0-8.27c-5.57-7.07-1.42-14.74-1.9-22.09-.16-2.33,2.5-.61,3.13-2,2.09-4.5,7.11-6,10-9.73a2.89,2.89,0,0,1,3.13-1.37c2.65.51,4.62-.29,6.35-2.67a8.12,8.12,0,0,1,7.24-3.1c3.89.39,6-2,8.19-4.23,2.94-2.95,2.52-8,6.43-10.62.43-.28-.35-2.28-.45-3.5-.16-2-.38-4,.8-5.81a3.27,3.27,0,0,1,1.57-1.37c1.24-.32,1.72.63,1.92,1.67.27,1.47.38,3,2.44,3.68,1.13-2.89.62-5.77.19-8.67,1.69-1.62,2.48,2.73,4.11.68a3.75,3.75,0,0,0,1-3.91c-1.54-5.25,6.25-13.41,10.47-14.37,3.35-.77,5.23,1.44,5.78,4.41,1,5.59,5.29,1.27,7.86,2.46,1.53.71,1.94-2.32,1.78-4.56-.42-6,4.35-9.92,7-14.7.65-1.19,2.08-1.17,3.35-1.27a32.33,32.33,0,0,0,3.65-.5c2.12-.4,1.21-5,4.58-3.53,5.08,2.16,10.71,3.05,15.35,6.19a2.89,2.89,0,0,1-.06,4.92c-4.22,2.91-3.21,7.82-3.86,11.49s3.31,7,6.68,9.93c4.55,3.9,10.31,6.37,13.69,11.83,1.9,3.07,5.83,2.59,8-.74a13.56,13.56,0,0,0,2.29-6.94c.26-7.14,1.1-14.21,1.1-21.42,0-6.78.54-14.24,4.76-21.33.28,8.2,4.71,14.72,4.94,22.38a4.77,4.77,0,0,0,4.52,4.88c2.3.33,4.54,3,4.08,6.25a13.82,13.82,0,0,0,1.55,7.93c2.62,5.53,1.44,11.68,3.23,17.4.81,2.58,1.73,4.43,3.86,5.93a34.5,34.5,0,0,1,11.51,13.28,9,9,0,0,1,1.16,3.43c.09,3.75.33,7,5.39,7.15,1.86,0,1.81,2.11,1.8,3.59,0,3.68,2.26,6,4.19,8.87,3.59,5.38,9,10.18,8,18a18.36,18.36,0,0,0,1.34,10.11c1.23,2.69,1,6.57.17,9.55-1.35,4.66-.84,9.41-1.78,14-1.09,5.37-1.83,11.12-6.3,15.09a10.69,10.69,0,0,0-3.35,6.47,69,69,0,0,1-4.93,16.28c-1.21,2.89-1.27,5.75-1.36,8.73-.16,5.57-.5,6-5.93,6.17-3,.12-5.1.6-7.45,3.37-5.14,6.07-8.76,5.14-13-2.89-.63,3.4-3.24,4.26-5.12,5.92-.78.69-2,1.27-2.67.45-2.83-3.66-7.4-2.26-10.91-4s-6.32-4.61-6-8.68c.22-3-1-5.45-2.31-7.66-2.13-3.56-5.06-6.27-6.09-10.89-1.26-5.59-2.22-5.36-2-8.8a7,7,0,0,0-1.17-5c-2.71,5.43-6.72,8.89-10.6,12.84-3-3.57-4.93-8.18-7-12.3-1.57-3.18-3.72-4-6-5.56-5.5-3.63-11.34-5.7-18.1-4.87-2,.26-3.94.52-5.53,1.81a20.51,20.51,0,0,1-11.37,4.37,16.81,16.81,0,0,0-13,8.21,6.2,6.2,0,0,1-6,3.27c-4.64,0-9.17-.15-13.84,1.57-3.54,1.3-5.08,4.53-8.66,5.9-6,2.29-7.77,3-12.24-1.62A10.88,10.88,0,0,0,1525.3,904.81Z"/><path class="cls-1" d="M448.67,34.93c.52-.09,1.22-.26,1.94-.32,1.88-.16,2.67-1.23,2.31-3s-1.84-1.31-3-1.42c-2.58-.25-5,3.37-7.7.35-3.84,3.45-5-1.87-7.62-2.54-1.41-.35.65-6.12,3.11-7,4.79-1.81,9.56-3.85,14.95-3.31,1.88.19,3.08,1.13,4.58,2,3.06,1.8,5.75,4.74,9.9,4.09,1.78-.27,2.59,1.16,3.52,2.34.66.84,2,1.44,2.55.66,4.3-5.92,5.64.51,7.81,2,1,.71,1.15,2.76,3.11,2.23,1.74-.46,1.2-1.75,1-3-.3-1.56.61-2.22,2.09-2.3,5.71-.29,11.46-.38,16.66,2.37,1.31.69,2.35,1.65,4,1.55,1.1-.07,2.3-.46,2-1.55a21.19,21.19,0,0,1-1.21-4.7c-.28-3.69-2.65.24-3.9-.83-4.66-4-9.28,1.56-14,.15a19.29,19.29,0,0,0-4.3-.3c-.41-1.61,1.49-1.16,1.56-2.12.09-1.16-.93-.9-1.58-1a2.75,2.75,0,0,0-1.48,0c-6.38,2.75-12.57,1.23-18.71-.73-.45-3.36,1-4.71,4.28-5.46,6.77-1.55,14.31-.16,20.21-5.12a.78.78,0,0,1,.71-.13c4.42,2.67,8.42,3.81,13.4.25,3.63-2.58,9.07-.6,13.24-2.94.62-.35,1.52-.87,2-.66,6.51,2.71,12.89,1.46,19.4-.16,2.33-.59,5.31-.75,7.37.22,2.93,1.38,4.85.6,7.38-.64,4.92-2.41,10.29-1.46,15.38-.63,2.44.39,4.86.71,7.32,1,9.55,1,19.15,1.58,28.63,3.24,2.42.42,5,.06,7.62.41-2.16.79-2.7,3.55-5.26,3.76-2.21.19-4.48-.32-6.63.71-3.54,1.7-7.68.46-11.22,4-2.76,2.72-7.77,3.61-12.12,4.41a22.33,22.33,0,0,0-11.13,5,11.55,11.55,0,0,1-8.88,3c-4.71-.4-9.15,1.83-14,1.63-3.41-.14-1,4.75-3.69,5.79.71,4.82.31,5.49-3.61,6a3.21,3.21,0,0,1-1.48,0c-5.46-2.21-7.66,4.08-12.12,4.66-1.18.15-1.14,2-1.08,3.27.26,5.12-1.59,7.24-5.94,5.28C510.1,52.71,504,53,498.44,54c-9.4,1.72-18.35-2-27.92,0,.9-4.44,3.88-3.05,6-3.23s4.47-.42,3.45-3.25.6-2.56,2.34-2.79c3.34-.45,5.29,2.48,8.11,3.19,1.31.33,3.16.92,3.77-.91.35-1.07-.46-2.26-1.49-3.18-3.22-2.84-7.13-3.78-11.27-3.94.38-1.85,1.29-2.51,2.7-2.6,2.47-.15,5-.83,7.4-.39,2.87.54,3.62-1.3,4.32-3,.53-1.29-3.27-4.91-4.83-4.93-.23,0-.65.06-.67.17-1.37,6-7.46,4.16-11.12,6.22a36.47,36.47,0,0,1-14.78,4.56C458.2,40.4,452.56,40.76,448.67,34.93Z"/><path class="cls-1" d="M479.69,95.33c-2.86-1.93-5.67-.89-8.3-1.16-4.17-.43-5.54-2.48-3.88-6.36C471.69,78,474.86,74,489.19,75.33c-5.37,3.41-7.69,7.5-4.69,13.22,2.1,4,5.38,4.57,9.28,3.78.64-2.23-.92-2-2-2.24a6.4,6.4,0,0,1-1.92-.78c.56-2.59,0-5.08-.23-7.63-.1-1.35,2.4-2.1,4-2.84,3.09-1.42,6.48-1.57,9.61-3.31,3.69-2.06,9,1.65,9.94,6.12a35.86,35.86,0,0,1,.31,5.86c2.15,1.73,3.47-1,5.5-.75,6.2.78,6.22.57,11.72-5a2.88,2.88,0,0,0-3.9-1c-6.11,3.7-9-.54-12.25-4.26a2.91,2.91,0,0,1,4.13-1.09c2.35,1.53,4.33,3.49,6.82.27.34-.44,8.65,3.32,8.91,4,.1.27-.18.79-.43,1.06-2.39,2.55.2,4.2,1.61,4,4.61-.67,7.52,2.55,10.61,4.51,3.57,2.26,6.93,3.58,11,3.38,3.27-.15,5.25.68,4.54,4.74-.24,1.39.84,3.87,2.89.68.81-1.27,2.33-.09,3.18.76,1.35,1.36,2.67,2,4.65,1.32s1.84.34,1,1.64c-1.39,2.18.62,4.23,1.67,3.89,3.69-1.19,4.94,3.37,8.33,3-2,.87-4.59,1-4.34,4.18s2.39,2.57,4.29,2.75a3.56,3.56,0,0,1,2.65,1.09c2.18,2.54,4.19,5.61,8.31,3.14.2-.12.88.39,1.23.71,5.16,4.75,11.62,6.85,18.35,8.72-4,4-8.62,7.07-10.8,12.38a13.75,13.75,0,0,1-9.75-5.57,26.56,26.56,0,0,0-2.19-2c-2.14-2.16-4.69-4-7.68-2.65-2.3,1-1.6,5.26,1.1,8.66.46.59.87,1.39,1.49,1.65,5.57,2.36,9.47,6.57,12.73,11.64.62,1.24-1,.76-1.44,1.37-1.12,1.48-2.26,3-3.39,4.44-2.4-3.2-7.09.08-9.45-3.38-1.27-1.86-4-1.67-5.39-3.69a1.87,1.87,0,0,0-3.08.61c-.52,1.08.26,2,1.06,2.53,3.19,2.23,6.47,4.35,9.67,6.57a3.22,3.22,0,0,1,1.73,3.11c-5.37-1.15-10.78-1.39-15.51-4.27-1-.64-2.15-2.07-3.15-1.42-5.47,3.59-7.32-1.67-7.93-4.35s-1.06-3.56-3.35-3.26c-3.68.48-5.18-3.1-8.15-4.26-5.23-2-9.56-2.57-14.46.05-2.41,1.28-2.52,1.06-7.45-3,1.85-4,4.32-5,8.89-3.58,4.77,1.52,9.52-.69,13.84-2.84.33-2.24-2.1-2.62-2.51-4.29,1.9-1.6,3.84-3.12,5.64-4.77,1.33-1.24,4.56-1.43,3.49-4-1.14-2.79-1.59-6.92-4.94-7.62-7.63-1.6-11.65-8.37-18.06-11.69-3-1.55-6-3.26-9-4.87-1.74-.92-3.62-1.53-3.43,2,.05,1.09-2.3,1.34-3.87,1.12-9.63-1.36-19.66,1.62-28.87-1.12-6-1.8-13,.68-18.58-4.08C473.51,95.79,477.36,98.59,479.69,95.33Z"/><path class="cls-1" d="M1616.11,664.64c2.46-.36,3.55-2.46,5.84-2.35,2.88.14,5.64-.19,5.45,4a2.93,2.93,0,0,0,2.6,3.14,3,3,0,0,0,3.15-2.66c1-5,7.48-5.36,8.64-10.43.43-1.85,2.89-.61,3.84.1,8.84,6.65,19.88,9.11,28.91,15.24,4.23,2.88,8.91,5.83,9.88,11.82.48,3,3.29,3.92,5.79,5.13,2.69,1.29,6.21,2.84,1.17,6-1.82,1.16-1.29,3.08,0,4.51,3.88,4.27,4.26,10.84,10.06,14.11,1.85,1,1.3,5.65,5.17,6.91-8.55,1.69-13.73-1.21-17.65-10.15a16.54,16.54,0,0,0-6.27-7.61c-4.08-2.63-6.1-2.06-8.36,2.06-.47.86-.66,1.86-1.07,2.76-3.28,7.33-10.53,8.35-15.4,1.78-2.71-3.64-5.16-6-9.79-3.69-1.15.56-2.61.86-3.39-.32s-1-3.39.38-4c5.39-2.51,3.23-6.55,2.17-10.11-1.79-6.06-5-11.18-11.73-12.68-4.28-1-7.1-4.2-10.82-6-1.67-.81-1.85-4-5.3-2.33C1617.86,670.64,1617.56,666.53,1616.11,664.64Z"/><path class="cls-1" d="M1543.26,632.94c-3.44,3-6.15,6-5.56,10.8.18,1.47.27,3.14-.83,4.3-4.75,5-4.62,11.52-5.49,17.64-.37,2.65-2.14,3.85-3.62,5.27-.92.89-2.8,2.95-3.93-.83s-6-2.09-8.71-4c-4.1,3.17-7.2-1.9-11.17-1.39-2.2.28-2.69-2.41-2.7-4.56a16.65,16.65,0,0,0-3.67-11.24c-3.15-4-3.78-10.07-3.14-15.54.39-3.27,2.69-4.27,6-3.46,4.94,1.2,5.25,1.07,5.66-4,.22-2.75.93-3.91,3.77-4.28,4.34-.56,6.49-4,8.66-7.42,2-3.16,2.8-7.09,7.57-8.5,2.26-.67,4.12-4.7,5-7.56.93-3.11,3.25-4.78,5.49-9,.82,7.13,5.16,9.65,9.64,12.62-5.63,3.92-7.49,10-7.38,15.62C1539,622.59,1537.34,629.11,1543.26,632.94Z"/><path class="cls-1" d="M325.43,81.05c2.93,0,5.78.55,8.63-1.27,2.06-1.31,4.81-.92,7.11,0,1.28,1.7-1.19,3.29-.23,4.84.77.15,1.49.46,1.63.29,4.11-4.93,9.69-3,12.43-.14s4,.88,5.29.15c3.71-2.06,5.63-2.13,8.18.77,1.15,1.3,2.19,2.7,3.21,4.11.85,1.17,1.56,2.85,3.34,1.56a3,3,0,0,0,.83-4c-1.23-2.39-3.29-4.45-2.69-7.42,4-2.76,7.74,1.71,11.67,1,.19-3.32-3-3-3.55-5.55,2.69-.19,5.4-.57,8.9.83-6.46,6.33-.19,11.45.66,17.28,1.34,9.25,10.39,4.35,12.93,9.78-.6.6-1.71,1.9-3,3-1.91,1.69-2.32,6.31-3.75,5.81-3.52-1.24-7.38.07-10.63-2-1.2-.78-2.89-.47-4.08-1.63a2.75,2.75,0,0,0-3.47-.36c-7.76,5.88-17.2,5.5-26.08,7-2.95.5-6.75,1.21-7.67-3.59-.48-2.51-2.68-1.66-4.28-1.79-2.72-.23-5.59.14-8.12-.64-1.54-.47-4.47-1.07-4.13-3.45s2.19-3.71,4.95-3.47c2.48.21,5,0,7.49,0,3.48,0,7,0,10.8,0-5.19-4.47-13.39-6-18.6-3.79-5.37,2.31-5.37,2.31-10.18-2.47,2-2.68,5.9.21,8.12-2.89-2-2.19-4.65-1.31-6.9-1.27-2.44,0-4.19-1.42-6.45-2.14,2.22-3.28,7-4.22,7.76-8.66Z"/><path class="cls-1" d="M1184.72,736.8a25.68,25.68,0,0,1,5.69,14.27c.38,3.94,3.34,9.19-2.43,12.18-.41,3.94-1,7.86-1.19,11.81a46.68,46.68,0,0,1-1.42,10.2c-3.65,13.49-6.51,27.17-9.16,40.89-.81,4.16-2.15,7.73-6.56,9.85-4.74,2.28-7.87,2-10.1-2.66-1-2.16-2.1-4.44-1.83-7.1.3-3,.27-6.09-1.55-8.62-2.54-3.53-.8-7.32.68-9.75,3.79-6.23,5.31-12.21,3.11-19.32a21.71,21.71,0,0,1-.56-9.62c.92-5.55.71-12.13,8.57-13.53a8.65,8.65,0,0,0,3.81-2.14c3.81-3.33,4.46-8.83,7.31-12.28C1182.37,747,1185.31,743.63,1184.72,736.8Z"/><path class="cls-1" d="M1424.37,601.65c2.37-.69,3.68,1.68,5.79,1.23,3.25-.68,5.2,1.32,6.39,4,3,6.53,9,10.71,12.5,16.92,1.59,2.81,5.38,4.42,8,6.46,3,2.35,4.3,5.77,7.19,7.9a4.83,4.83,0,0,1,1.91,4.64c-.51,3.65-1.79,7.41,3.42,8.91.44.12.65,1.79.61,2.73a8.51,8.51,0,0,0,3.92,7.61c3.33,2.28,3.68,5.18,3.4,8.84-.36,4.6-.09,9.26-.09,13.75-3.62.78-5.74.38-8-2.1-4.92-5.48-9.8-10.9-13.23-17.51-1.37-2.64-2.92-5-3.18-8.17-.47-5.78-4.08-10.57-6.67-15.42a35.5,35.5,0,0,1-4-9.92c-.41-2.07-.63-4.44-3.27-5.41-3-1.12-2.33-4.59-3.81-6.82-2.81-4.24-6-8.14-9-12.29A11.18,11.18,0,0,1,1424.37,601.65Z"/><path class="cls-1" d="M911.51,193.84c.08,2.14-2.06,3.45-.62,5.59.07,0,.47.59.79.54a27.89,27.89,0,0,1,2.84-.77c2-.07,4.48-.9,5.66.82,1.55,2.25-.65,4.07-1.95,5.84s-2.28,3.76-5,5.55c5.7,1.22,9.92,3.39,10,9.42a2.42,2.42,0,0,0,1.24,1.78c5.29,2.24,6.58,6.88,7.24,11.87.29,2.15,1,2.38,2.85,1.35,2.35-1.33,3.7,1,5,2.06,1.48,1.26-.43,2.71-1.15,3.77-1.4,2.05-3.35,3.71-2.32,6.63.67,1.9-1.14,1.67-2.12,2.14-4.5,2.19-9.32.61-13.94,1.2-3,.38-7.27-2-8.39,3.5-.25,1.21-1.7.49-2.37-.18-1-1-2.33-2.06-1.17-3.8a5,5,0,0,1,4.22-2.61c1.57-.06,3.5.82,5.06-1.68L906.6,243.5c2.36-2,4.94-4,4.2-7.79-.22-1.16.81-1.53,1.71-2.05,4.71-2.69,5.26-5,2.32-9.52a3.41,3.41,0,0,1-.75-2.69c.44-2.4-.62-2-2.48-1.59-4.24.9-4.42.67-4.13-3.87a3.41,3.41,0,0,0-1.89-3.63c-1.71-1-3.44-1.89-5.23-2.68-1.06-.46-2-1.67-1.27-2.08,4.18-2.43,1.9-7.27,4.25-10.52C905.52,194.05,907.34,192.13,911.51,193.84Z"/><path class="cls-1" d="M1616.93,379.59c-2.72-.7-5.51,2.79-8.73-.7,3.4-2.11,7.4-3.53,9.06-7.6.62-1.55,2.56-1.23,4-1.28a64.37,64.37,0,0,1,7.47-.19c2.71.21,4.32-.17,5.61-3.15,1.54-3.56,4.24-6.7,8.43-7.74,5.38-1.33,6.34-6.54,8.72-10.3a23.26,23.26,0,0,0,3.25-15c-.18-1.91-.36-4.57,2.14-4.77,2-.15,4.75.49,5.61,2.93,1.14,3.25,3.52,6.06.42,10.24-2.44,3.29-3.66,7.77-4,12.49-.33,5.3-3,10.39-3.29,15.7-1.68-.12-.39-4.12-2.69-1.62-4.37,4.73-10.15,6.83-15.47,4.76-2.94,1.31.93,4.49-1.27,5.47-2.46,1.1-2.76,3.23-3.63,5.11-3.46-2.14-2.31-5.08-1.41-7.82a2.51,2.51,0,0,0-2.66-1.12c-4.66.25-5.3.72-3.17,4.53,1.38,2.48-.32,2.78-1.06,4-1.5,2.53-6.61.25-6.49,4.88-1.11-.06-2.17-.62-1.78-1.72.66-1.88,1.51-3.65,1.1-5.71.2-.57,1.15-.75,1.06-1.23S1617.32,380,1616.93,379.59Z"/><path class="cls-1" d="M1221.52,97.27c-6,.24-11.72,2.29-15.32-4-.88-1.54-2.57-1.2-4-1.36s-3.48.3-5-2.26c5.41-.39,6.24-5.21,9-8.08,5.94-6.1,11-13.45,19.18-17.09a32.21,32.21,0,0,0,4.36-2.5,27.34,27.34,0,0,1,11.66-4.06c7.18-1,14.37-.71,21.49-1.44,4.21-.44,8.27-2.62,12.33-4.19,1.34-.53,2.37-1.67,4-1.63,2.26.05,5.35-.27,5.62,2.24.21,2-2.66,2.46-4.89,2.86-8.84,1.61-17.62,3.58-26.42,5.42-5.66,1.19-17.91,8.16-22.86,11.95-3.54,2.71-7,5.32-9.81,8.82-4,5-4.27,6.8-.76,12.33A29.41,29.41,0,0,1,1221.52,97.27Z"/><path class="cls-1" d="M808,143.44c1.93-1.32,3.79-.51,5.43-1a2.91,2.91,0,0,0,2.39-2.53c.06-1.69-1.41-1.64-2.65-1.8-1.63-.2-3.42.56-4.91-.77.25-3,4.25-1.82,5.25-4.71.35-1,5,.36,5.94,2.48,2.44,5.28,5,4.27,9,1.64a14.45,14.45,0,0,1,9-2.44c3.61.47,6.49,1.19,9.28-2,1.36-1.56,3.52.25,4.7,1.07,3.36,2.32,8.41,4.81,8.27,8.5-.12,3.2-5.74,4.89-9.15,6-4.19,1.36-8,3.55-12.13,4.93-4.4,1.46-8.25,2.37-12.36-.54-3.4-2.41-8-2.78-10.26-7.33C814.78,142.78,811.16,144.38,808,143.44Z"/><path class="cls-1" d="M988.85,30.59c4.58-.25,9.44-3.11,13.19,1.63a1.34,1.34,0,0,0,.54.33c4.76-5.61,7.88.41,11.72,2.17.83-2.59-.87-4.85.8-7.3,4.47,2,9.91,1.92,13.65,6.12a2.51,2.51,0,0,0,1.94.78c5.44-1,9.09,2.77,13.46,4.74a28.69,28.69,0,0,1,9.52,6.58c-3.87,3.42-7.62.76-11.42-.26.5-4.17-4.11-4.39-5.48-7.08-1.46-2.86-2.52-1.42-4.39-.19-5.07,3.3-9,7.78-13.1,12-2,2.06-4.06,3.13-5.42,1.46-1.92-2.36-5.07-2.94-6.6-6.11-1.21-2.48-4.72-4.28-7.59-5.41C994.93,38.23,992,34.56,988.85,30.59Z"/><path class="cls-1" d="M325.57,80.92c-8-1.64-13.13,3.74-17.33,8.64-2.67,3.13-6,.85-8.36,3.46s-4.92.62-7.5-1.48-6.13-2.67-9.64-4.08c2.39-3.25,6-5.56,6.75-9.76.27-1.57,4.45-2.6.46-4.9-1-.56,1.08-1.06,1.74-1.44,3.93-2.3,8.36-1.58,12.34-.87,5.74,1,11.32,2,17.19,1.26,4.17-.53,6.9,3.34,10.78,3.83-.71,2.6-2.53,2.51-4.28,2.6s-2.75.94-2.29,2.87Z"/><path class="cls-1" d="M1821.87,956.12c3.8,5,3.8,5,8,2a15.73,15.73,0,0,1-3.72,13.58c-1,1.1-2.37,2-2.29,3.71.11,2.36-.81,3.34-3.23,4-3.29.92-5.06,3.44-5.48,7.16a17.28,17.28,0,0,1-6,11.53c-2.47,2.11-4.95,3-8,1-1.71-1.13-3.29-2.49-6.06-1.42-2.56,1-3.51-1.21-2.45-3.57a25.3,25.3,0,0,1,11.15-12.29c6.42-3.38,11.3-8,13.72-14.78C1818.74,963.37,1823.42,961.36,1821.87,956.12Z"/><path class="cls-1" d="M452.09,55.08c5.6-3.33,9.64-2.41,13.13,2.51,2.06,2.91,5.43,3.87,9.16,4,7.61.2,15.07.82,22.73-1.1a25.46,25.46,0,0,1,14.69.66c2.25.81,4.87.57,7.27.8,1.19,4.57-2.78,6.51-5.2,6.55-3.71,0-7.74,2.44-11.39-.44a2.49,2.49,0,0,0-2-.51c-6.87,3.48-14.17.92-21.24,1.58-1.78.17-4.1.81-5.08-1.83-.47-1.27-1.57-1.13-2.36-.53-4.34,3.34-8.82.21-13.21.29-2.57,0-4.77-2.16-3.35-4.43C458,58.15,453.81,57.21,452.09,55.08Z"/><path class="cls-1" d="M385.57,59c-1.3,5.12-4,7.1-9.17,6.84-7.62-.4-15.15-.3-22.53,3-3.3,1.48-7.82.25-12.3.25,2.08-2.53,5.49-.42,6.87-3.17.33-.65.84-1.18.52-1.92s-1.63-1-1.86-.61c-2.26,3.5-6-.72-7.18.77-2.4,2.95-5.48-2.43-7.14,1.23-2.1-1.76-4.57-2.55-8.42-2.43,3.33-2.44,4.87-5,7.64-6.75,3.66-2.37,6.51-2.78,10-.55,3,1.89,7.33,0,9.76,2.67,4.43,4.87,10,2.91,15.14,3.27a1.25,1.25,0,0,0,1.47-1.19c0-.17-.82-.55-1.28-.57-1.54-.06-2.65-.93-1.76-2.21,1.36-2-4.49-1.67-1-3.52,2-1.08,4.69-3.51,6.11,1.47,1.1,3.82,4.9,5.12,8.87,3.74,1.41-.48,2.66-1.25,4.2-1A13.22,13.22,0,0,1,385.57,59Z"/><path class="cls-1" d="M627.08,274.33c2.13-10.12,7.73-20.74,13.86-26.69,1.62,1.23,1,2.52.09,3.8-1.31,1.8-2.71,3.59-3.14,5.83-.24,1.21-.06,3.15,1.34,2.87,3.61-.73,6.08,3.47,10.06,1.71,1.6-.7,3.56.72,4,3.85a16.72,16.72,0,0,1-1,9.12c-1,2.44-3.42,4.79-6.25,2.83C640.28,273.67,633.82,275,627.08,274.33Z"/><path class="cls-1" d="M902.45,224.07c-4.15,1.57-5.31,4.66-4.15,9.43.72,3,.21,5.93-4.44,7-3,.69-5.9,3.12-9,4.58-1.91.9-3.08.88-4.6-.47-1.7-1.53-1.3-3-.29-4.57.78-1.25,1.37-2.63,2.2-3.84,1.11-1.63.93-2.44-.45-4.23-2.66-3.43-1.76-4.94,2.85-5.84,2-.4,3.06-1,3.18-3.21.16-2.57.87-5.27,4-5.22s7.19-1.94,8.58,3.15C900.68,222,902.75,221.84,902.45,224.07Z"/><path class="cls-1" d="M1404.25,28c3.65.13,4.49-3.76,6.45-5.32,2.2-1.74,3.75-3.2,6.6-3.05a11.48,11.48,0,0,0,5.62-1.27,6.78,6.78,0,0,1,9.27,4.25c1.06,3.24,4.44,3.7,5.87,6.32.51.93,1.64.06,2.36-.73a3.71,3.71,0,0,1,4.78-.6c1.62,1,1.29,3.15.46,4.73s-.94,4.08-3.76,3.84c-2-.18-4.12.61-5.85-.49-3.73-2.37-8.16-2.16-12-2.24-3.33-.06-4.63-1-5.21-3.51-.65-2.82-1.64-4.1-4.42-2.31C1411.12,29.73,1407.62,28.11,1404.25,28Z"/><path class="cls-1" d="M557,1191.49c2.29,0,4.16,0,6,0,1.43,0,2.43-.57,2.57-2a1.88,1.88,0,0,0-2.15-2.31c-3.45.17-3.56-.75-1.95-3.7,1.53-2.79-2.05-5.25-1.83-8.33a4.23,4.23,0,0,1,1-.86c5.91-2.7,8.93.11,11.57,5.31,2.29,4.52,6.71,8,5.64,13.94-.45,2.51-.41,4.25-3.81,5.21-3,.85-5.38,3.13-8.41.35C562.94,1196.61,559.52,1195,557,1191.49Z"/><path class="cls-1" d="M1852.34,934c-2,3.77,0,8.73-5.76,9.1-1.48.09-1.1,1.92-1.34,3.09-1.12,5.55-3.78,10.39-6.9,15.27-.9-1.62-3.74-1.15-2.84-3.79,2.24-6.57,2-7.28-2.89-11-.93-.71-2.48-.23-3.15-1.95,6.51-3,4.92-9,5-14.45,0-1.2-1.26-2.94,1.15-3.35.33,3.14,3.64-.61,4.71,2.28C1843.1,936.69,1843.7,936.76,1852.34,934Z"/><path class="cls-1" d="M1515.76,697.58c-2.87,2.17-3.73,4,.15,5.15a15.51,15.51,0,0,0,3,.11c1.41.13,3.38-.08,3,2.14-.3,1.75-1.5,3.69-3.6,2.21-3-2.14-6.27-1.15-9.41-1.3-2.78-.13-5.58,0-7.43-2.54-1.45-2-3.59-1.7-5.45-1.46-3.61.45-6.82-1-10.21-1.61-4-.66-4.9-4.59-6.93-7.15-.69-.89.38-3.83,3.23-3.81a11.48,11.48,0,0,1,9,4.42c2.42,2.92,5.84,4.18,8.6,2.85C1505.24,693.9,1510,696.39,1515.76,697.58Z"/><path class="cls-1" d="M1562.66,677.24c-1.24-.06-3.9,3.89-3.34-1.14.1-.93.93-2,0-2.71-2.49-2.1-2.4-4.36-1.35-7.22.62-1.67-1.11-3.1-2.28-4.43-6.44,1.88-1.37,7.08-3,10.5-1.71,3.65.93,8.28-1.69,12.51-2.77-1.51-1.56-3.86-1.57-5.8,0-3.82,1.37-7.85-2.64-10.9-1.35-1-1.12-3.5-.24-4.91,3.43-5.51,1.17-12,3.61-16.88.17,2.54,3.33,4.44,4.16,7.65.3,1.16,2.07,1.08,3.16.11.92-.82.55-2.61,1.93-3a4.25,4.25,0,0,1,2.82.24c1.13.61.75,1.78,0,2.43-4.31,3.5-3.75,7-.23,10.68,2,2.07.2,4.85,1,7.17C1564.14,673.56,1564.93,675.51,1562.66,677.24Z"/><path class="cls-1" d="M406.58,83.59c2.2-.11,4.48.57,6.63-.67.53-2.87-2-4.19-3.43-6,6.78-3.84,11.58-4.17,17.94-1.38.76,2.7-3.2,2-3,4.85,1.67,1,4.11,1.48,6,3s1.53,3,1.46,4.66c-.09,2.11-1.79,1.78-3.2,2.2-5.66,1.65-11.07,1.64-15.76-2.36-2-1.73-5.11,0-6.73-2.44a1.1,1.1,0,0,1-.35-1.23C406.28,83.78,406.43,83.59,406.58,83.59Z"/><path class="cls-1" d="M546.11,487.66c-3,1.3-5.45.75-7.84.83s-5.11.75-5.06-3.27a2.81,2.81,0,0,0-2.51-2.45c-3-.17-4.32-1.51-4.81-4.5-.42-2.54-2.78-2.79-5.1-3.41-4.24-1.13-9.09-1.07-11.65-6.31-1.08-2.21-4.84-1.59-7.05.29-1.56,1.32-2.81,2.92-5.08,1.41,7.67-6.66,16.09-7.2,23.23-1.44.76.61,1.18,2,2,2.18,7.28,1.79,11.45,8.56,18.16,11.18C542.77,483.11,544.4,484.86,546.11,487.66Z"/><path class="cls-1" d="M1668.83,229.81c2.47,1.57,2.14,4,1.91,6.1-.73,6.85,1.28,13.21,3.25,19.57,1.14,3.71,3.86,7.36-3,8.68-2.31.45-2.08,4.62-3.8,6.65a3.68,3.68,0,0,1-1.88-4.52c1.76-5.37.18-10.84.82-16.22.12-1,.3-2.23-.17-2.93C1661.45,240.39,1665.49,235.21,1668.83,229.81Z"/><path class="cls-1" d="M482.11,151.28c6.11-3.1,2.82-10.13,6.7-14.78,2.19,3.24,5.16,4.42,9,5.06s7.42,3.2,10.44,6a24.1,24.1,0,0,1,2.07,2.1c.88,1.08,4.29-.93,3.17,2.3-1.17,3.38-2.75,1.25-4.26,0-.49-.41-1.43-.32-2.16-.41-2.76-.32-4.85-5.4-7.53-2.32-1.83,2.11-5.36,1.53-6.06,4.85C493.1,156,491.4,156,490,155,486.59,152.62,484.23,151.42,482.11,151.28Z"/><path class="cls-1" d="M1681.89,311.75c-6.6-1.5-9.52,1.86-12.15,5.74-3.22-2-5.74-5.45-9.89-2.64a1.77,1.77,0,0,1-2.47-1c-.37-1.16-.38-3.06.76-3.34,6.47-1.58,5.3-6.73,5.56-11.23.07-1.24,0-2.48,0-5,4.21,5.51,8.7,8.89,14.47,10.53C1680.57,305.46,1680.08,308.42,1681.89,311.75Z"/><path class="cls-1" d="M1679.88,957.67c2,.12,3.56.19,4.57,1.32,1.63,1.82,3.13,2.36,4.88.27,1.34-1.59,3.19-1,4.87-1.12,1.51-.12,2.45.66,2.42,2.09-.11,4.9-.44,9.91-3.18,14-2.93,4.44-6.54,4.05-9-.61A39.52,39.52,0,0,1,1679.88,957.67Z"/><path class="cls-1" d="M1580.15,566.42c2.23,4,2.36,8.92,3.54,13.62s1.13,4.6-3.3,8.42c-2.13,1.83-3.36,3.64-.84,6.12.87.86.31,1.87-.36,2.61-1.08,1.18-1.49-.43-2.1-.73-3.34-1.62-5.12-3.81-4.2-8.1,1-4.85.55-5.11-4.48-4a3.15,3.15,0,0,1-3.73-1.54c-.93-1.67,1.64-1.13,1.93-2.18.93-3.36,2.18-3.42,5-1.36,1.3,1,7.5-5.11,8-7.65A45.06,45.06,0,0,0,1580.15,566.42Z"/><path class="cls-1" d="M1679.27,60.83c-1.81,2.6-1.65,6.7-5.76,3.2-7.23,4.26-15.49-.13-23,2.9-4.66,1.87-6.72,0-10.08-6.14,3.7-4,8.39-4,12.82-2.17,2.73,1.1,4.7,1.85,7.53.23,2.31-1.32,5.23-2.11,4.6,2.86-.24,1.89,1.4,3.08,3.55,1.33C1673,59.74,1673,59.66,1679.27,60.83Z"/><path class="cls-1" d="M1562.81,509.67c.24,3.12.83,6-2.5,8.53-3.06,2.31-1.27,6.53-1.46,9.91-.1,1.68.58,3.39.71,5.11.1,1.28-.49,2.69-1.84,2.66s-2.08-1.21-1.53-2.69c.81-2.19.6-3.58-2-4.48-3.77-1.26-4.13-5.73-2.47-7.32,3.63-3.49,1.81-7.39,2.48-11a27.09,27.09,0,0,0,0-3.72c.09-2.43-.29-5.79,3.23-5.39,2.5.28,6.23,1.05,5.39,5.47A16.24,16.24,0,0,0,1562.81,509.67Z"/><path class="cls-1" d="M1070,26.65c-2.85,2.39-5,3.37-7.51,3.52-2.22.15-4.33,0-6.12,1.92a4,4,0,0,1-3.5.58c-8.31-3.05-17.28-2.89-25.66-4.83,0-1.52.56-1.45,1.28-1.65,5.53-1.57,11-2,16.39.49a1.62,1.62,0,0,0,2.29-1.18c.34-1.15,1.42-1.92,2.18-1.51C1055.51,27.35,1062.47,24.29,1070,26.65Z"/><path class="cls-1" d="M340.44,416.84a3.28,3.28,0,0,1,4.15,2.25c4,10.24,9.92,19.62,12.83,30.32.58,2.12,2,4,.76,6.36a.77.77,0,0,1-1.34.07,9.52,9.52,0,0,1-4.12-8.75,10.31,10.31,0,0,0-6.6-10.43c-2.21-1-3.55-2.61-5-4.12-2.06-2.11,0-4.1.89-6,1.79-3.62-2.37-6.36-1.39-9.84Z"/><path class="cls-1" d="M576.39,500.32a81.53,81.53,0,0,1-9.47.55c-1.77-.08-2.73.09-3.3,1.85a1.43,1.43,0,0,1-2.35.76c-3.1-2.79-6.88-1.34-10.88-2l6.83-.56c.29-.83.7-1.38.56-1.68-3.73-7.95-3.57-8.2,5.43-7.9,6.06.2,8.89,5.55,13.93,7.39Z"/><path class="cls-1" d="M330.36,47.41c1.68,3.79-1.35,5.7-4.17,7.69-.91.65-2.45.67-2.71,0-1.8-4.73-4.52-1.83-6.31-.52-5.5,4-11.44,1.81-17.22,2.24,0-2.64,1.65-2.49,3.1-2.8a13.81,13.81,0,0,0,3.45-1.29A48.18,48.18,0,0,1,330.36,47.41Z"/><path class="cls-1" d="M414.62,60.11c-7.48-.53-7.48-.53-8.8-5.58,2.56,0,3.11,3,5.33,3.44a3.06,3.06,0,0,0,3.27-.87c1.12-1.19-3.3-2.59,0-2.89s7-1,10.33.32c1,.39,1.19,1.44,1.3,2.49a8,8,0,0,1-10.8,8.53C411.88,64.27,413.65,62.06,414.62,60.11Z"/><path class="cls-1" d="M1347,568.78c2.37,6.36,4.55,11.28,6,16.4.67,2.43,1.27,5.63-1.15,7.7-1.39,1.2-2.18,3.87-4.57,3.18s-1.67-3.22-2.06-5.06C1343.73,584,1343.49,577.08,1347,568.78Z"/><path class="cls-1" d="M1446.86,42.15c2.9-4.38,5.82-9.15,11.09-8.85s11.47-.28,15.39,5C1465,42.55,1455.37,37.84,1446.86,42.15Z"/><path class="cls-1" d="M1606.33,651.65c5.46-2.91,9.58-5.93,14.8-2.83,2.35,1.38,4.28,7.41,2.89,9.78-.83,1.42-7.34,2.18-8.23.47C1613.91,655.47,1611,653.5,1606.33,651.65Z"/><path class="cls-1" d="M389,33.71c8.19-.64,15.66-.25,22.62,3.3.65.33,2,.31,2,.64.44,2.2,4.77,2.17,3.39,4.69-1.61,2.95-4,.36-5.72-.56-4.78-2.54-10.05-1-15-2.12-1-.22-2.68,1-2.25-1.09C394.94,34.15,392.13,33.73,389,33.71Z"/><path class="cls-1" d="M1605,395.33c-.93-1.75.35-3.1,1-4.7s.39-2.06-2.53-1.53c-1.59.29-1.56-.39-1.62-1.33-.15-2.65,2.45-3.22,3.88-3.88,2.33-1.07,4,1.49,5.87,2.71,1.47,1,1.21,2.53.2,3.92a10.24,10.24,0,0,0-2,7,2.77,2.77,0,0,1-2.48,3.18c-2.28,0-2.69-1.75-2.3-3.73A8.48,8.48,0,0,0,1605,395.33Z"/><path class="cls-1" d="M1504.86,489.34c-2.51,3.85-2.73,7.68-5.14,10.55-.78.94-1.8,1.91-3.14,1.55a3.68,3.68,0,0,1-2.8-3c-.67-3.31,1-5.45,3-7.79C1499.19,487.88,1501.46,489.1,1504.86,489.34Z"/><path class="cls-1" d="M1559.81,450.41c-.78,6.84-.11,13.56-5.17,19C1550.76,462.84,1552.87,454.69,1559.81,450.41Z"/><path class="cls-1" d="M446.38,45.8c-3.36,1-6.53.43-9.66.48-.88,0-2.2.14-2-1.34.34-2.76-1.31-2.61-3.2-2.48-3.2.23-6-.36-6.78-4.48,2.24-1.4,4.93-1.61,6.83-.24,2.2,1.6,4.83.59,6.78,1.89.67,1.83-1.73,2.51-1.19,4.38C439.75,46,443.37,43.62,446.38,45.8Z"/><path class="cls-1" d="M975.78,341.4c-1.29-3.1-.16-6.38-.78-9.5-.66-3.38,2.12-3.69,4.09-3.86,2.58-.22,2.08,2.18,2.18,3.81C981.67,338.15,981.29,338.79,975.78,341.4Z"/><path class="cls-1" d="M1716,680.58c1.63,3.56-1.47,4.88-3.36,6.44-6.32,5.26-6.8,5.15-14.17-1.44,6.43-.91,13.21.69,17.66-4.89Z"/><path class="cls-1" d="M1576.19,633.62c-1.08,4.39-4.25,6.22-7.54,5.58-5.71-1.13-11.32.16-16.65-.82,2.67-3.34,5.84-5.18,11-3.32C1570.23,637.63,1570.37,637.23,1576.19,633.62Z"/><path class="cls-1" d="M1567.29,556c3.1,5,1.37,10.34,1.23,16.47-3.07-2.23-7-2.91-3.45-7.22,1.29-1.58.34-2.66-1.15-3.49a4.05,4.05,0,0,1-2.1-2.89C1563.34,557.34,1564.75,555.6,1567.29,556Z"/><path class="cls-1" d="M434.11,65.25c1.43-4.89,4.87-3.5,7.65-3.71,3-.24,4.37,1.68,5.45,4.71C442.56,68.36,438.3,67.6,434.11,65.25Z"/><path class="cls-1" d="M1007.89,359.24c-2.79-.68-2.6-3.88-5.58-4.05-1.69-.09-4.55-.48-5.41-3.65,1.45-1.64,3.52-1,5.31-1C1010,350.29,1010,350.33,1007.89,359.24Z"/><path class="cls-1" d="M1571.08,720.67c-1.09-3.38.4-5.29,2.46-6.82,6.53-4.83,6.55-4.8,10.32-4.39C1582.78,711,1572.87,719.74,1571.08,720.67Z"/><path class="cls-1" d="M1691.62,65.73c-.07-3.84,2.52-5.31,4.73-3.93,3.23,2,6.88,1.8,10.63,3.14C1701.59,70.43,1696.55,64.68,1691.62,65.73Z"/><path class="cls-1" d="M1562.66,677.24l.42-5.66c5.81,4,6.3,10.43,1,14.32C1562.8,683.12,1565.68,679.67,1562.66,677.24Z"/><path class="cls-1" d="M1217.17,20.67A17,17,0,0,0,1224,17c2.37-1.89,5-.74,4.58,1.92-.8,4.59,2.41,4.59,4.94,5.9-2.59-.54-7,4.09-7.16-2.88,0-1.12-1.59-.84-2.51-.9C1221.66,20.86,1219.41,20.79,1217.17,20.67Z"/><path class="cls-1" d="M432.52,51.39c5-1.52,9.12-.73,13.28.57,1,.31,1.92.68,1.7,1.88a2.15,2.15,0,0,1-2,1.84C440.59,56.42,436.89,53.8,432.52,51.39Z"/><path class="cls-1" d="M432.54,1200.23c-4.48,1.69-9.11.53-13.65.87-.85.06-1.49,0-1.63-.92a1.8,1.8,0,0,1,1.22-2.32c.7-.22,1.66-.94,2-.71,3,2,6,.82,9.06.45A2.73,2.73,0,0,1,432.54,1200.23Z"/><path class="cls-1" d="M361.69,46.33c-4.13,0-8.26,0-12.4,0-1.18,0-2.61-.11-2.53-1.82.07-1.25,1.28-1.43,2.16-1.33C353.24,43.63,358,41.44,361.69,46.33Z"/><path class="cls-1" d="M132.2,201.53c2.39-1.28,5.23-1.6,6.46-4.5s3.09-1,4.68-.1C139.4,204.43,138,205,132.2,201.53Z"/><path class="cls-1" d="M299.14,1212.6c4.58-2.31,9.22-2.07,15.47-.61C308.6,1215.33,303.89,1214.3,299.14,1212.6Z"/><path class="cls-1" d="M538.5,124.48c-3.45.27-5.75-.38-5.47-2.16a5,5,0,0,1,5.23-4.23c2.46,0,4,.92,3.84,3.2C541.92,124.37,539.23,124.37,538.5,124.48Z"/><path class="cls-1" d="M404.52,61c-5,.65-7.18-3.92-11-4.3-.19,0-.44-.81-.45-1.24a1.31,1.31,0,0,1,1.35-1.39c1.2,0,3-.22,3.51.45C399.68,56.84,403.17,57.28,404.52,61Z"/><path class="cls-1" d="M251.94,237.35c-5.06-.69-5.37-4.79-7.28-7.35-.87-1.17.07-2.41,1.59-2.44,1.27,0,3.72-.56,3,1.67C248.2,232.53,251,234.11,251.94,237.35Z"/><path class="cls-1" d="M613.4,293.74l.09-1.55c-1-3.67,2-5.72,3.32-8.43,2.11-.21,2,1.87,2.87,2.8,2.75,2.88,1.86,4.48-2,3.55C614.18,289.26,616.14,294.15,613.4,293.74Z"/><path class="cls-1" d="M1831.75,922c-2.65-3-4.57-5.34-4.79-8.82C1833.32,914.76,1833.32,914.76,1831.75,922Z"/><path class="cls-1" d="M1051.42,350.81c-2.42-.43-6.34,1.18-5.61-4.08,3.53.47,6.5,4.7,10.08.92C1055.69,352.24,1055.64,352.27,1051.42,350.81Z"/><path class="cls-1" d="M1185.43,113.72c-2.33.16-3.34-.7-3.52-2.4s.26-2.95,2.07-3.23c2-.31,3.33.66,3.41,2.7A2.73,2.73,0,0,1,1185.43,113.72Z"/><path class="cls-1" d="M1669.81,76.85c-3.75,1.93-7.17,1.91-10.1-1.47C1663.32,74.75,1666.78,74.13,1669.81,76.85Z"/><path class="cls-1" d="M1665.81,284.07c-1.35-2.54-.49-4.95-.73-7.86,2.86,1.08,4.74,2.34,4.56,5.17C1669.49,283.74,1667.17,283.23,1665.81,284.07Z"/><path class="cls-1" d="M1579.08,555.12a3,3,0,0,1-2.65-2.48c-.17-1.8-2.71-3.26-.81-5.29a1.36,1.36,0,0,1,1.33-.1,5.21,5.21,0,0,1,2.47,5C1579.34,553.21,1579.2,554.15,1579.08,555.12Z"/><path class="cls-1" d="M1626.05,693.76c-2-2.65-1.92-5.33-.41-8.91C1628.39,688.16,1627.68,690.94,1626.05,693.76Z"/><path class="cls-1" d="M275.44,1207.34c4.25-.68,7.57-.89,9.87,3.36C281.27,1211.45,278.92,1208.67,275.44,1207.34Z"/><path class="cls-1" d="M1293.23,1024c-4.58.08-8.06,0-5.93-5.75A14,14,0,0,1,1293.23,1024Z"/><path class="cls-1" d="M994.43,216c0,1.9-.4,3.69-2.12,3.3-1-.22-2-2.16-2.27-3.46-.36-2.14,1.81-2,3.05-2.13C995.18,213.47,993.82,215.48,994.43,216Z"/><path class="cls-1" d="M1238.89,21.78c3.35,0,6.54-3.11,11.13,0C1245.6,23.4,1242.19,22.53,1238.89,21.78Z"/><path class="cls-1" d="M1616.93,379.59c1.78-.8,2.12-4.32,5.09-2.79a2,2,0,0,1,.84,2.53c-.94,2.6-3.19,1.48-5,1.69-.24,0-.49,0-.73,0A3,3,0,0,1,1616.93,379.59Z"/><path class="cls-1" d="M1567.62,537.24c1,.32,1.31.32,1.45.48,1.26,1.45,3.27,2.52,2.8,4.89-.16.78-.86,1-1.68.66C1567.42,542.26,1567.64,540,1567.62,537.24Z"/><path class="cls-1" d="M979.05,314.24c.63,5,.63,5-1.56,7.59C976.75,318.11,976.75,318.11,979.05,314.24Z"/><path class="cls-1" d="M550.43,963.86c.2,3.83,1.79,7.88-2.54,12.12.81-4.79,0-8.72,2.67-12.05Z"/><path class="cls-1" d="M526.52,572.68l-2.21.22-5.35-.35.13.13C521.1,568.6,523,568.6,526.52,572.68Z"/><path class="cls-1" d="M658.12,279.49c-.9.76-.51,3.12-2.55,2.41-1-.35-2.38-1.43-2.45-2.28-.13-1.56,1.29-2.45,2.85-2.37C657.2,277.31,658.32,277.84,658.12,279.49Z"/><path class="cls-1" d="M1593.15,666.35c3.84-1.19,7.16-.65,10.43-.52a1.3,1.3,0,0,1,1.3,1.41c-.06.55-.22,1.64-1.29,1C1600.54,666.45,1596.85,668.16,1593.15,666.35Z"/><path class="cls-1" d="M506,158.16c-.1,4.19-3.11,3.73-4.63,4.9-.18.15-1-.18-1.22-.5-.48-.61-.58-1.5.19-1.9C501.82,159.87,503.43,159.27,506,158.16Z"/><path class="cls-1" d="M1567.29,556c-1.88.85-2.62,3.87-5.47,2.87C1562.14,553.72,1563,553.25,1567.29,556Z"/><path class="cls-1" d="M356.84,455.84a1.88,1.88,0,0,1,1.34-.07c1.81,1.31,5.88.49,4.6,4.91C359.39,460.65,359.21,456.89,356.84,455.84Z"/><path class="cls-1" d="M1128.07,145.29c-2.7.5-5.43,1.15-7.2-2.19,3.28-1.87,5.46-.65,7.11,2.32Z"/><path class="cls-1" d="M1540.49,709.1c-.1,3.55-2.44,3.06-4.71,2.52-.33-.08-.62-.71-.76-1.14-.3-.94.45-1.35,1.12-1.56a6.89,6.89,0,0,1,4.37.19Z"/><path class="cls-1" d="M602.08,285.62c.93-.47,1.16-.7,1.37-.68,1.75.18,3.86-1.06,5.07,1.19.13.24-.29,1-.64,1.22C605.67,288.59,604.34,286.69,602.08,285.62Z"/><path class="cls-1" d="M1556,539.59c4,2.2,2.73,5.27,2.15,9.67C1556.65,545.38,1554.31,543.22,1556,539.59Z"/><path class="cls-1" d="M128.1,489.44a4.31,4.31,0,0,1,2.15,3.38,1.46,1.46,0,0,1-1.87,1.6,2.61,2.61,0,0,1-1.88-2.78A2.12,2.12,0,0,1,128.1,489.44Z"/><path class="cls-1" d="M1258.27,20.44c.39-.25.9-.79,1.16-.69,2.4.95,3.91-3.15,6.4-1.08a1.32,1.32,0,0,1,0,1.29c-2.1,1.84-4.57.64-6.9.71A1.83,1.83,0,0,1,1258.27,20.44Z"/><path class="cls-1" d="M1105.38,372.46c-.34.37-.68.73-1,1.11-1.26,1.47-2.73,2.11-4.49.91a1.43,1.43,0,0,1-.37-1.28c.94-2.25,2.89-1.21,4.48-1.21A4.26,4.26,0,0,1,1105.38,372.46Z"/><path class="cls-1" d="M534.88,503.23c-2.36.89-4.62,1.7-6.51-.61a1.27,1.27,0,0,1,.29-1.19C531.32,499.88,533,501.6,534.88,503.23Z"/><path class="cls-1" d="M588,500.77c1.39.22,3,0,2.84,1.78s-1.69,1.4-2.82,1.38-2.74-.12-2.64-1.77S587.19,501.15,588,500.77Z"/><path class="cls-1" d="M543.51,1195.72c1.77-.69,3.09-3.3,5.46-1.32.25.22.21,1,.08,1.41C548.65,1197.09,548.6,1197.08,543.51,1195.72Z"/><path class="cls-1" d="M1178.05,25c1.63-1.41,1.85-3.72,4-3a1.86,1.86,0,0,1,1.08,2.38C1182.09,26.31,1180.33,25.47,1178.05,25Z"/><path class="cls-1" d="M357.37,38a8.61,8.61,0,0,1,1.67-.77c1.74-.3,3.37-.27,4.25,1.69.22.49.23.9-.34,1.16-1.52.71-2.76,0-4-.85C358.61,39,358.25,38.66,357.37,38Z"/><path class="cls-1" d="M406.58,83.59l-.12,1.81-1.91-1c-1.08-.52-2.19-1.07-2.18-2.49a1.29,1.29,0,0,1,.86-.84C405.12,80.83,406.57,81.28,406.58,83.59Z"/><path class="cls-1" d="M1540.51,709.11c-.16-1.71.58-2.76,2.33-2.87,1.28-.09,2.47.29,2.52,1.81.05,1.31-1.14,1.29-2,1.31a25,25,0,0,1-2.84-.26Z"/><path class="cls-1" d="M1547.15,716.94a4,4,0,0,1,4.81,0c.91.67,2.35,1.94,1.54,2.92-1.18,1.44-1.72-.73-2.55-1.2C1549.72,718,1547.86,718.73,1547.15,716.94Z"/><path class="cls-1" d="M1553.6,709.37c-.87-.29-2.5.22-2.28-1.66.13-1.11,1.12-1.43,2.12-1.46,1.32,0,2.46.41,2.41,1.9C1555.82,709.38,1554.64,709.29,1553.6,709.37Z"/><path class="cls-1" d="M1850.49,777.73c1,.18,2,.23,2,1.59a2.47,2.47,0,0,1-2,2.64c-1.13,0-2-1.32-2-2.66S1849.63,778,1850.49,777.73Z"/><path class="cls-1" d="M623.69,1039.31c-.44,1.43-1.75,1.67-2.9,1.79-1.58.16-1.18-1.24-1-2,.25-1.59,1.52-1.73,2.8-1.41A1.56,1.56,0,0,1,623.69,1039.31Z"/><path class="cls-1" d="M628.79,1040.53a13.34,13.34,0,0,0-.85,1.13c-.79,1.32-.7,3.52-3.16,3.1-.46-.08-1.27-.26-1.28-.45-.2-2.47,1.91-3,3.49-3.9A1.13,1.13,0,0,1,628.79,1040.53Z"/><path class="cls-1" d="M521,164.88c-.52,1.13-.68,2.83-2.66,2.53-.73-.11-1-.8-1.1-1.57-.1-1.89.93-2.54,2.63-2.28C520.47,163.64,521.48,163.61,521,164.88Z"/><path class="cls-1" d="M1186.81,22.14c2.58-2.14,4.54-2.51,6.88,0A10.22,10.22,0,0,1,1186.81,22.14Z"/><path class="cls-1" d="M74.66,180.28c-2.53,2.72-4.4.83-7.59.52C70.06,179.14,72,179.32,74.66,180.28Z"/><path class="cls-1" d="M529.61,1201.53c-1.29,1-2.05,2.93-4.1,2.13a2,2,0,0,1-.43-1.82C526.39,1200.25,528,1200.81,529.61,1201.53Z"/><path class="cls-1" d="M392.73,65.91c-.69-.27-2.11.33-1.89-1.3.13-.93.38-2.15,1.42-2.34s1.61.82,1.9,1.75C394.51,65.16,394.07,65.84,392.73,65.91Z"/><path class="cls-1" d="M1564.74,532.74c1,.21,1.81.77,1.65,1.82-.05.34-1.08.71-1.68.76a1.17,1.17,0,0,1-1.28-1.3A1.21,1.21,0,0,1,1564.74,532.74Z"/><path class="cls-1" d="M628.79,1040.53l-1.8-.12a3.07,3.07,0,0,1,4.68-1.13c.15.13.28.29.43.45C631.23,1040.88,630,1040.54,628.79,1040.53Z"/><path class="cls-1" d="M100.26,215.79c-1.35-.11-2.73-.07-2.75-1.8a1.15,1.15,0,0,1,1.41-1.21,2.78,2.78,0,0,1,2.22,1.67C101.81,215.7,100.53,215.38,100.26,215.79Z"/><path class="cls-1" d="M608.47,262.74c-.16.89-.77,1.07-1.5,1.06a2.07,2.07,0,0,1-2.23-1.36c-.32-.89.18-1.46.91-1.46A2.86,2.86,0,0,1,608.47,262.74Z"/><path class="cls-1" d="M1476.33,656.32c.21-.8.69-1.33,1.53-1,1.13.41,1.19,1.47,1.05,2.42-.07.49.1,1.79-1.16,1A2.63,2.63,0,0,1,1476.33,656.32Z"/><path class="cls-1" d="M1167.32,21.87c2.1-1.15,3.64-1.18,5.18-.07C1171,23,1169.45,22.92,1167.32,21.87Z"/><path class="cls-1" d="M523.07,209.46c-.59,1.09-1.18,2.15-2.64,1.82a1.16,1.16,0,0,1-.5-1c.45-1.12,1.15-2.11,2.57-1.84C522.75,208.49,522.89,209.12,523.07,209.46Z"/><path class="cls-1" d="M173.26,1229.89c0,.87-.54,1.33-1.32,1.28s-2.08,0-1.84-1.36a2.19,2.19,0,0,1,1.33-1.45C172.52,1228.1,173,1229,173.26,1229.89Z"/><path class="cls-1" d="M160.67,1230.15c1.85-1.08,4-1.41,4.39-.19.5,1.57-1.55.83-2.5,1C162.17,1231,161.71,1230.6,160.67,1230.15Z"/><path class="cls-1" d="M1716.08,680.69c-.29-1.36-.78-2.75.53-4,1.1,1.57,1.67,3-.66,3.9Z"/><path class="cls-1" d="M1500,482.76c.53.41,1.32.72,1.53,1.25.35.9.21,2.32-.83,2.36s-1.07-1.33-.94-2.3a14.39,14.39,0,0,1,.36-1.4Z"/><path class="cls-1" d="M1119.34,294.48c-.29,1.11-.5,2.15-1.77,1.91a1.17,1.17,0,0,1-.88-1.59c.26-.87.55-2,1.73-1.83C1118.82,293,1119.08,294,1119.34,294.48Z"/></g></g></svg>