<svg xmlns="http://www.w3.org/2000/svg" width="144.098" height="24.669" viewBox="0 0 144.098 24.669"><path d="M6.545-60.923H9.282V-71.8a4.74,4.74,0,0,1,4.494-4.7c1.791,0,3.008,1.284,3.008,3.447v12.132h2.737V-71.8a4.486,4.486,0,0,1,4.292-4.7,3.19,3.19,0,0,1,3.21,3.447v12.132h2.737V-73.19c0-3.616-2.2-5.61-5.305-5.61a6.116,6.116,0,0,0-5.339,3.109h-.068A4.6,4.6,0,0,0,14.486-78.8,6.125,6.125,0,0,0,9.35-75.893H9.282v-2.5H6.545Zm34.3.473c3.954,0,6.691-2.129,7.5-5.88h-2.67a4.528,4.528,0,0,1-4.832,3.582c-3.514,0-5.441-2.7-5.643-6.252H48.718c0-5.779-2.8-9.834-8.043-9.834-4.968,0-8.279,4.123-8.279,9.192S35.505-60.45,40.845-60.45Zm-.169-16.221c3.143,0,4.934,2.129,5.1,5.61H35.269C35.674-74.238,37.432-76.671,40.676-76.671Zm13.45-1.723H51.388v17.471h2.737v-9.7a5.037,5.037,0,0,1,5.069-5.305,3.31,3.31,0,0,1,1.217.169h.1v-2.636a2.632,2.632,0,0,0-1.115-.2,6.2,6.2,0,0,0-5.2,3.109h-.068Zm8.854,17.471h2.737V-78.394H62.979Zm0-20.783h2.737v-3.379H62.979ZM76.192-60.416A6.336,6.336,0,0,0,81.6-63.052h.068v2.129H84.4V-85.085H81.666v9.158H81.6A6.461,6.461,0,0,0,76.124-78.8c-4.325,0-7.671,3.379-7.671,9.192C68.453-64,71.427-60.416,76.192-60.416Zm.1-2.3c-3.345,0-5.035-2.906-5.035-6.86,0-3.92,1.69-6.894,5-6.894,3.616,0,5.576,2.839,5.576,6.894C81.835-65.62,80.18-62.714,76.293-62.714Zm11.827,1.791h2.737V-78.394H88.121Zm0-20.783h2.737v-3.379H88.121ZM108.3-60.754a3.746,3.746,0,0,0,1.487-.27v-1.994h-.1c-1.521.338-1.859-.439-1.859-1.859V-73.19c0-4.157-2.737-5.542-6.454-5.542-4.63,0-6.86,2.534-6.961,5.914h2.636c.1-2.636,1.521-3.852,4.359-3.852,2.5,0,3.92,1.115,3.92,3.075,0,1.892-1.723,2.129-4.19,2.5-4.359.676-7.6,1.521-7.6,5.643,0,3.312,2.6,4.866,5.914,4.866a7.02,7.02,0,0,0,5.812-2.771h.034A2.684,2.684,0,0,0,108.3-60.754ZM100.05-62.68c-1.791,0-3.616-.507-3.616-2.839,0-2.568,2.2-3.041,4.934-3.548a12.57,12.57,0,0,0,3.988-1.284v2.974A4.925,4.925,0,0,1,100.05-62.68Zm14.5-15.714H111.81v17.471h2.737V-71.669a4.622,4.622,0,0,1,4.8-4.832c2.467,0,3.954,1.284,3.954,3.548v12.03h2.737V-73.19c0-3.616-2.23-5.61-5.88-5.61a6.549,6.549,0,0,0-5.542,2.7h-.068Z" transform="translate(-6.545 85.085)" fill="#fff"/><path d="M10.908-19.251h.483l3.223-9.729h-.665L11.129-20.2,8.209-28.98H7.725L4.8-20.2,1.985-28.98H1.32l3.223,9.729h.483l2.941-8.822Zm12.428,0h.786l-3.968-5L23.9-28.98h-.786l-3.3,4.31-3.3-4.31h-.786l3.746,4.733-3.968,5h.786l3.525-4.592Z" transform="translate(119.977 29.994)" fill="#fff"/></svg>