<svg xmlns="http://www.w3.org/2000/svg" width="123.37" height="21.17" viewBox="0 0 123.37 21.17"><path d="M1.6,0H3.944V-9.338A4.067,4.067,0,0,1,7.8-13.369c1.537,0,2.581,1.1,2.581,2.958V0h2.349V-9.338a3.85,3.85,0,0,1,3.683-4.031,2.738,2.738,0,0,1,2.755,2.958V0h2.349V-10.527c0-3.1-1.885-4.814-4.553-4.814a5.248,5.248,0,0,0-4.582,2.668h-.058A3.945,3.945,0,0,0,8.41-15.341,5.257,5.257,0,0,0,4-12.847H3.944v-2.146H1.6ZM31.03.406A6.1,6.1,0,0,0,37.468-4.64H35.177A3.886,3.886,0,0,1,31.03-1.566c-3.016,0-4.669-2.32-4.843-5.365h11.6c0-4.959-2.407-8.439-6.9-8.439-4.263,0-7.105,3.538-7.105,7.888S26.448.406,31.03.406Zm-.145-13.92c2.7,0,4.234,1.827,4.379,4.814H26.245C26.593-11.426,28.1-13.514,30.885-13.514Zm11.542-1.479H40.078V0h2.349V-8.323a4.323,4.323,0,0,1,4.35-4.553,2.841,2.841,0,0,1,1.044.145h.087v-2.262a2.258,2.258,0,0,0-.957-.174A5.32,5.32,0,0,0,42.485-12.5h-.058ZM50.025,0h2.349V-14.993H50.025Zm0-17.835h2.349v-2.9H50.025ZM61.364.435A5.437,5.437,0,0,0,66-1.827h.058V0h2.349V-20.735H66.062v7.859H66a5.545,5.545,0,0,0-4.7-2.465c-3.712,0-6.583,2.9-6.583,7.888C54.723-2.639,57.275.435,61.364.435Zm.087-1.972c-2.871,0-4.321-2.494-4.321-5.887,0-3.364,1.45-5.916,4.292-5.916,3.1,0,4.785,2.436,4.785,5.916C66.207-4.031,64.786-1.537,61.451-1.537ZM71.6,0H73.95V-14.993H71.6Zm0-17.835H73.95v-2.9H71.6ZM88.914.145A3.215,3.215,0,0,0,90.19-.087V-1.8H90.1c-1.305.29-1.6-.377-1.6-1.6v-7.134c0-3.567-2.349-4.756-5.539-4.756-3.973,0-5.887,2.175-5.974,5.075h2.262c.087-2.262,1.305-3.306,3.741-3.306,2.146,0,3.364.957,3.364,2.639,0,1.624-1.479,1.827-3.6,2.146-3.741.58-6.525,1.305-6.525,4.843,0,2.842,2.233,4.176,5.075,4.176A6.024,6.024,0,0,0,86.3-2.088h.029A2.3,2.3,0,0,0,88.914.145ZM81.838-1.508c-1.537,0-3.1-.435-3.1-2.436,0-2.2,1.885-2.61,4.234-3.045a10.787,10.787,0,0,0,3.422-1.1v2.552A4.226,4.226,0,0,1,81.838-1.508ZM94.279-14.993H91.93V0h2.349V-9.222A3.967,3.967,0,0,1,98.4-13.369c2.117,0,3.393,1.1,3.393,3.045V0h2.349V-10.527c0-3.1-1.914-4.814-5.046-4.814a5.62,5.62,0,0,0-4.756,2.32h-.058ZM108.37-10H109.4l1.573-5.785c.237-.9.491-2.081.491-2.081h.034s.237,1.184.474,2.081L113.5-10h1l2.673-8.745h-.829l-1.607,5.413c-.271.947-.694,2.571-.694,2.571H114s-.372-1.59-.592-2.453l-1.455-5.531h-.93l-1.506,5.531c-.237.88-.626,2.453-.626,2.453h-.034s-.355-1.607-.626-2.571l-1.489-5.413h-.863Zm9.016,0h.964l2.791-4.077h.034L123.984-10h.981l-3.3-4.669,2.808-4.077h-.964l-2.351,3.5h-.034l-2.419-3.5h-.981l2.926,4.094Z" transform="translate(-1.595 20.735)" fill="#fff"/></svg>