<svg xmlns="http://www.w3.org/2000/svg" width="103.946" height="15.5" viewBox="0 0 103.946 15.5">
  <g id="Group_1394" data-name="Group 1394" transform="translate(0)" opacity="0.95">
    <g id="Group_1393" data-name="Group 1393" transform="translate(87.201 2.952)">
      <path id="Path_70" data-name="Path 70" d="M42.889,15.995A7.581,7.581,0,0,1,38.3,14.2l1.215-1.579a5.087,5.087,0,0,0,4.1,1.31,6.846,6.846,0,0,0,2.986-1.82c1.176-1.018,2.5-2.167,4.386-1.944A6.067,6.067,0,0,1,54.938,12.8l-1.574,1.217a4.246,4.246,0,0,0-2.617-1.878c-.952-.114-1.706.486-2.845,1.475a8.6,8.6,0,0,1-3.88,2.264,5.6,5.6,0,0,1-1.132.117" transform="translate(-38.193 -10.135)" fill="#fff"/>
      <path id="Path_71" data-name="Path 71" d="M42.844,17.976a7.6,7.6,0,0,1-4.59-1.8L39.471,14.6a5.077,5.077,0,0,0,4.1,1.31,6.821,6.821,0,0,0,2.984-1.822c1.176-1.016,2.507-2.165,4.388-1.944A6.063,6.063,0,0,1,54.9,14.781L53.32,16a4.232,4.232,0,0,0-2.614-1.878c-.95-.114-1.706.486-2.848,1.475a8.62,8.62,0,0,1-3.883,2.264,5.563,5.563,0,0,1-1.132.117" transform="translate(-38.254 -7.306)" fill="#fff"/>
    </g>
    <path id="Path_74" data-name="Path 74" d="M.836,1.6H3.724V-4.731c0-1.444.786-2.378,1.953-2.378,1.062,0,1.677.637,1.677,1.868V1.6h2.888V-4.731c0-1.444.743-2.378,1.953-2.378,1.062,0,1.677.637,1.677,1.868V1.6h2.888V-5.729c0-2.378-1.3-3.864-3.588-3.864A3.8,3.8,0,0,0,9.9-7.682H9.86A3.25,3.25,0,0,0,6.845-9.593,3.556,3.556,0,0,0,3.681-7.831H3.618V-9.3H.836Zm22.825.318c2.8,0,4.523-1.635,4.926-3.567H25.742a2.033,2.033,0,0,1-2.1,1.338c-1.635,0-2.569-1.04-2.782-2.718h7.9c0-3.886-1.868-6.561-5.372-6.561-3.185,0-5.372,2.505-5.372,5.733C18.013-.612,20.052,1.915,23.661,1.915Zm-.234-9.279a2.3,2.3,0,0,1,2.314,2.336H20.9A2.425,2.425,0,0,1,23.428-7.364ZM32.876-9.3H30.095V1.6h2.888V-3.712c0-2.293,1.359-3.291,3.249-3.1h.064V-9.338a1.886,1.886,0,0,0-.679-.085A2.857,2.857,0,0,0,32.94-7.555h-.064ZM37.548,1.6h2.888V-9.3H37.548Zm0-12.591h2.888v-2.59H37.548Zm8.833,12.91A3.624,3.624,0,0,0,49.629.174h.042V1.6h2.782V-13.585H49.565V-7.98H49.5a3.454,3.454,0,0,0-3.079-1.614c-2.718,0-4.65,2.357-4.65,5.754C41.773-.314,43.641,1.915,46.381,1.915Zm.637-2.421c-1.486,0-2.314-1.232-2.314-3.334,0-2.017.807-3.418,2.4-3.418,1.847,0,2.527,1.4,2.527,3.482C49.629-1.78,48.737-.506,47.017-.506Zm7.3,2.1h2.888V-9.3H54.322Zm0-12.591h2.888v-2.59H54.322ZM65.936,1.6h2.782V1.49c-.255-.191-.382-.679-.382-1.508V-5.559c0-2.548-1.316-4.013-4.586-4.013-3.185,0-4.608,1.677-4.692,3.588h2.569c.085-1.04.743-1.529,2.1-1.529,1.21,0,1.826.51,1.826,1.3,0,.828-.828.977-2.633,1.232-2.421.34-4.374,1.1-4.374,3.5,0,2.166,1.571,3.334,3.8,3.334A3.34,3.34,0,0,0,65.554.386H65.6A2.954,2.954,0,0,0,65.936,1.6ZM63.048-.166c-1.019,0-1.7-.361-1.7-1.38s.743-1.359,2.251-1.7a8.052,8.052,0,0,0,2.017-.637v1.635C65.617-1.185,64.7-.166,63.048-.166ZM72.985-9.3H70.161V1.6h2.888V-4.582a2.277,2.277,0,0,1,2.208-2.505,1.813,1.813,0,0,1,1.89,2V1.6h2.888V-5.517a3.748,3.748,0,0,0-3.758-4.077A3.539,3.539,0,0,0,73.049-7.81h-.064Z" transform="translate(-0.836 13.585)" fill="#fff"/>
  </g>
</svg>
